<svg xmlns="http://www.w3.org/2000/svg" xmlns:xlink="http://www.w3.org/1999/xlink" width="1220.658" height="687.183" viewBox="0 0 1220.658 687.183">
<style>
  #Group_7951{
  animation: move 20s infinite;
}
@keyframes move {
  0%{
    transform: translate(2454.74px, 1759.16px) rotate(150deg);
  }
  50%{
 transform: translate(2454.74px, 1759.16px) rotate(155deg);
  }
  100%{
 transform: translate(2454.74px, 1759.16px) rotate(150deg);
  }
}
</style>
  <defs>
    <clipPath id="clip-path">
      <path id="Path_7777" data-name="Path 7777" d="M0,0H1220.658V687.183H0Z" transform="translate(699.342 835)" fill="#f3edeb"/>
    </clipPath>
  </defs>
  <g id="Mask_Group_200" data-name="Mask Group 200" transform="translate(-699.342 -835)" clip-path="url(#clip-path)">
    <path id="Path_7744" data-name="Path 7744" d="M0,0H1220.658V687.183H0Z" transform="translate(699.342 835)" fill="#f3edeb"/>
    <g id="Group_7950" data-name="Group 7950" transform="translate(1405.554 -1738.197) rotate(-90)" opacity="0.1">
      <g id="Rectangle_2843" data-name="Rectangle 2843" transform="translate(-3499.069 55.116)" fill="none" stroke="#000" stroke-width="3">
        <rect width="175.695" height="337.889" rx="87.847" stroke="none"/>
        <rect x="1.5" y="1.5" width="172.695" height="334.889" rx="86.347" fill="none"/>
      </g>
      <g id="Rectangle_2844" data-name="Rectangle 2844" transform="translate(-2930.325 772.47) rotate(180)" fill="none" stroke="#000" stroke-width="3">
        <rect width="175.695" height="260.825" rx="87.847" stroke="none"/>
        <rect x="1.5" y="1.5" width="172.695" height="257.825" rx="86.347" fill="none"/>
      </g>
      <rect id="Rectangle_2845" data-name="Rectangle 2845" width="175.695" height="283.466" rx="87.847" transform="translate(-3499.069 416.552)" fill="#bb7271"/>
      <rect id="Rectangle_2846" data-name="Rectangle 2846" width="175.695" height="283.466" rx="87.847" transform="translate(-2930.325 489.003) rotate(180)" fill="#9de5db"/>
      <path id="Rectangle_2847" data-name="Rectangle 2847" d="M83.772,0h8.151a83.772,83.772,0,0,1,83.772,83.772v83.772a0,0,0,0,1,0,0H83.772A83.772,83.772,0,0,1,0,83.772v0A83.772,83.772,0,0,1,83.772,0Z" transform="translate(-3499.069 723.565)" fill="#f0a457"/>
      <path id="Rectangle_2848" data-name="Rectangle 2848" d="M83.319,0h9.056a83.319,83.319,0,0,1,83.319,83.319v83.319a0,0,0,0,1,0,0H83.319A83.319,83.319,0,0,1,0,83.319v0A83.319,83.319,0,0,1,83.319,0Z" transform="translate(-2930.325 181.084) rotate(180)" fill="#cecece"/>
      <path id="Rectangle_2849" data-name="Rectangle 2849" d="M0,0H87.847a87.847,87.847,0,0,1,87.847,87.847v192.9A87.847,87.847,0,0,1,87.847,368.6h0A87.847,87.847,0,0,1,0,280.75V0A0,0,0,0,1,0,0Z" transform="translate(-3302.545 133.085)" fill="#8038ab"/>
      <path id="Rectangle_2850" data-name="Rectangle 2850" d="M86.489,0h2.717a86.489,86.489,0,0,1,86.489,86.489v0a86.489,86.489,0,0,1-86.489,86.489H0a0,0,0,0,1,0,0V86.489A86.489,86.489,0,0,1,86.489,0Z" transform="translate(-3302.545 527.04)" fill="#1ed5c3"/>
      <path id="Rectangle_2851" data-name="Rectangle 2851" d="M23.547,0h.906A23.547,23.547,0,0,1,48,23.547v0A23.547,23.547,0,0,1,24.452,47.093H0a0,0,0,0,1,0,0V23.547A23.547,23.547,0,0,1,23.547,0Z" transform="translate(-3134.095 484.475)" fill="#bb7271"/>
      <g id="Path_7745" data-name="Path 7745" transform="translate(-3349.739 673.949)" fill="none">
        <path d="M26.783,0V26.16H0Z" stroke="none"/>
        <path d="M 23.78332138061523 7.123830795288086 L 7.364875793457031 23.16045761108398 L 23.78332138061523 23.16045761108398 L 23.78332138061523 7.123830795288086 M 26.78332138061523 -3.814697265625e-06 L 26.78332138061523 26.16045761108398 L 0 26.16045761108398 L 26.78332138061523 -3.814697265625e-06 Z" stroke="none" fill="#000"/>
      </g>
      <path id="Rectangle_2852" data-name="Rectangle 2852" d="M0,0H87.847a87.847,87.847,0,0,1,87.847,87.847v57.961a87.847,87.847,0,0,1-87.847,87.847h0A87.847,87.847,0,0,1,0,145.809V0A0,0,0,0,1,0,0Z" transform="translate(-3302.545 723.565)" fill="#dd3e1f"/>
    </g>
    <g id="Group_7951" data-name="Group 7951" transform="translate(2454.741 1759.16) rotate(150)">
      <path id="Path_7746" data-name="Path 7746" d="M.029,0C-.835-.34,17.19,45.594,42.5,60.159c16.936,9.806,46.561,13.28,46.541,13.26A78.933,78.933,0,0,0,70,47.033C56.642,35.3,10.063,10.581.029,0Z" transform="translate(207.639 85.702)" fill="#fff"/>
      <path id="Path_7747" data-name="Path 7747" d="M125.509,3.331c-.02.011-24.276,7.376-46.378,11.864-22.144,4.5-37.566,7.355-55.388,8.9C5.934,25.6.007,25.25,0,25.256c-.181.009,31.166-18.507,58.876-22.7C86.362-1.628,118.455-.177,125.509,3.331Z" transform="translate(78.404 91.429)" fill="#fff"/>
      <path id="Path_7748" data-name="Path 7748" d="M.01,0c-.675-.358,31.644,45.2,51.64,57.05C74.689,70.688,116.1,79.514,124.3,82.136c-.036-.03-24.629-21.584-46.747-39.542S18.343.219.01,0Z" transform="translate(185.05 138.148)" fill="#fff"/>
      <path id="Path_7749" data-name="Path 7749" d="M155.156,9.2c.012-.007-6,3.084-20.684,9.688-14.859,6.672-55.493,24.514-71.92,28.59C45.962,51.673,12.14,53.7.452,54.1c-4.5.182,25.554-13.9,45.519-21.837,14.983-5.979,37.354-15.048,53.2-17.47,7.349-1.115,41.625-3.151,54.774-12.033C167.137-6.1,155.086,9.189,155.156,9.2Z" transform="translate(24.443 133.119)" fill="#fff"/>
      <path id="Path_7750" data-name="Path 7750" d="M.007,0c-.457-.2,19.146,39.186,35.9,53.37C51.132,66.482,71.965,80.648,94.813,89.949c22.823,9.251,43.026,17.608,43.026,17.608C137.749,107.5,117.5,82.526,99.667,67.9c-18.033-14.744-33-29.575-54.636-41.227C23.319,14.961-.028-.029.007,0Z" transform="translate(174.504 171.781)" fill="#fff"/>
      <path id="Path_7751" data-name="Path 7751" d="M169.151,6.889c-4.344,6.463-9.515,12.408-27.334,19.866C123.8,34.3,85.112,54.913,60.915,59.235,36.533,63.7,1.608,70.3.056,71.06c-1.814.855,40.818-28.666,69.759-38.263,23.87-7.863,50.243-13.458,65.808-16.871C151.206,12.509,166.255,7.036,172.5,0A44.211,44.211,0,0,1,169.151,6.889Z" transform="translate(0 177.006)" fill="#fff"/>
      <path id="Path_7752" data-name="Path 7752" d="M0,0c.014.033,5.97,16.767,29.26,38.928C52.512,61.1,74.886,81.3,87.579,89.971c12.659,8.606,43.39,21.4,47.267,24.091,3.76,2.605-17.272-27.165-24.86-35.282-7.776-8.247-24.58-22.829-48.018-36.333C38.394,28.8,6.816,6.6,0,0Z" transform="translate(167.305 225.005)" fill="#fff"/>
      <path id="Path_7753" data-name="Path 7753" d="M160.19,0c-7.834,6.369-28.25,15.876-40.1,21.785-11.744,5.824-24.5,7.149-65.108,31.375C19.275,74.4.005,97.171,0,97.19c.012-.023,7.21-2.136,32.634-7.713,25.36-5.553,54.625-28.489,81.333-46C140.48,25.995,155.987,9.072,155.985,9.1Q158.047,4.538,160.19,0Z" transform="translate(5.394 228.345)" fill="#fff"/>
      <path id="Path_7754" data-name="Path 7754" d="M0,.092c-.317-.2,33.462,43.847,53.886,64.99,19.956,20.845,34.4,38.342,63.862,46.391,29.648,8.086,44.319,15.647,44.319,15.647-.035-.044-27.081-27.294-49.979-45.52C88.98,63.188,58.894,39.125,47.7,32.424,36.247,25.511,5.367-1.777,0,.092Z" transform="translate(158.266 271.219)" fill="#fff"/>
      <path id="Path_7755" data-name="Path 7755" d="M147.922,15.749c-7.091,9.676-15.407,18.171-35.609,33.361-19.12,14.394-41.4,30.282-54.7,35.522C44.282,90.075,1.158,106.247.044,106.468c-1.187.391,21.317-30.157,40.672-41.517,19.209-11.26,35.1-22.833,64.172-31.731,29.059-8.922,41.5-20.4,45.231-30.469C153.822-7.343,149.539,13.416,147.922,15.749Z" transform="translate(16.141 284.306)" fill="#fff"/>
      <path id="Path_7756" data-name="Path 7756" d="M1.768,0C1.7-.027,17.913,21.386,34.566,29.5c16.442,7.9,54.522,38.157,66.1,49.318,11.257,10.756,61.094,55.316,64.115,59.8,2.859,4.233-21.845-12.465-42.308-20.489-20.494-8.117-48.6-30.618-68.056-49.506C34.681,49.507,4.183,13.922,1.243,8.489-1.833,2.936,1.768.01,1.768,0Z" transform="translate(167.851 330.885)" fill="#fff"/>
      <path id="Path_7757" data-name="Path 7757" d="M132.687,14.465c-.034.019-16.359,17.181-31.708,30.54C85.615,58.5,56.343,75.766,49.236,81.466,42.158,87.42.5,104.548.01,105.981c-.46,1.6,14.954-26.213,38.148-45.25s42.2-28.076,61.768-36.386c19.546-8.335,30.18-16.728,32.1-23.076C133.906-5.078,132.614,14.46,132.687,14.465Z" transform="translate(36.623 340.643)" fill="#fff"/>
      <path id="Path_7758" data-name="Path 7758" d="M6,10.99c-.111-.13,35.2,39.1,54.071,55.348,18.709,16.034,38.942,36.521,56.824,48.13,17.867,11.564,45.073,29.59,45.093,29.625-.011-.056-26.312-34.868-46.872-55.35C94.507,68.137,71.807,46.062,46.7,28.339A387.583,387.583,0,0,0,0,0C1.987,3.644,3.988,7.318,6,10.99Z" transform="translate(177.968 404.525)" fill="#fff"/>
      <path id="Path_7759" data-name="Path 7759" d="M126.838,24.273c-.049.093-27.644,30.857-43.646,43.9C67.165,81.485,38.409,99.315,24.85,104.112A208.326,208.326,0,0,0,0,115.085c.132.29,37.775-46.249,60.647-58.892C83.611,44.15,123.271,18.732,126.51,3.657,129.664-11.258,126.732,24.268,126.838,24.273Z" transform="translate(51.144 394.85)" fill="#fff"/>
      <path id="Path_7760" data-name="Path 7760" d="M6.572,21.856c-.079-.152,37.185,44.619,50.259,59.1,12.957,14.225,40.22,36.25,56.593,44.568,16.357,8.2,54.193,30.125,60.042,37.185,5.86,6.994-17.807-29.8-41.091-49.4-23.248-19.72-56.93-45.62-83.355-65.9S9.745,20.3,2.438,4.322,6.539,21.819,6.572,21.856Z" transform="translate(190.239 454.31)" fill="#fff"/>
      <path id="Path_7761" data-name="Path 7761" d="M127.7,13c-.02.032-14.059,20.146-27.662,31.667-13.582,11.6-36.227,23.583-46.69,30.3C43.023,81.9,1.632,96.922.049,99.411-1.283,102.158,24.329,63.332,51.455,47.4c27.33-15.719,48.438-23.151,57.84-30.564A150.225,150.225,0,0,0,126.861,0C127.131,4.334,127.412,8.675,127.7,13Z" transform="translate(65.657 468.977)" fill="#fff"/>
      <path id="Path_7762" data-name="Path 7762" d="M5.063,13.4c0-.051,31,37.581,56.9,59.962C87.878,95.6,127.288,114.7,141.462,122.3c14.169,7.58,22.567,9.987,22.578,9.989a624.36,624.36,0,0,0-44.648-45.046C95.05,65.169,60.805,45.4,45.185,36.86,29.56,28.245,4.207,7.64.866,1.339-2.512-5.029,5.078,13.392,5.063,13.4Z" transform="translate(211.333 532.655)" fill="#fff"/>
      <path id="Path_7763" data-name="Path 7763" d="M119.59,8.957c.032.037-17.093,28.164-36.024,40.65C64.734,62.265,47.9,74.953,37.053,79.26,26.307,83.661.062,98.129,0,98.051.071,98.071,13.385,72.2,34.627,55c16.2-12.508,66.863-37.5,79.895-51.252C125.051-7.058,119.586,8.953,119.59,8.957Z" transform="translate(90.513 533.497)" fill="#fff"/>
      <path id="Path_7764" data-name="Path 7764" d="M5.4,14.3c.076-.015,24.805,43.057,58.426,70.176,23.962,19.165,56.752,38.249,75.214,46.627,23.333,10.589,35.991,20.223,35.991,20.223.034-.009-17.281-24.946-32.763-38.333-15.424-13.482-42.362-35-65.294-51.13C54.037,45.613,8.92,19.8,2.3,4.878-4.31-10.135,5.426,14.3,5.4,14.3Z" transform="translate(225.992 586.111)" fill="#fff"/>
      <path id="Path_7765" data-name="Path 7765" d="M126.018,5.135c.012,0-9.45,12.31-19.032,23.447-9.443,11.233-29.6,33.752-45.78,41.17C45.462,77.539,1.772,97.1.042,99.066c-1.185,2.3,22.3-33.883,39.138-48.485,17.438-14.2,54.253-33.744,70.785-44.335C126.551-4.263,129.074.709,126.018,5.135Z" transform="translate(106.568 603.205)" fill="#fff"/>
      <path id="Path_7766" data-name="Path 7766" d="M5.029,18.726c.189-.1,38.093,54.012,59.961,74.5a513.819,513.819,0,0,0,74.348,56.122c25.431,15.7,33.055,18.939,33.065,18.911.215-.083-35.493-47.267-55.7-64.651C96.78,86.084,76.939,67.963,54.134,52.775,31.338,37.534,7.286,19.859,1.81,4.449-3.689-10.993,5.1,18.721,5.029,18.726Z" transform="translate(242.531 643.442)" fill="#fff"/>
      <path id="Path_7767" data-name="Path 7767" d="M110.623,16.613c-.064-.027-4.577,12.407-13.929,33.69C87.482,71.639,72.834,96.272,63.1,104.588,53.948,113.314,1.7,134.266.021,134.952c-.771,1.122,19.594-42.535,35.613-59.183,19.819-19.52,41.8-29.106,59.032-51.05C111.609,2.6,109.292-.066,109.365,0,109.82,5.551,110.244,11.076,110.623,16.613Z" transform="translate(134.035 642.56)" fill="#fff"/>
      <path id="Path_7768" data-name="Path 7768" d="M7.742,25.326C7.7,25.354,19.472,48.306,45.8,81.05c26.289,32.821,41.677,52.391,59.785,65.755,18.084,13.361,45.673,30.215,45.666,30.231.1-.012-14.044-28-29.221-45.244C107.1,114.483,73.434,82.571,52.419,63.26,31.451,43.847,10.128,23.482,2.4,5-5.278-13.5,7.927,25.314,7.742,25.326Z" transform="translate(254.543 693.172)" fill="#fff"/>
      <path id="Path_7769" data-name="Path 7769" d="M113.325,7.818c.027-.045,1.078,32.863-18.5,56.357C75.26,87.556,67.543,99.978,55.41,106,43.619,112.21.358,133.395,0,133.2c1.3.379,38.606-55.357,55.988-73.018C74.93,43.086,99.262,30.235,110.2,5.15,115.75-7.827,113.34,7.815,113.325,7.818Z" transform="translate(149.906 719.5)" fill="#fff"/>
      <path id="Path_7770" data-name="Path 7770" d="M2.571,13.908c.135-.011,18.5,34.777,32.83,55.419,14.575,20.619,29.328,41.066,55.024,64.3,25.655,23.265,37.71,33,37.759,32.972.055.06-.972-25.88-25.7-57.309C77.823,77.875,51.929,56.552,39.259,43.106,26.541,29.609,7.166,12.083,2.1,2.516-2.919-7.089,2.646,13.907,2.571,13.908Z" transform="translate(270.198 767.617)" fill="#fff"/>
      <path id="Path_7771" data-name="Path 7771" d="M111.842,16.815c.733.242-26.243,48.215-38.308,66.011-15.371,26.4-68.743,42.41-73.345,45.036-3.16,3.086,34.086-49.612,48.671-65.376,9.7-8.261,45.756-40.614,55.1-55.5C113.745-7.653,115.962,3.195,111.842,16.815Z" transform="translate(161.479 800.992)" fill="#fff"/>
      <path id="Path_7772" data-name="Path 7772" d="M1.445,19.241C1.472,19.223,13.76,42.8,24.9,63.985c11.545,21.132,31.582,58.4,44.373,70.25,13.119,11.8,37.394,30.667,37.378,30.675.09.054,4.527-22.97-13.252-48.179C75.813,91.577,57.337,70.013,42.285,55.2,27.31,40.33,3.614,14.775.974,2.919-1.542-8.959,1.631,19.252,1.445,19.241Z" transform="translate(278.116 821.709)" fill="#fff"/>
      <path id="Path_7773" data-name="Path 7773" d="M107.822,17.256c.009-.009-5.608,20.9-18.815,39.6C76.092,75.615,57.741,96.992,43.559,109.516,29.861,122.195.163,138.141,0,138.066c.679.121,25.854-39.552,41.817-58.969,17.729-18.96,55.411-53.184,64.526-73.653C114.577-11.753,108.036,17.292,107.822,17.256Z" transform="translate(170.496 864.382)" fill="#fff"/>
      <path id="Path_7774" data-name="Path 7774" d="M2.279,20.186c.095-.017,10.934,29.181,10.324,47.19.051,18,7.91,54.36,18.786,70.875,11.4,16.477,24.5,37.648,24.444,37.657.221.016,1.285-26.916-1.4-41.139-2.466-14.2-5.076-30.829-18.871-61.487C21.85,42.622,3.448,8.415.777,1.248-1.675-5.928,2.475,20.2,2.279,20.186Z" transform="translate(280.058 875.191)" fill="#fff"/>
      <path id="Path_7775" data-name="Path 7775" d="M40.592,7.386c-.135-.025-1.54,9.43-10.033,32.068C22.712,62.207,6.1,102.167,2.692,115.261c-1.639,13.192.451,62.292-2.666,66.492-1.081,4.4,31.9-43.8,36.333-59.3,6.13-15.2,15.478-33.164,14.086-49.079C50.018,57.516,44.107,9.4,45.264,2.222,47.127-4.907,40.646,7.4,40.592,7.386Z" transform="translate(236.789 901.983)" fill="#fff"/>
      <path id="Path_7776" data-name="Path 7776" d="M112.124,0c-3.249-.572-82.786,85.832-98.678,157.142-28.462,72.54-4.769,227.8,7.473,271,9.2,41.661,58.287,195.182,64.908,232.526C97.975,704.856,122,828.7,118.169,881.395c.017,31.335,4.236,54.889,3.6,57.427-.279,2.607,6.324-35.977,5.728-48.714,1.032-12.54-1.351-73.191-8.66-108.433-5.592-35.074-17.354-94.16-24.293-119.149C89.685,637.563,49.824,504.863,31.751,429.3c-2.968-17.156-15.912-76.22-17.34-136.508-2.641-60.592,6.243-122.391,18.93-151.922C50,94.68,79.347,58.453,95.733,41.971,111.531,25.334,119.119,2.037,112.124,0Z" transform="translate(157.072 0)" fill="#fff"/>
    </g>
  </g>
</svg>
