<svg xmlns="http://www.w3.org/2000/svg" xmlns:xlink="http://www.w3.org/1999/xlink" width="1920" height="892" viewBox="0 0 1920 892">
<style>
#Ellipse_137-2{
  animation: move 4s infinite;
}
@keyframes move {
  0%{
    transform: translate(744px, 474PX);
  }
  50%{
 transform: translate(764px, 474PX);
  }
  100%{
 transform: translate(744px, 474PX);
  }
}
#Ellipse_140-2{
  animation: move-2 4s infinite;
}
@keyframes move-2 {
  0%{
    transform: translate(1782px, 493px);
  }
  50%{
 transform: translate(1782px, 510px);
  }
  100%{
 transform: translate(1782px, 493px);
  }
}
#Ellipse_136-2{
  animation: move-3 4s infinite;
}
@keyframes move-3 {
  0%{
    transform: translate(92px, 75px);
  }
  50%{
 transform: translate(92px, 90px);
  }
  100%{
 transform: translate(92px, 75px);
  }
}
#Ellipse_139-2{
  animation: move-4 4s infinite;
}
@keyframes move-4 {
  0%{
    transform: translate(549px, 20px);
  }
  50%{
 transform: translate(530px, 20px);
  }
  100%{
 transform: translate(549px, 20px);
  }
}
#Ellipse_138-2{
  animation: move-5 4s infinite;
}
@keyframes move-5 {
  0%{
    transform: translate(-21px, 555px);
  }
  50%{
 transform: translate(-10px, 555px);
  }
  100%{
 transform: translate(-21px, 555px);
  }
}
</style>
  <defs>
    <clipPath id="clip-path">
      <rect id="Rectangle_2796" data-name="Rectangle 2796" width="1920" height="892" transform="translate(-4525 7243)" fill="#fff" stroke="#707070" stroke-width="1"/>
    </clipPath>
    <filter id="Ellipse_136" x="23" y="19" width="237" height="237" filterUnits="userSpaceOnUse">
      <feOffset dy="13" input="SourceAlpha"/>
      <feGaussianBlur stdDeviation="23" result="blur"/>
      <feFlood flood-opacity="0.161"/>
      <feComposite operator="in" in2="blur"/>
      <feComposite in="SourceGraphic"/>
    </filter>
    <filter id="Ellipse_137" x="675" y="418" width="187" height="187" filterUnits="userSpaceOnUse">
      <feOffset dy="13" input="SourceAlpha"/>
      <feGaussianBlur stdDeviation="23" result="blur-2"/>
      <feFlood flood-opacity="0.161"/>
      <feComposite operator="in" in2="blur-2"/>
      <feComposite in="SourceGraphic"/>
    </filter>
    <filter id="Ellipse_138" x="-90" y="499" width="322" height="322" filterUnits="userSpaceOnUse">
      <feOffset dy="13" input="SourceAlpha"/>
      <feGaussianBlur stdDeviation="23" result="blur-3"/>
      <feFlood flood-opacity="0.161"/>
      <feComposite operator="in" in2="blur-3"/>
      <feComposite in="SourceGraphic"/>
    </filter>
    <filter id="Ellipse_139" x="480" y="-36" width="305" height="305" filterUnits="userSpaceOnUse">
      <feOffset dy="13" input="SourceAlpha"/>
      <feGaussianBlur stdDeviation="23" result="blur-4"/>
      <feFlood flood-opacity="0.161"/>
      <feComposite operator="in" in2="blur-4"/>
      <feComposite in="SourceGraphic"/>
    </filter>
    <filter id="Ellipse_140" x="1713" y="437" width="256" height="256" filterUnits="userSpaceOnUse">
      <feOffset dy="13" input="SourceAlpha"/>
      <feGaussianBlur stdDeviation="23" result="blur-5"/>
      <feFlood flood-opacity="0.161"/>
      <feComposite operator="in" in2="blur-5"/>
      <feComposite in="SourceGraphic"/>
    </filter>
    <clipPath id="clip-path-2">
      <rect id="Rectangle_2795" data-name="Rectangle 2795" width="1920" height="873" transform="translate(0 205)" fill="#fff" stroke="#707070" stroke-width="1"/>
    </clipPath>
    <clipPath id="clip-path-3">
      <rect id="Rectangle_2794" data-name="Rectangle 2794" width="1920" height="141" rx="10" transform="translate(-2467 937)" fill="#fff"/>
    </clipPath>
    <clipPath id="clip-path-4">
      <path id="Path_7741" data-name="Path 7741" d="M110.166,0q-6.192,0-8.127-5.805l-2.58-12.771a79.115,79.115,0,0,1-8.643,8.385,54.646,54.646,0,0,1-9.74,6.45A50.75,50.75,0,0,1,69.854.452,53.9,53.9,0,0,1,56.889,1.935,43.793,43.793,0,0,1,37.023-2.58,44.258,44.258,0,0,1,21.479-15.674a62.759,62.759,0,0,1-10.062-21.22,107.168,107.168,0,0,1-3.547-28.9,90.224,90.224,0,0,1,4-27.348,66.54,66.54,0,0,1,11.481-21.93A53.573,53.573,0,0,1,41.28-129.581a51.771,51.771,0,0,1,23.478-5.225q11.094,0,18.963,3.548a49.676,49.676,0,0,1,14.061,9.481v-69.918h31.863V0ZM67.725-23.349q9.933,0,16.9-4.128A50.191,50.191,0,0,0,97.782-39.216v-59.34a31.357,31.357,0,0,0-11.8-9.288,34.809,34.809,0,0,0-13.739-2.709,30.878,30.878,0,0,0-13.093,2.709,25.607,25.607,0,0,0-9.933,8.191,40.121,40.121,0,0,0-6.257,13.932,79.975,79.975,0,0,0-2.193,19.93,88.475,88.475,0,0,0,1.87,19.673A38.742,38.742,0,0,0,47.988-32.96,20.4,20.4,0,0,0,56.5-25.607,27.113,27.113,0,0,0,67.725-23.349ZM267.8,0H253.485a15.423,15.423,0,0,1-7.1-1.355q-2.58-1.354-3.87-5.483l-2.838-9.417a109.286,109.286,0,0,1-9.868,7.933,59.919,59.919,0,0,1-10,5.741A51,51,0,0,1,208.851.9a65.967,65.967,0,0,1-12.9,1.161A50.673,50.673,0,0,1,180.471-.2,33.338,33.338,0,0,1,168.281-7a30.856,30.856,0,0,1-7.934-11.261,40.064,40.064,0,0,1-2.838-15.66,30.975,30.975,0,0,1,3.934-14.821q3.935-7.313,13.094-13.2t24.381-9.772q15.222-3.883,37.8-3.883v-7.8q0-13.39-5.611-19.824t-16.318-6.434a39.49,39.49,0,0,0-12.9,1.806,49.905,49.905,0,0,0-8.965,4.063q-3.806,2.258-7.03,4.063a14.273,14.273,0,0,1-7.1,1.806,9.22,9.22,0,0,1-5.547-1.677,13.2,13.2,0,0,1-3.741-4.128l-5.8-10.191q22.833-20.9,55.083-20.9a53.219,53.219,0,0,1,20.7,3.805A44.012,44.012,0,0,1,254.9-120.422a45.271,45.271,0,0,1,9.611,16.19,62.213,62.213,0,0,1,3.29,20.64Zm-61.92-19.866a42.921,42.921,0,0,0,9.03-.889,34.575,34.575,0,0,0,7.8-2.667,41.593,41.593,0,0,0,7.1-4.381,64.074,64.074,0,0,0,6.9-6.159V-56.115a129.373,129.373,0,0,0-23.284,1.754A61.52,61.52,0,0,0,198.4-49.879q-5.676,2.729-8.063,6.366a14.159,14.159,0,0,0-2.386,7.924q0,8.445,4.966,12.084T205.884-19.866Zm136.74,21.93q-17.157,0-26.445-9.74t-9.288-26.9v-73.917H293.475a6.443,6.443,0,0,1-4.451-1.677,6.413,6.413,0,0,1-1.87-5.031v-12.642l21.285-3.483,6.708-36.12a6.382,6.382,0,0,1,2.387-4,7.568,7.568,0,0,1,4.709-1.419h16.512v41.667h34.83v22.7h-34.83v71.724q0,6.192,3.1,9.675a10.5,10.5,0,0,0,8.256,3.483,14.993,14.993,0,0,0,4.966-.709,27.334,27.334,0,0,0,3.483-1.484q1.483-.774,2.645-1.483a4.421,4.421,0,0,1,2.322-.709,3.646,3.646,0,0,1,2.322.709,10.763,10.763,0,0,1,1.935,2.128l9.546,15.48a48.236,48.236,0,0,1-16,8.772A59.538,59.538,0,0,1,342.624,2.064ZM502.713,0H488.394A15.423,15.423,0,0,1,481.3-1.355q-2.58-1.354-3.87-5.483l-2.838-9.417a109.284,109.284,0,0,1-9.868,7.933,59.919,59.919,0,0,1-10,5.741A51,51,0,0,1,443.76.9a65.968,65.968,0,0,1-12.9,1.161A50.673,50.673,0,0,1,415.38-.2,33.338,33.338,0,0,1,403.189-7a30.856,30.856,0,0,1-7.934-11.261,40.064,40.064,0,0,1-2.838-15.66,30.974,30.974,0,0,1,3.935-14.821q3.934-7.313,13.093-13.2t24.381-9.772q15.222-3.883,37.8-3.883v-7.8q0-13.39-5.611-19.824t-16.319-6.434a39.49,39.49,0,0,0-12.9,1.806,49.906,49.906,0,0,0-8.966,4.063q-3.806,2.258-7.03,4.063a14.273,14.273,0,0,1-7.1,1.806,9.22,9.22,0,0,1-5.547-1.677,13.2,13.2,0,0,1-3.741-4.128l-5.805-10.191q22.833-20.9,55.083-20.9A53.219,53.219,0,0,1,474.4-131a44.012,44.012,0,0,1,15.415,10.578,45.271,45.271,0,0,1,9.611,16.19,62.213,62.213,0,0,1,3.29,20.64Zm-61.92-19.866a42.921,42.921,0,0,0,9.03-.889,34.576,34.576,0,0,0,7.8-2.667,41.593,41.593,0,0,0,7.1-4.381,64.073,64.073,0,0,0,6.9-6.159V-56.115a129.373,129.373,0,0,0-23.284,1.754,61.52,61.52,0,0,0-15.029,4.483q-5.676,2.729-8.062,6.366a14.159,14.159,0,0,0-2.387,7.924q0,8.445,4.966,12.084T440.793-19.866ZM534.447,0V-191.694H566.31V-116.1a62.806,62.806,0,0,1,17.8-13.352q9.933-4.967,23.22-4.967a43.913,43.913,0,0,1,19.8,4.451A44.048,44.048,0,0,1,642.614-117a62.112,62.112,0,0,1,10.062,21.027,105.741,105.741,0,0,1,3.547,28.767,90.674,90.674,0,0,1-4,27.477A67.238,67.238,0,0,1,640.807-17.8,52.743,52.743,0,0,1,622.876-3.29a52.174,52.174,0,0,1-23.542,5.225A46.877,46.877,0,0,1,588.24.71a39.226,39.226,0,0,1-9.159-3.419,39.039,39.039,0,0,1-7.675-5.353,65.834,65.834,0,0,1-6.773-7.031l-1.419,8.9a8,8,0,0,1-2.645,4.773A8.242,8.242,0,0,1,555.474,0Zm61.92-109.65q-9.933,0-16.964,4.192a49.059,49.059,0,0,0-13.094,11.8v59.34a30.327,30.327,0,0,0,11.8,9.352,35.886,35.886,0,0,0,13.867,2.645,30.445,30.445,0,0,0,13.029-2.709,25.531,25.531,0,0,0,9.868-8.256,40.847,40.847,0,0,0,6.257-14,79.977,79.977,0,0,0,2.193-19.931,88.475,88.475,0,0,0-1.87-19.673A38.007,38.007,0,0,0,616.1-99.975a21.15,21.15,0,0,0-8.45-7.353A26.35,26.35,0,0,0,596.367-109.65ZM784.836,0H770.517a15.422,15.422,0,0,1-7.095-1.355q-2.58-1.354-3.87-5.483l-2.838-9.417a109.28,109.28,0,0,1-9.869,7.933,59.916,59.916,0,0,1-10,5.741A51,51,0,0,1,725.883.9a65.967,65.967,0,0,1-12.9,1.161A50.672,50.672,0,0,1,697.5-.2,33.337,33.337,0,0,1,685.313-7a30.856,30.856,0,0,1-7.934-11.261,40.063,40.063,0,0,1-2.838-15.66,30.975,30.975,0,0,1,3.935-14.821q3.934-7.313,13.094-13.2t24.381-9.772q15.222-3.883,37.8-3.883v-7.8q0-13.39-5.612-19.824t-16.318-6.434a39.49,39.49,0,0,0-12.9,1.806,49.905,49.905,0,0,0-8.966,4.063q-3.805,2.258-7.031,4.063a14.273,14.273,0,0,1-7.095,1.806,9.22,9.22,0,0,1-5.547-1.677,13.2,13.2,0,0,1-3.741-4.128l-5.8-10.191q22.833-20.9,55.083-20.9a53.22,53.22,0,0,1,20.7,3.805,44.012,44.012,0,0,1,15.415,10.578,45.272,45.272,0,0,1,9.611,16.19,62.212,62.212,0,0,1,3.289,20.64Zm-61.92-19.866a42.921,42.921,0,0,0,9.03-.889,34.575,34.575,0,0,0,7.8-2.667,41.592,41.592,0,0,0,7.095-4.381,64.076,64.076,0,0,0,6.9-6.159V-56.115a129.374,129.374,0,0,0-23.285,1.754,61.52,61.52,0,0,0-15.029,4.483q-5.676,2.729-8.062,6.366a14.159,14.159,0,0,0-2.386,7.924q0,8.445,4.966,12.084T722.916-19.866Zm171.828-86.688a8.5,8.5,0,0,1-2.709,2.9,7.017,7.017,0,0,1-3.612.839,11.38,11.38,0,0,1-4.966-1.29q-2.645-1.29-6.128-2.9a56.121,56.121,0,0,0-7.933-2.9,38,38,0,0,0-10.514-1.29q-9.417,0-14.835,4a12.405,12.405,0,0,0-5.418,10.449,9.966,9.966,0,0,0,2.773,7.16,24.938,24.938,0,0,0,7.353,5.1,71.962,71.962,0,0,0,10.384,3.935q5.8,1.742,11.868,3.805t11.868,4.708a41.382,41.382,0,0,1,10.385,6.708,31.159,31.159,0,0,1,7.353,9.739,30.9,30.9,0,0,1,2.773,13.674A43.928,43.928,0,0,1,899.9-24.316a38.71,38.71,0,0,1-10.191,13.932,47.757,47.757,0,0,1-16.576,9.159,71.518,71.518,0,0,1-22.64,3.29A72.067,72.067,0,0,1,837.145.839,78.808,78.808,0,0,1,824.632-2.58a69.249,69.249,0,0,1-11.094-5.16,53.848,53.848,0,0,1-8.965-6.45l7.353-12.126a10.4,10.4,0,0,1,3.354-3.354,9.4,9.4,0,0,1,4.9-1.161,10.3,10.3,0,0,1,5.612,1.677q2.645,1.677,6.128,3.612a54.774,54.774,0,0,0,8.192,3.612,36.044,36.044,0,0,0,11.932,1.677,30.956,30.956,0,0,0,9.74-1.354,20.608,20.608,0,0,0,6.708-3.548,13.318,13.318,0,0,0,3.87-5.1,15.277,15.277,0,0,0,1.225-6,10.7,10.7,0,0,0-2.773-7.611,24.276,24.276,0,0,0-7.353-5.16,71.018,71.018,0,0,0-10.449-3.934q-5.87-1.741-12-3.806a110.975,110.975,0,0,1-12-4.838,40.889,40.889,0,0,1-10.449-7.03,31.819,31.819,0,0,1-7.353-10.449,36.463,36.463,0,0,1-2.773-14.964,38.126,38.126,0,0,1,3.225-15.48,36.309,36.309,0,0,1,9.482-12.836,47.086,47.086,0,0,1,15.609-8.772,65.022,65.022,0,0,1,21.607-3.29,66.145,66.145,0,0,1,24.9,4.515,56.233,56.233,0,0,1,18.705,11.868Zm88.881-27.864a64.265,64.265,0,0,1,23.026,4,50.422,50.422,0,0,1,18.125,11.674,53.334,53.334,0,0,1,11.868,18.834,71.123,71.123,0,0,1,4.257,25.477,46.112,46.112,0,0,1-.322,6,9.6,9.6,0,0,1-1.161,3.741,4.7,4.7,0,0,1-2.258,1.935,9.622,9.622,0,0,1-3.612.581H951.762Q953.181-41.8,962.727-32.25T988.011-22.7a43.793,43.793,0,0,0,13.352-1.806,62.6,62.6,0,0,0,9.8-4q4.192-2.193,7.353-4a12.337,12.337,0,0,1,6.128-1.806,6.9,6.9,0,0,1,3.354.774,7.411,7.411,0,0,1,2.451,2.193l9.288,11.61a53.105,53.105,0,0,1-11.868,10.385,66.558,66.558,0,0,1-13.739,6.708A75.09,75.09,0,0,1,999.556.9a104.374,104.374,0,0,1-14.383,1.032A70.7,70.7,0,0,1,959.5-2.645a57.465,57.465,0,0,1-20.64-13.545,63.55,63.55,0,0,1-13.8-22.188q-5.031-13.223-5.031-30.638a73.264,73.264,0,0,1,4.386-25.477,61.263,61.263,0,0,1,12.578-20.769,59.213,59.213,0,0,1,19.995-14A65.861,65.861,0,0,1,983.625-134.418Zm.645,22.833q-13.932,0-21.8,7.869T952.407-81.4h59.856a39.706,39.706,0,0,0-1.677-11.674,26.929,26.929,0,0,0-5.16-9.611,24.421,24.421,0,0,0-8.772-6.514A29.875,29.875,0,0,0,984.27-111.585Z" transform="translate(-2303 1129)" fill="#444245"/>
    </clipPath>
    <clipPath id="clip-path-5">
      <rect id="Rectangle_2792" data-name="Rectangle 2792" width="1920" height="938" transform="translate(0 1491)" fill="#f3edeb"/>
    </clipPath>
    <clipPath id="clip-path-6">
      <rect id="Rectangle_2791" data-name="Rectangle 2791" width="1920" height="938" fill="#fff"/>
    </clipPath>
    <linearGradient id="linear-gradient" y1="0.397" x2="1.125" y2="0.909" gradientUnits="objectBoundingBox">
      <stop offset="0" stop-color="#3e9d79"/>
      <stop offset="0.615" stop-color="#6ab397"/>
      <stop offset="1" stop-color="#fff"/>
    </linearGradient>
    <linearGradient id="linear-gradient-2" x1="1" y1="1" x2="0" y2="1" gradientUnits="objectBoundingBox">
      <stop offset="0" stop-color="#1ed5c3"/>
      <stop offset="1" stop-color="#bb7271"/>
    </linearGradient>
    <linearGradient id="linear-gradient-3" x1="0.5" y1="1" x2="0.5" gradientUnits="objectBoundingBox">
      <stop offset="0" stop-color="#f0f4f7"/>
      <stop offset="1" stop-color="#f0f4f7" stop-opacity="0"/>
    </linearGradient>
  </defs>
  <g id="Mask_Group_189" data-name="Mask Group 189" transform="translate(4525 -7243)" clip-path="url(#clip-path)">
    <g id="Group_7793" data-name="Group 7793" transform="translate(-2626 57)">
      <g transform="matrix(1, 0, 0, 1, -1899, 7186)" filter="url(#Ellipse_136)">
        <circle id="Ellipse_136-2" data-name="Ellipse 136" cx="49.5" cy="49.5" r="49.5" transform="translate(92 75)" fill="#8038ab" opacity="0.2"/>
      </g>
      <g transform="matrix(1, 0, 0, 1, -1899, 7186)" filter="url(#Ellipse_137)">
        <circle id="Ellipse_137-2" data-name="Ellipse 137" cx="24.5" cy="24.5" r="24.5" transform="translate(744 474)" fill="#efa356" opacity="0.23"/>
      </g>
      <g transform="matrix(1, 0, 0, 1, -1899, 7186)" filter="url(#Ellipse_138)">
        <circle id="Ellipse_138-2" data-name="Ellipse 138" cx="92" cy="92" r="92" transform="translate(-21 555)" fill="#9de5db" opacity="0.2"/>
      </g>
      <g transform="matrix(1, 0, 0, 1, -1899, 7186)" filter="url(#Ellipse_139)">
        <circle id="Ellipse_139-2" data-name="Ellipse 139" cx="83.5" cy="83.5" r="83.5" transform="translate(549 20)" fill="#dd3e1f" opacity="0.1"/>
      </g>
      <g transform="matrix(1, 0, 0, 1, -1899, 7186)" filter="url(#Ellipse_140)">
        <circle id="Ellipse_140-2" data-name="Ellipse 140" cx="59" cy="59" r="59" transform="translate(1782 493)" fill="#f0a457" opacity="0.2"/>
      </g>
    </g>
    <g id="Mask_Group_188" data-name="Mask Group 188" transform="translate(-4525 7057)" clip-path="url(#clip-path-2)">
      <g id="Mask_Group_187" data-name="Mask Group 187" transform="translate(2467)" clip-path="url(#clip-path-3)">
        <g id="Mask_Group_186" data-name="Mask Group 186" transform="translate(271.131)" clip-path="url(#clip-path-4)">
          <g id="Mask_Group_185" data-name="Mask Group 185" transform="translate(-2738 -840.638)" clip-path="url(#clip-path-5)">
            <g id="Group_7927" data-name="Group 7927" transform="translate(0 1491)">
              <rect id="Rectangle_2785" data-name="Rectangle 2785" width="1920" height="938" fill="#f3edeb"/>
              <g id="Mask_Group_184" data-name="Mask Group 184" opacity="0.7" clip-path="url(#clip-path-6)">
                <g id="Group_7924" data-name="Group 7924" transform="translate(0)">
                  <rect id="Rectangle_2786" data-name="Rectangle 2786" width="1920" height="938" fill="#f3edeb"/>
                  <path id="Union_24" data-name="Union 24" d="M362.966,13.656c0,7.551,5.829,13.665,13.02,13.665a12.452,12.452,0,0,0,4.708-.92l47.472,86.29a14.107,14.107,0,0,0,.342,20.85l-47.815,86.895a12.449,12.449,0,0,0-4.707-.921,13.234,13.234,0,0,0-12.86,11.513H268.177a13.234,13.234,0,0,0-12.862-11.513,12.446,12.446,0,0,0-4.708.921l-47.82-86.892a13.9,13.9,0,0,0,4.779-10.582c0-7.547-5.828-13.662-13.019-13.662s-13.024,6.116-13.024,13.662,5.828,13.665,13.024,13.665a12.455,12.455,0,0,0,4.172-.716l47.923,87.079a14.121,14.121,0,0,0-.085,20.3L198.642,330.37a12.459,12.459,0,0,0-4.145-.707,13.2,13.2,0,0,0-12.761,10.931H86.591a13.2,13.2,0,0,0-12.764-10.931c-7.188,0-13.021,6.116-13.021,13.663s5.833,13.667,13.021,13.667a13.239,13.239,0,0,0,12.864-11.518h94.945A13.238,13.238,0,0,0,194.5,356.992a12.448,12.448,0,0,0,4.713-.923l47.471,86.289a14.1,14.1,0,0,0,.343,20.846L199.211,550.1a12.443,12.443,0,0,0-4.715-.924,13.24,13.24,0,0,0-12.861,11.521H86.648a13.231,13.231,0,0,0-12.854-11.468,12.455,12.455,0,0,0-4.658.9L21.3,463.206a13.892,13.892,0,0,0,4.784-10.576c0-7.545-5.836-13.662-13.028-13.662S.036,445.085.036,452.63s5.834,13.658,13.022,13.658a12.462,12.462,0,0,0,4.174-.717l47.924,87.089a14.1,14.1,0,0,0,.388,20.8l-47.805,86.9a12.454,12.454,0,0,0-4.715-.923C5.833,659.433,0,665.549,0,673.1s5.833,13.658,13.024,13.658,13.021-6.114,13.021-13.658A13.938,13.938,0,0,0,21.7,662.911l47.907-87.083a12.46,12.46,0,0,0,4.182.72,13.2,13.2,0,0,0,12.769-10.973h95.173A13.2,13.2,0,0,0,194.5,576.5a12.463,12.463,0,0,0,4.124-.7l47.857,86.972a13.928,13.928,0,0,0-4.365,10.208c0,7.546,5.827,13.663,13.022,13.663a13.191,13.191,0,0,0,12.74-10.849h95.181A13.2,13.2,0,0,0,375.8,686.647a12.468,12.468,0,0,0,4.621-.884l47.5,86.312a14.106,14.106,0,0,0,.407,20.792L380.509,879.76a12.473,12.473,0,0,0-4.712-.92A13.233,13.233,0,0,0,362.94,890.35H267.991a13.229,13.229,0,0,0-12.856-11.511,12.465,12.465,0,0,0-4.711.92L202.6,792.868a13.906,13.906,0,0,0,4.782-10.581c0-7.547-5.835-13.66-13.026-13.66s-13.021,6.114-13.021,13.66,5.828,13.667,13.021,13.667a12.451,12.451,0,0,0,4.174-.717l47.923,87.076a14.108,14.108,0,0,0,.455,20.784l-47.856,86.941a12.45,12.45,0,0,0-4.706-.92c-7.19,0-13.026,6.116-13.026,13.667s5.836,13.662,13.026,13.662,13.02-6.117,13.02-13.662a13.937,13.937,0,0,0-4.348-10.2l47.963-87.134a12.463,12.463,0,0,0,4.15.708,13.2,13.2,0,0,0,12.757-10.932H363.04A13.2,13.2,0,0,0,375.8,906.164c7.2,0,13.027-6.118,13.027-13.663a13.926,13.926,0,0,0-4.348-10.19l47.913-87.077a12.458,12.458,0,0,0,4.18.719,13.2,13.2,0,0,0,12.757-10.922h95.19a13.2,13.2,0,0,0,12.761,10.93c7.193,0,13.026-6.115,13.026-13.662a13.921,13.921,0,0,0-4.349-10.188l47.907-87.06a12.455,12.455,0,0,0,4.119.7,13.194,13.194,0,0,0,12.761-10.93h95.147a13.2,13.2,0,0,0,12.765,10.93,12.45,12.45,0,0,0,4.612-.882l47.489,86.307a14.095,14.095,0,0,0,.81,21.077l-48.191,87.579a12.455,12.455,0,0,0-4.708-.92A13.231,13.231,0,0,0,725.8,890.421H630.776a13.233,13.233,0,0,0-12.86-11.491c-7.19,0-13.021,6.115-13.021,13.662a13.9,13.9,0,0,0,4.8,10.6l-47.86,86.87a12.456,12.456,0,0,0-4.682-.909c-7.193,0-13.026,6.114-13.026,13.662s5.833,13.658,13.026,13.658a12.456,12.456,0,0,0,4.21-.73l47.914,87.082a13.93,13.93,0,0,0-4.344,10.189c0,7.549,5.828,13.665,13.021,13.665s13.021-6.115,13.021-13.665-5.833-13.663-13.021-13.663a12.46,12.46,0,0,0-4.713.922L565.42,1013.36A14.1,14.1,0,0,0,565.8,992.6l47.96-87.054a12.448,12.448,0,0,0,4.151.709A13.2,13.2,0,0,0,630.684,895.3H725.9a13.2,13.2,0,0,0,12.764,10.932c7.19,0,13.019-6.114,13.019-13.665a13.923,13.923,0,0,0-4.345-10.185l48.379-87.919a12.453,12.453,0,0,0,3.712.563,13.2,13.2,0,0,0,12.762-10.932h95.191a13.2,13.2,0,0,0,12.76,10.928,12.453,12.453,0,0,0,4.174-.717l47.918,87.077a13.935,13.935,0,0,0-4.343,10.188c0,7.547,5.828,13.665,13.018,13.665s13.023-6.118,13.023-13.665-5.833-13.665-13.023-13.665a12.442,12.442,0,0,0-4.709.922l-47.815-86.891a14.105,14.105,0,0,0,.406-20.792L976.7,684.094a12.444,12.444,0,0,0,4.174.718c7.195,0,13.021-6.118,13.021-13.662s-5.827-13.663-13.021-13.663-13.022,6.114-13.022,13.663a13.9,13.9,0,0,0,4.779,10.575L924.818,768.6a12.45,12.45,0,0,0-4.676-.908,13.232,13.232,0,0,0-12.861,11.52h-94.99A13.234,13.234,0,0,0,799.43,767.7a12.448,12.448,0,0,0-4.71.922L747.25,682.348a14.11,14.11,0,0,0,.075-20.45l47.92-87.079a12.458,12.458,0,0,0,4.176.717A13.234,13.234,0,0,0,812.285,564h95a13.234,13.234,0,0,0,12.867,11.53c7.193,0,13.022-6.111,13.022-13.66a13.925,13.925,0,0,0-4.358-10.2l47.934-87.061a12.447,12.447,0,0,0,4.171.716c7.188,0,13.019-6.122,13.019-13.669s-5.831-13.662-13.019-13.662S967.9,444.11,967.9,451.654a13.912,13.912,0,0,0,4.786,10.587l-47.835,86.881a12.461,12.461,0,0,0-4.7-.915A13.2,13.2,0,0,0,907.4,559.114H812.176a13.2,13.2,0,0,0-12.755-10.905,12.454,12.454,0,0,0-4.6.877l-47.495-86.325a13.936,13.936,0,0,0,4.349-10.193c0-7.545-5.834-13.663-13.022-13.663a13.2,13.2,0,0,0-12.765,10.931H630.839a13.2,13.2,0,0,0-12.749-10.868,12.458,12.458,0,0,0-4.6.876l-47.495-86.327a13.935,13.935,0,0,0,4.349-10.192c0-7.547-5.833-13.663-13.023-13.663a13.2,13.2,0,0,0-12.762,10.931H449.413a13.2,13.2,0,0,0-12.764-10.931,12.445,12.445,0,0,0-4.18.72l-47.854-86.976a14.115,14.115,0,0,0,.044-20.419l47.918-87.079a12.461,12.461,0,0,0,4.176.717c7.195,0,13.021-6.114,13.021-13.665S443.948,109.3,436.753,109.3a12.458,12.458,0,0,0-4.6.876l-47.5-86.326a13.933,13.933,0,0,0,4.347-10.193C389.005,6.116,383.176,0,375.986,0S362.966,6.116,362.966,13.656Zm.259,222.249a13.2,13.2,0,0,0,12.761,10.933,12.451,12.451,0,0,0,4.653-.9L428.4,332.752a14.1,14.1,0,0,0-.323,20.861L380.6,439.894a12.451,12.451,0,0,0-4.723-.927,13.236,13.236,0,0,0-12.863,11.526H268.131a13.238,13.238,0,0,0-12.866-11.526,12.453,12.453,0,0,0-4.595.875l-47.5-86.329a14.105,14.105,0,0,0-.459-20.788L250.5,245.875a12.457,12.457,0,0,0,4.811.963A13.2,13.2,0,0,0,268.079,235.9Zm181.234,109.57a13.237,13.237,0,0,0,12.862,11.518,12.446,12.446,0,0,0,4.71-.922L609.5,442.359a14.1,14.1,0,0,0,.343,20.845l-47.812,86.89a12.441,12.441,0,0,0-4.712-.923,13.239,13.239,0,0,0-12.862,11.521H449.513a13.242,13.242,0,0,0-12.864-11.521,12.435,12.435,0,0,0-4.708.922L384.122,463.2a14.1,14.1,0,0,0,.442-20.755l47.5-86.329a12.439,12.439,0,0,0,4.58.871,13.24,13.24,0,0,0,12.864-11.518ZM725.787,454.72a13.236,13.236,0,0,0,12.865,11.515,12.449,12.449,0,0,0,4.707-.921L790.831,551.6a14.1,14.1,0,0,0,.344,20.848l-47.817,86.9a12.46,12.46,0,0,0-4.705-.919,13.23,13.23,0,0,0-12.865,11.507H630.841a13.225,13.225,0,0,0-12.861-11.507,12.462,12.462,0,0,0-4.54.853l-47.45-86.246A14.118,14.118,0,0,0,566,552.649l47.917-87.078a12.469,12.469,0,0,0,4.176.717,13.239,13.239,0,0,0,12.87-11.569Zm-362.666.654a13.2,13.2,0,0,0,12.758,10.914,12.457,12.457,0,0,0,4.174-.717l47.921,87.078a14.105,14.105,0,0,0,.432,20.768l-47.8,86.866a12.467,12.467,0,0,0-4.812-.962,13.239,13.239,0,0,0-12.87,11.6H268a13.234,13.234,0,0,0-12.869-11.6,12.459,12.459,0,0,0-4.686.911L202.7,573.456a14.107,14.107,0,0,0,.481-20.8l47.917-87.08a12.455,12.455,0,0,0,4.171.716,13.2,13.2,0,0,0,12.761-10.914Zm181.438,110.2A13.2,13.2,0,0,0,557.32,576.5a12.457,12.457,0,0,0,4.7-.916l47.419,86.19a14.1,14.1,0,0,0,.342,20.924l-47.795,86.86a12.464,12.464,0,0,0-4.708-.919,13.231,13.231,0,0,0-12.861,11.511H449.432a13.23,13.23,0,0,0-12.862-11.526,12.468,12.468,0,0,0-4.683.909L384.4,683.245a14.114,14.114,0,0,0,.157-20.375l47.916-87.086a12.453,12.453,0,0,0,4.177.719,13.2,13.2,0,0,0,12.763-10.929Z" transform="translate(1979.73 1176.298) rotate(180)" stroke="rgba(0,0,0,0)" stroke-miterlimit="10" stroke-width="1" fill="url(#linear-gradient)"/>
                  <rect id="Rectangle_2788" data-name="Rectangle 2788" width="1920" height="938" fill="#fff"/>
                  <g id="Group_7923" data-name="Group 7923" transform="translate(1425.382 360.879)">
                    <g id="Group_7922" data-name="Group 7922" transform="translate(0 0)">
                      <g id="Group_7842" data-name="Group 7842" transform="translate(235.718 357.423)">
                        <g id="Group_7834" data-name="Group 7834" transform="translate(6.712 7.1)">
                          <path id="Path_7684" data-name="Path 7684" d="M886.954,416.52H807.4l-40.21-73.086,40.21-73.074h80.426L927.6,342.644l-2.617,1.585-38.908-70.7H809.143l-38.464,69.9,38.464,69.916h77.811Z" transform="translate(-767.19 -270.359)" fill="#fff"/>
                        </g>
                        <g id="Group_7841" data-name="Group 7841">
                          <g id="Group_7835" data-name="Group 7835" transform="translate(0 71.602)">
                            <path id="Path_7685" data-name="Path 7685" d="M893.309,323.925a8.47,8.47,0,1,1-8.461-8.873A8.676,8.676,0,0,1,893.309,323.925Z" transform="translate(-876.388 -315.052)" fill="#fff"/>
                          </g>
                          <g id="Group_7836" data-name="Group 7836" transform="translate(157.352 71.602)">
                            <path id="Path_7686" data-name="Path 7686" d="M778.916,323.925a8.47,8.47,0,1,1-8.46-8.873A8.676,8.676,0,0,1,778.916,323.925Z" transform="translate(-761.995 -315.052)" fill="#fff"/>
                          </g>
                          <g id="Group_7837" data-name="Group 7837" transform="translate(39.478)">
                            <path id="Path_7687" data-name="Path 7687" d="M864.609,274.316a8.47,8.47,0,1,1-8.46-8.876A8.679,8.679,0,0,1,864.609,274.316Z" transform="translate(-847.688 -265.44)" fill="#fff"/>
                          </g>
                          <g id="Group_7838" data-name="Group 7838" transform="translate(39.478 142.607)">
                            <path id="Path_7688" data-name="Path 7688" d="M864.609,373.129a8.47,8.47,0,1,1-8.46-8.879A8.674,8.674,0,0,1,864.609,373.129Z" transform="translate(-847.688 -364.25)" fill="#fff"/>
                          </g>
                          <g id="Group_7839" data-name="Group 7839" transform="translate(117.873)">
                            <path id="Path_7689" data-name="Path 7689" d="M807.617,274.316a8.47,8.47,0,1,1-8.46-8.876A8.682,8.682,0,0,1,807.617,274.316Z" transform="translate(-790.696 -265.44)" fill="#fff"/>
                          </g>
                          <g id="Group_7840" data-name="Group 7840" transform="translate(117.873 142.607)">
                            <path id="Path_7690" data-name="Path 7690" d="M807.617,373.129a8.47,8.47,0,1,1-8.46-8.879A8.677,8.677,0,0,1,807.617,373.129Z" transform="translate(-790.696 -364.25)" fill="#fff"/>
                          </g>
                        </g>
                      </g>
                      <g id="Group_7851" data-name="Group 7851" transform="translate(353.645 143.256)">
                        <g id="Group_7843" data-name="Group 7843" transform="translate(7.148 7.102)">
                          <path id="Path_7691" data-name="Path 7691" d="M838.819,195.835l-38.906-70.7H722.975l-38.9,70.7-2.615-1.586,39.772-72.281h80.428l39.78,72.281Z" transform="translate(-681.458 -121.968)" fill="#fff"/>
                        </g>
                        <g id="Group_7850" data-name="Group 7850">
                          <g id="Group_7844" data-name="Group 7844" transform="translate(0 71.599)">
                            <path id="Path_7692" data-name="Path 7692" d="M807.577,175.536a8.47,8.47,0,1,1-8.462-8.879A8.675,8.675,0,0,1,807.577,175.536Z" transform="translate(-790.657 -166.657)" fill="#fff"/>
                          </g>
                          <g id="Group_7845" data-name="Group 7845" transform="translate(157.35 71.599)">
                            <path id="Path_7693" data-name="Path 7693" d="M693.187,175.536a8.471,8.471,0,1,1-8.46-8.879A8.673,8.673,0,0,1,693.187,175.536Z" transform="translate(-676.265 -166.657)" fill="#fff"/>
                          </g>
                          <g id="Group_7846" data-name="Group 7846" transform="translate(39.477)">
                            <path id="Path_7694" data-name="Path 7694" d="M778.878,125.923a8.47,8.47,0,1,1-8.457-8.876A8.675,8.675,0,0,1,778.878,125.923Z" transform="translate(-761.958 -117.047)" fill="#fff"/>
                          </g>
                          <g id="Group_7847" data-name="Group 7847" transform="translate(39.477 142.611)">
                            <path id="Path_7695" data-name="Path 7695" d="M778.878,224.736a8.47,8.47,0,1,1-8.457-8.876A8.676,8.676,0,0,1,778.878,224.736Z" transform="translate(-761.958 -215.86)" fill="#fff"/>
                          </g>
                          <g id="Group_7848" data-name="Group 7848" transform="translate(117.873)">
                            <path id="Path_7696" data-name="Path 7696" d="M721.884,125.923a8.468,8.468,0,1,1-8.459-8.876A8.673,8.673,0,0,1,721.884,125.923Z" transform="translate(-704.968 -117.047)" fill="#fff"/>
                          </g>
                          <g id="Group_7849" data-name="Group 7849" transform="translate(117.873 142.611)">
                            <path id="Path_7697" data-name="Path 7697" d="M721.884,224.736a8.468,8.468,0,1,1-8.459-8.876A8.673,8.673,0,0,1,721.884,224.736Z" transform="translate(-704.968 -215.86)" fill="#fff"/>
                          </g>
                        </g>
                      </g>
                      <g id="Group_7855" data-name="Group 7855" transform="translate(477.182 71.609)">
                        <g id="Group_7852" data-name="Group 7852" transform="translate(0 7.899)">
                          <path id="Path_7698" data-name="Path 7698" d="M1.677,81.579l3.059.064L3.059.064,0,0Z" transform="matrix(-0.866, -0.5, 0.5, -0.866, 4.101, 73.068)" fill="#fff"/>
                        </g>
                        <g id="Group_7854" data-name="Group 7854" transform="translate(33.823)">
                          <g id="Group_7853" data-name="Group 7853">
                            <path id="Path_7699" data-name="Path 7699" d="M693.178,76.28a8.47,8.47,0,1,1-8.462-8.876A8.678,8.678,0,0,1,693.178,76.28Z" transform="translate(-676.258 -67.404)" fill="#fff"/>
                          </g>
                        </g>
                      </g>
                      <g id="Group_7860" data-name="Group 7860" transform="translate(0 358.057)">
                        <g id="Group_7856" data-name="Group 7856" transform="translate(5.656 7.898)">
                          <path id="Path_7700" data-name="Path 7700" d="M1.677,81.577l3.058.064L3.058.064,0,0Z" transform="translate(4.1 73.062) rotate(-149.986)" fill="#fff"/>
                        </g>
                        <g id="Group_7859" data-name="Group 7859">
                          <g id="Group_7857" data-name="Group 7857" transform="translate(0 71.595)">
                            <path id="Path_7701" data-name="Path 7701" d="M1064.672,324.366a8.469,8.469,0,1,1-8.461-8.88A8.676,8.676,0,0,1,1064.672,324.366Z" transform="translate(-1047.753 -315.486)" fill="#fff"/>
                          </g>
                          <g id="Group_7858" data-name="Group 7858" transform="translate(39.478)">
                            <path id="Path_7702" data-name="Path 7702" d="M1035.973,274.754a8.47,8.47,0,1,1-8.461-8.875A8.675,8.675,0,0,1,1035.973,274.754Z" transform="translate(-1019.052 -265.879)" fill="#fff"/>
                          </g>
                        </g>
                      </g>
                      <g id="Group_7865" data-name="Group 7865" transform="translate(589.325 285.795)">
                        <g id="Group_7861" data-name="Group 7861" transform="translate(5.667 7.891)">
                          <path id="Path_7703" data-name="Path 7703" d="M1.677,81.581l3.059.064L3.059.064,0,0Z" transform="translate(4.101 73.079) rotate(-150.006)" fill="#fff"/>
                        </g>
                        <g id="Group_7864" data-name="Group 7864">
                          <g id="Group_7862" data-name="Group 7862" transform="translate(0 71.599)">
                            <path id="Path_7704" data-name="Path 7704" d="M636.242,274.3a8.47,8.47,0,1,1-8.461-8.876A8.676,8.676,0,0,1,636.242,274.3Z" transform="translate(-619.321 -265.42)" fill="#fff"/>
                          </g>
                          <g id="Group_7863" data-name="Group 7863" transform="translate(39.479)">
                            <path id="Path_7705" data-name="Path 7705" d="M607.541,224.683a8.47,8.47,0,1,1-8.461-8.873A8.677,8.677,0,0,1,607.541,224.683Z" transform="translate(-590.62 -215.81)" fill="#fff"/>
                          </g>
                        </g>
                      </g>
                      <g id="Group_7870" data-name="Group 7870" transform="translate(235.83 71.596)">
                        <g id="Group_7866" data-name="Group 7866" transform="translate(5.645 7.903)">
                          <path id="Path_7706" data-name="Path 7706" d="M1.678,81.578l3.06.064L3.06.064,0,0Z" transform="matrix(-0.866, -0.5, 0.5, -0.866, 4.102, 73.054)" fill="#fff"/>
                        </g>
                        <g id="Group_7869" data-name="Group 7869">
                          <g id="Group_7867" data-name="Group 7867" transform="translate(0 71.599)">
                            <path id="Path_7707" data-name="Path 7707" d="M893.227,125.882a8.47,8.47,0,1,1-8.46-8.877A8.675,8.675,0,0,1,893.227,125.882Z" transform="translate(-876.307 -117.005)" fill="#fff"/>
                          </g>
                          <g id="Group_7868" data-name="Group 7868" transform="translate(39.478)">
                            <path id="Path_7708" data-name="Path 7708" d="M864.528,76.268a8.471,8.471,0,1,1-8.462-8.873A8.676,8.676,0,0,1,864.528,76.268Z" transform="translate(-847.606 -67.395)" fill="#fff"/>
                          </g>
                        </g>
                      </g>
                      <g id="Group_7874" data-name="Group 7874" transform="translate(235.808)">
                        <g id="Group_7871" data-name="Group 7871" transform="translate(5.813 7.894)">
                          <path id="Path_7709" data-name="Path 7709" d="M.064,3.058,81.646,4.734l-.064-3.058L0,0Z" transform="translate(40.82 73.076) rotate(-119.998)" fill="#fff"/>
                        </g>
                        <g id="Group_7873" data-name="Group 7873" transform="translate(0)">
                          <g id="Group_7872" data-name="Group 7872">
                            <path id="Path_7710" data-name="Path 7710" d="M876.324,26.664a8.469,8.469,0,1,0,16.919,0,8.469,8.469,0,1,0-16.919,0Z" transform="translate(-876.324 -17.787)" fill="#fff"/>
                          </g>
                        </g>
                      </g>
                      <g id="Group_7879" data-name="Group 7879" transform="translate(0.008 143.859)">
                        <g id="Group_7875" data-name="Group 7875" transform="translate(5.812 7.895)">
                          <path id="Path_7711" data-name="Path 7711" d="M.064,3.059l81.58,1.677L81.58,1.677,0,0Z" transform="matrix(-0.5, -0.866, 0.866, -0.5, 40.823, 73.074)" fill="#fff"/>
                        </g>
                        <g id="Group_7878" data-name="Group 7878">
                          <g id="Group_7876" data-name="Group 7876" transform="translate(39.48 71.601)">
                            <path id="Path_7712" data-name="Path 7712" d="M1019.047,175.95a8.469,8.469,0,1,0,8.459-8.874A8.677,8.677,0,0,0,1019.047,175.95Z" transform="translate(-1019.047 -167.076)" fill="#fff"/>
                          </g>
                          <g id="Group_7877" data-name="Group 7877">
                            <path id="Path_7713" data-name="Path 7713" d="M1047.748,126.342a8.469,8.469,0,1,0,8.461-8.877A8.678,8.678,0,0,0,1047.748,126.342Z" transform="translate(-1047.748 -117.465)" fill="#fff"/>
                          </g>
                        </g>
                      </g>
                      <g id="Group_7886" data-name="Group 7886" transform="translate(117.915 286.45)">
                        <g id="Group_7880" data-name="Group 7880" transform="translate(6.711 7.101)">
                          <path id="Path_7714" data-name="Path 7714" d="M1002.149,367.346H922.595l-40.212-73.089,40.212-73.073h79.554v3.172H924.338l-38.464,69.9,38.464,69.916h77.811Z" transform="translate(-882.383 -221.184)" fill="#fff"/>
                        </g>
                        <g id="Group_7885" data-name="Group 7885">
                          <g id="Group_7881" data-name="Group 7881" transform="translate(0 71.601)">
                            <path id="Path_7715" data-name="Path 7715" d="M978.949,274.751a8.47,8.47,0,1,1-8.461-8.876A8.677,8.677,0,0,1,978.949,274.751Z" transform="translate(-962.029 -265.875)" fill="#fff"/>
                          </g>
                          <g id="Group_7882" data-name="Group 7882" transform="translate(39.478)">
                            <path id="Path_7716" data-name="Path 7716" d="M950.25,225.14a8.471,8.471,0,1,1-8.462-8.876A8.672,8.672,0,0,1,950.25,225.14Z" transform="translate(-933.328 -216.264)" fill="#fff"/>
                          </g>
                          <g id="Group_7883" data-name="Group 7883" transform="translate(39.478 142.61)">
                            <path id="Path_7717" data-name="Path 7717" d="M950.25,323.955a8.471,8.471,0,1,1-8.462-8.879A8.677,8.677,0,0,1,950.25,323.955Z" transform="translate(-933.328 -315.076)" fill="#fff"/>
                          </g>
                          <g id="Group_7884" data-name="Group 7884" transform="translate(117.874)">
                            <path id="Path_7718" data-name="Path 7718" d="M893.256,225.14a8.469,8.469,0,1,1-8.458-8.876A8.671,8.671,0,0,1,893.256,225.14Z" transform="translate(-876.338 -216.264)" fill="#fff"/>
                          </g>
                        </g>
                      </g>
                      <g id="Group_7890" data-name="Group 7890" transform="translate(242.456 214.85)">
                        <g id="Group_7887" data-name="Group 7887" transform="translate(0 7.101)">
                          <path id="Path_7719" data-name="Path 7719" d="M806.946,316.941l-39.774-72.293,40.211-73.075h80.425l39.777,72.281-2.615,1.584-38.906-70.7H809.128l-38.465,69.9,38.9,70.706Z" transform="translate(-767.172 -171.573)" fill="#fff"/>
                        </g>
                        <g id="Group_7889" data-name="Group 7889" transform="translate(32.767)">
                          <g id="Group_7888" data-name="Group 7888">
                            <path id="Path_7720" data-name="Path 7720" d="M864.59,175.529a8.471,8.471,0,1,1-8.459-8.876A8.674,8.674,0,0,1,864.59,175.529Z" transform="translate(-847.668 -166.653)" fill="#fff"/>
                          </g>
                        </g>
                      </g>
                      <g id="Group_7894" data-name="Group 7894" transform="translate(125.055 143.211)">
                        <g id="Group_7891" data-name="Group 7891" transform="translate(0 7.102)">
                          <path id="Path_7721" data-name="Path 7721" d="M885.006,195.8l-2.617-1.586,39.772-72.279h79.556v3.17H923.907Z" transform="translate(-882.39 -121.937)" fill="#fff"/>
                        </g>
                        <g id="Group_7893" data-name="Group 7893" transform="translate(32.332)">
                          <g id="Group_7892" data-name="Group 7892">
                            <path id="Path_7722" data-name="Path 7722" d="M950.254,125.893a8.469,8.469,0,1,1-8.461-8.877A8.673,8.673,0,0,1,950.254,125.893Z" transform="translate(-933.335 -117.016)" fill="#fff"/>
                          </g>
                        </g>
                      </g>
                      <g id="Group_7902" data-name="Group 7902" transform="translate(471.428 357.423)">
                        <g id="Group_7895" data-name="Group 7895" transform="translate(6.71 7.1)">
                          <path id="Path_7723" data-name="Path 7723" d="M715.6,416.52H636.042l-40.21-73.086,40.21-73.074h80.43l39.777,72.284-2.616,1.585-38.908-70.7H637.787l-38.463,69.9,38.463,69.916H715.6Z" transform="translate(-595.832 -270.359)" fill="#fff"/>
                        </g>
                        <g id="Group_7901" data-name="Group 7901">
                          <g id="Group_7896" data-name="Group 7896" transform="translate(0 71.602)">
                            <path id="Path_7724" data-name="Path 7724" d="M721.95,323.925a8.47,8.47,0,1,1-8.459-8.873A8.676,8.676,0,0,1,721.95,323.925Z" transform="translate(-705.03 -315.052)" fill="#fff"/>
                          </g>
                          <g id="Group_7897" data-name="Group 7897" transform="translate(157.35 71.602)">
                            <path id="Path_7725" data-name="Path 7725" d="M607.56,323.925a8.471,8.471,0,1,1-8.46-8.873A8.677,8.677,0,0,1,607.56,323.925Z" transform="translate(-590.637 -315.052)" fill="#fff"/>
                          </g>
                          <g id="Group_7898" data-name="Group 7898" transform="translate(39.479)">
                            <path id="Path_7726" data-name="Path 7726" d="M693.249,274.316a8.47,8.47,0,1,1-8.46-8.876A8.68,8.68,0,0,1,693.249,274.316Z" transform="translate(-676.329 -265.44)" fill="#fff"/>
                          </g>
                          <g id="Group_7899" data-name="Group 7899" transform="translate(39.479 142.607)">
                            <path id="Path_7727" data-name="Path 7727" d="M693.249,373.129a8.47,8.47,0,1,1-8.46-8.879A8.675,8.675,0,0,1,693.249,373.129Z" transform="translate(-676.329 -364.25)" fill="#fff"/>
                          </g>
                          <g id="Group_7900" data-name="Group 7900" transform="translate(117.873 142.607)">
                            <path id="Path_7728" data-name="Path 7728" d="M636.259,373.129a8.47,8.47,0,1,1-8.459-8.879A8.676,8.676,0,0,1,636.259,373.129Z" transform="translate(-619.338 -364.25)" fill="#fff"/>
                          </g>
                        </g>
                      </g>
                      <g id="Group_7908" data-name="Group 7908" transform="translate(0.036 215.457)">
                        <g id="Group_7903" data-name="Group 7903" transform="translate(7.144 7.102)">
                          <path id="Path_7729" data-name="Path 7729" d="M941.148,245.864l-2.618-1.587L978.308,172h80.428l39.773,72.283-2.618,1.587-38.9-70.7H980.053Z" transform="translate(-938.53 -171.995)" fill="#fff"/>
                        </g>
                        <g id="Group_7904" data-name="Group 7904" transform="translate(47.795 150.09)">
                          <rect id="Rectangle_2789" data-name="Rectangle 2789" width="78.683" height="3.173" fill="#fff"/>
                        </g>
                        <g id="Group_7907" data-name="Group 7907" transform="translate(0)">
                          <g id="Group_7905" data-name="Group 7905" transform="translate(0 71.602)">
                            <path id="Path_7730" data-name="Path 7730" d="M1047.727,225.562a8.469,8.469,0,1,0,8.459-8.876A8.672,8.672,0,0,0,1047.727,225.562Z" transform="translate(-1047.727 -216.686)" fill="#fff"/>
                          </g>
                          <g id="Group_7906" data-name="Group 7906" transform="translate(117.873)">
                            <path id="Path_7731" data-name="Path 7731" d="M962.035,175.951a8.469,8.469,0,1,0,8.46-8.877A8.675,8.675,0,0,0,962.035,175.951Z" transform="translate(-962.035 -167.074)" fill="#fff"/>
                          </g>
                        </g>
                      </g>
                      <g id="Group_7910" data-name="Group 7910" transform="translate(360.744 292.916)">
                        <g id="Group_7909" data-name="Group 7909">
                          <path id="Path_7732" data-name="Path 7732" d="M838.858,294.613l-38.906-70.7H723.014l-38.9,70.7-2.615-1.586,39.771-72.283H801.7l39.775,72.283Z" transform="translate(-681.498 -220.744)" fill="#fff"/>
                        </g>
                      </g>
                      <g id="Group_7918" data-name="Group 7918" transform="translate(353.525 571.593)">
                        <g id="Group_7911" data-name="Group 7911" transform="translate(6.71 7.102)">
                          <path id="Path_7733" data-name="Path 7733" d="M721.322,564.121l-39.775-72.293,40.21-73.072h80.429l39.777,72.278-2.617,1.585-38.906-70.7H723.5l-38.465,69.9,38.9,70.708Z" transform="translate(-681.547 -418.756)" fill="#fff"/>
                        </g>
                        <g id="Group_7917" data-name="Group 7917">
                          <g id="Group_7912" data-name="Group 7912" transform="translate(0 71.599)">
                            <path id="Path_7734" data-name="Path 7734" d="M807.664,472.322a8.469,8.469,0,1,1-8.46-8.877A8.674,8.674,0,0,1,807.664,472.322Z" transform="translate(-790.745 -463.445)" fill="#fff"/>
                          </g>
                          <g id="Group_7913" data-name="Group 7913" transform="translate(157.352 71.599)">
                            <path id="Path_7735" data-name="Path 7735" d="M693.271,472.322a8.469,8.469,0,1,1-8.461-8.877A8.674,8.674,0,0,1,693.271,472.322Z" transform="translate(-676.352 -463.445)" fill="#fff"/>
                          </g>
                          <g id="Group_7914" data-name="Group 7914" transform="translate(39.479)">
                            <path id="Path_7736" data-name="Path 7736" d="M778.963,422.708a8.468,8.468,0,1,1-8.458-8.873A8.676,8.676,0,0,1,778.963,422.708Z" transform="translate(-762.046 -413.835)" fill="#fff"/>
                          </g>
                          <g id="Group_7915" data-name="Group 7915" transform="translate(39.479 142.611)">
                            <path id="Path_7737" data-name="Path 7737" d="M778.963,521.525a8.468,8.468,0,1,1-8.458-8.877A8.673,8.673,0,0,1,778.963,521.525Z" transform="translate(-762.046 -512.648)" fill="#fff"/>
                          </g>
                          <g id="Group_7916" data-name="Group 7916" transform="translate(117.872)">
                            <path id="Path_7738" data-name="Path 7738" d="M721.973,422.708a8.469,8.469,0,1,1-8.457-8.873A8.674,8.674,0,0,1,721.973,422.708Z" transform="translate(-705.055 -413.835)" fill="#fff"/>
                          </g>
                        </g>
                      </g>
                      <g id="Group_7921" data-name="Group 7921" transform="translate(360.297 436.116)">
                        <g id="Group_7919" data-name="Group 7919" transform="translate(116.975 72.284)">
                          <path id="Path_7739" data-name="Path 7739" d="M1.677,81.592l3.059.064L3.059.064,0,0Z" transform="translate(4.101 73.085) rotate(-150.002)" fill="#fff"/>
                        </g>
                        <g id="Group_7920" data-name="Group 7920" transform="translate(0)">
                          <path id="Path_7740" data-name="Path 7740" d="M750.828,465.334l-39.775-72.293,40.212-73.076H830.82v3.17H753.008l-38.467,69.906,38.9,70.708Z" transform="translate(-711.053 -319.965)" fill="#fff"/>
                        </g>
                      </g>
                    </g>
                  </g>
                </g>
                <g id="Group_7926" data-name="Group 7926" transform="translate(896.5 -538.51)">
                  <g id="Group_7925" data-name="Group 7925" transform="translate(-480 475.765)">
                    <rect id="Rectangle_2790" data-name="Rectangle 2790" width="1113" height="1167.779" rx="556.5" transform="translate(0 0)" stroke="rgba(0,0,0,0)" stroke-miterlimit="10" stroke-width="1" opacity="0.22" fill="url(#linear-gradient-2)"/>
                  </g>
                </g>
              </g>
            </g>
          </g>
        </g>
        <rect id="Rectangle_2793" data-name="Rectangle 2793" width="1820" height="129" rx="10" transform="translate(-2417 949)" fill="url(#linear-gradient-3)"/>
      </g>
    </g>
  </g>
</svg>
