<svg xmlns="http://www.w3.org/2000/svg" xmlns:xlink="http://www.w3.org/1999/xlink" width="1920" height="817.127" viewBox="0 0 1920 817.127">
  <defs>
    <clipPath id="clip-path">
      <path id="Path_7747" data-name="Path 7747" d="M0,0H1920V817.127H0Z" transform="translate(0 1853.373)" fill="#f3edeb"/>
    </clipPath>
    <clipPath id="clip-path-2">
      <rect id="Rectangle_2807" data-name="Rectangle 2807" width="1920" height="755" transform="translate(0 1261)" fill="#f3edeb"/>
    </clipPath>
    <linearGradient id="linear-gradient" x1="0.5" y1="1" x2="0.5" gradientUnits="objectBoundingBox">
      <stop offset="0" stop-color="#fff"/>
      <stop offset="1" stop-color="#fff" stop-opacity="0"/>
    </linearGradient>
    <linearGradient id="linear-gradient-2" x1="0.5" y1="1" x2="0.5" gradientUnits="objectBoundingBox">
      <stop offset="0" stop-color="#f4eeec"/>
      <stop offset="1" stop-color="#f3edeb" stop-opacity="0"/>
    </linearGradient>
    <clipPath id="clip-path-3">
      <rect id="Rectangle_2816" data-name="Rectangle 2816" width="1920" height="178" rx="10" transform="translate(4245 2492.5)" fill="#fff"/>
    </clipPath>
    <clipPath id="clip-path-4">
      <path id="Path_7746" data-name="Path 7746" d="M19.61,0a3.067,3.067,0,0,1-2.252-.928A3.067,3.067,0,0,1,16.43-3.18V-182.32a3.067,3.067,0,0,1,.928-2.252,3.067,3.067,0,0,1,2.252-.928H43.99a3.067,3.067,0,0,1,2.252.928,3.067,3.067,0,0,1,.928,2.252V-3.18a3.067,3.067,0,0,1-.928,2.253A3.067,3.067,0,0,1,43.99,0ZM137.27,2.12q-20.935,0-35.908-10.6T80.295-37.9a100.02,100.02,0,0,1-4.505-30.21,99.038,99.038,0,0,1,4.24-30.21q6.095-18.55,21.2-28.885t36.3-10.335q20.14,0,34.848,10.335t20.8,28.62q4.77,12.72,4.77,30.21a95.18,95.18,0,0,1-4.505,30.21q-6.095,18.815-20.935,29.548T137.27,2.12Zm0-26.5A26.264,26.264,0,0,0,154.1-29.945q7.022-5.565,10.2-15.635,2.65-8.745,2.65-22.26,0-14.31-2.65-22.26-2.915-10.07-10.07-15.5t-17.49-5.433a27.242,27.242,0,0,0-16.96,5.433q-7.155,5.433-10.335,15.5a81.771,81.771,0,0,0-2.65,22.26,81.771,81.771,0,0,0,2.65,22.26q2.915,10.07,10.2,15.635A28.184,28.184,0,0,0,137.27-24.38ZM283.55,2.12q-20.4,0-35.245-10.467a54.306,54.306,0,0,1-20.67-28.223q-4.24-11.925-4.24-31.8,0-19.08,4.24-31.27a51.442,51.442,0,0,1,20.537-27.692q14.972-10.2,35.378-10.2,20.67,0,36.04,10.335t20.4,25.97a48.6,48.6,0,0,1,1.855,8.48v.53q0,2.65-2.915,3.18L315.085-85.6h-.53q-2.385,0-3.18-2.65a6.893,6.893,0,0,0-.265-2.12q-.53-2.12-1.06-3.71a22.886,22.886,0,0,0-9.54-12.19,29.859,29.859,0,0,0-16.96-4.77q-10.07,0-17.092,5.168A24.911,24.911,0,0,0,257.05-91.69q-2.65,8.48-2.65,23.585,0,14.575,2.385,23.585a27.893,27.893,0,0,0,9.54,14.708q6.89,5.433,17.225,5.433a29.226,29.226,0,0,0,17.358-5.167,23.226,23.226,0,0,0,9.408-13.913,2.95,2.95,0,0,0,.265-1.325,1.08,1.08,0,0,0,.265-.795q.795-3.18,3.71-2.65l23.85,3.71a4.306,4.306,0,0,1,2.253,1.193,2.719,2.719,0,0,1,.663,2.517q-.8,4.24-1.325,6.1a47.229,47.229,0,0,1-20.4,26.9Q304.22,2.12,283.55,2.12ZM419.495-137.535q16.7,0,29.415,5.83t19.61,16.033a40.468,40.468,0,0,1,6.89,23.188V-3.18a3.067,3.067,0,0,1-.927,2.253A3.067,3.067,0,0,1,472.23,0H447.85A3.067,3.067,0,0,1,445.6-.928a3.067,3.067,0,0,1-.927-2.253v-8.48q0-.795-.53-.927a1.1,1.1,0,0,0-1.06.4Q430.095,2.12,405.45,2.12q-19.875,0-32.728-10.07T359.87-37.9q0-20.67,14.443-32.2T414.99-81.62h28.355a1.171,1.171,0,0,0,1.325-1.325v-6.36q0-10.335-6.1-16.033t-18.285-5.7q-10.07,0-16.3,3.578a15.559,15.559,0,0,0-7.818,9.937q-.795,3.18-3.71,2.65L366.76-98.05a5.772,5.772,0,0,1-2.253-.928,1.513,1.513,0,0,1-.663-1.722q2.12-16.165,17.358-26.5T419.495-137.535ZM413.135-22.26q12.985,0,22.26-6.89t9.275-17.49V-59.1a1.171,1.171,0,0,0-1.325-1.325h-22.26q-14.045,0-22.128,5.3a17.017,17.017,0,0,0-8.082,15.1q0,8.48,6.227,13.118T413.135-22.26Zm162.71-91.425a3.067,3.067,0,0,1-.927,2.253,3.067,3.067,0,0,1-2.253.927h-27.03a1.171,1.171,0,0,0-1.325,1.325v63.865q0,10.07,4.372,14.575t13.912,4.5h7.95a3.067,3.067,0,0,1,2.253.927,3.067,3.067,0,0,1,.927,2.253V-3.18q0,2.915-3.18,3.445L556.765.53q-20.935,0-31.27-7.155t-10.6-27.03V-109.18a1.171,1.171,0,0,0-1.325-1.325h-15.1a3.067,3.067,0,0,1-2.253-.927,3.067,3.067,0,0,1-.927-2.253v-18.55a3.067,3.067,0,0,1,.927-2.253,3.067,3.067,0,0,1,2.253-.927h15.1a1.171,1.171,0,0,0,1.325-1.325v-31.005a3.067,3.067,0,0,1,.927-2.253,3.067,3.067,0,0,1,2.253-.928H541.13a3.067,3.067,0,0,1,2.253.928,3.067,3.067,0,0,1,.927,2.253v31.005a1.171,1.171,0,0,0,1.325,1.325h27.03a3.067,3.067,0,0,1,2.253.927,3.067,3.067,0,0,1,.927,2.253Zm44.785-40.28a18.3,18.3,0,0,1-13.515-5.3,18.3,18.3,0,0,1-5.3-13.515,18.3,18.3,0,0,1,5.3-13.515,18.305,18.305,0,0,1,13.515-5.3,18.3,18.3,0,0,1,13.515,5.3,18.305,18.305,0,0,1,5.3,13.515,18.305,18.305,0,0,1-5.3,13.515A18.305,18.305,0,0,1,620.63-153.965ZM607.91,0a3.067,3.067,0,0,1-2.253-.928,3.067,3.067,0,0,1-.927-2.253V-132.5a3.067,3.067,0,0,1,.927-2.253,3.067,3.067,0,0,1,2.253-.927h24.38a3.067,3.067,0,0,1,2.253.927,3.067,3.067,0,0,1,.927,2.253V-3.18a3.067,3.067,0,0,1-.927,2.253A3.067,3.067,0,0,1,632.29,0ZM728.22,2.12q-20.935,0-35.907-10.6T671.245-37.9a100.019,100.019,0,0,1-4.505-30.21,99.038,99.038,0,0,1,4.24-30.21q6.095-18.55,21.2-28.885t36.3-10.335q20.14,0,34.847,10.335t20.8,28.62q4.77,12.72,4.77,30.21A95.18,95.18,0,0,1,784.4-38.16q-6.095,18.815-20.935,29.548T728.22,2.12Zm0-26.5a26.264,26.264,0,0,0,16.828-5.565q7.022-5.565,10.2-15.635,2.65-8.745,2.65-22.26,0-14.31-2.65-22.26-2.915-10.07-10.07-15.5t-17.49-5.433a27.242,27.242,0,0,0-16.96,5.433q-7.155,5.433-10.335,15.5a81.771,81.771,0,0,0-2.65,22.26,81.771,81.771,0,0,0,2.65,22.26q2.915,10.07,10.2,15.635A28.183,28.183,0,0,0,728.22-24.38ZM882.98-137.535q21.465,0,34.318,12.72T930.15-90.1V-3.18a3.067,3.067,0,0,1-.927,2.253A3.067,3.067,0,0,1,926.97,0H902.59a3.067,3.067,0,0,1-2.253-.928,3.066,3.066,0,0,1-.927-2.253V-83.74q0-12.19-6.89-19.743t-18.285-7.553q-11.395,0-18.417,7.42T848.795-84V-3.18a3.067,3.067,0,0,1-.927,2.253A3.067,3.067,0,0,1,845.615,0h-24.38a3.067,3.067,0,0,1-2.253-.928,3.067,3.067,0,0,1-.927-2.253V-132.235a3.067,3.067,0,0,1,.927-2.253,3.067,3.067,0,0,1,2.253-.927h24.38a3.067,3.067,0,0,1,2.253.927,3.067,3.067,0,0,1,.927,2.253v8.48a1.068,1.068,0,0,0,.53,1.06q.53.265.795-.53Q860.985-137.535,882.98-137.535ZM1012.565,1.59q-16.695,0-29.282-4.9T963.8-16.828a30,30,0,0,1-6.89-19.212v-2.385a3.067,3.067,0,0,1,.927-2.252,3.067,3.067,0,0,1,2.253-.927h23.32a3.067,3.067,0,0,1,2.253.927,3.067,3.067,0,0,1,.927,2.252v.53q0,6.625,7.287,11.527t18.418,4.9q10.6,0,17.225-4.373t6.625-11a9.859,9.859,0,0,0-5.432-9.142q-5.433-3.047-17.623-6.493l-10.07-3.18a149.011,149.011,0,0,1-22.79-8.48A45.522,45.522,0,0,1,964.6-76.452q-6.36-7.818-6.36-20.008,0-18.55,14.575-29.548t38.425-11q16.165,0,28.355,5.167t18.815,14.31a34.56,34.56,0,0,1,6.625,20.8,3.067,3.067,0,0,1-.928,2.252,3.067,3.067,0,0,1-2.252.928H1039.33a3.066,3.066,0,0,1-2.252-.928,3.067,3.067,0,0,1-.927-2.252q0-6.89-6.758-11.527t-18.417-4.638q-10.335,0-16.828,3.843t-6.492,10.732q0,6.36,6.227,9.673t20.8,7.287l5.83,1.59a187.678,187.678,0,0,1,23.585,8.613,46.049,46.049,0,0,1,16.165,12.19q6.625,7.818,6.625,20.272,0,18.815-14.84,29.548T1012.565,1.59Z" transform="translate(4667 2702)" fill="#444245"/>
    </clipPath>
    <clipPath id="clip-path-5">
      <rect id="Rectangle_2815" data-name="Rectangle 2815" width="1920" height="938" transform="translate(0 1491)" fill="#f3edeb"/>
    </clipPath>
    <clipPath id="clip-path-6">
      <rect id="Rectangle_2814" data-name="Rectangle 2814" width="1920" height="938" fill="#fff"/>
    </clipPath>
    <linearGradient id="linear-gradient-3" y1="0.397" x2="1.125" y2="0.909" gradientUnits="objectBoundingBox">
      <stop offset="0" stop-color="#3e9d79"/>
      <stop offset="0.615" stop-color="#6ab397"/>
      <stop offset="1" stop-color="#fff"/>
    </linearGradient>
    <linearGradient id="linear-gradient-4" x1="1" y1="1" x2="0" y2="1" gradientUnits="objectBoundingBox">
      <stop offset="0" stop-color="#1ed5c3"/>
      <stop offset="1" stop-color="#bb7271"/>
    </linearGradient>
  </defs>
  <g id="Mask_Group_189" data-name="Mask Group 189" transform="translate(0 -1853.373)" clip-path="url(#clip-path)">
    <g id="Group_8084" data-name="Group 8084" transform="translate(5050 -2397)">
      <g id="Group_7949" data-name="Group 7949" transform="translate(-5050)">
        <g id="Group_7948" data-name="Group 7948">
          <g id="Group_7947" data-name="Group 7947" transform="translate(9908)">
            <path id="Path_7627" data-name="Path 7627" d="M0,0H1920V914.093H0Z" transform="translate(-9908 4152)" fill="#f3edeb"/>
            <g id="Mask_Group_184" data-name="Mask Group 184" transform="translate(-9908 3050)" clip-path="url(#clip-path-2)">
              <g id="Group_7946" data-name="Group 7946" transform="translate(214.565 -42.628)">
                <g id="Group_7944" data-name="Group 7944" transform="translate(-256.279 2105.589) rotate(-90)">
                  <g id="Rectangle_2785" data-name="Rectangle 2785" transform="translate(0 259.331)" fill="none" stroke="#000" stroke-width="3">
                    <rect width="145.025" height="278.905" rx="72.512" stroke="none"/>
                    <rect x="1.5" y="1.5" width="142.025" height="275.905" rx="71.012" fill="none"/>
                  </g>
                  <g id="Rectangle_2786" data-name="Rectangle 2786" transform="translate(469.461 851.459) rotate(180)" fill="none" stroke="#000" stroke-width="3">
                    <rect width="145.025" height="215.294" rx="72.512" stroke="none"/>
                    <rect x="1.5" y="1.5" width="142.025" height="212.294" rx="71.012" fill="none"/>
                  </g>
                  <rect id="Rectangle_2787" data-name="Rectangle 2787" width="145.025" height="233.983" rx="72.512" transform="translate(0 557.672)" fill="#bb7271"/>
                  <rect id="Rectangle_2788" data-name="Rectangle 2788" width="145.025" height="233.983" rx="72.512" transform="translate(469.461 617.476) rotate(180)" fill="#f0a457"/>
                  <path id="Rectangle_2789" data-name="Rectangle 2789" d="M69.148,0h6.728a69.148,69.148,0,0,1,69.148,69.148V138.3a0,0,0,0,1,0,0H69.148A69.148,69.148,0,0,1,0,69.148v0A69.148,69.148,0,0,1,69.148,0Z" transform="translate(0 811.091)" fill="#f0a457"/>
                  <path id="Rectangle_2790" data-name="Rectangle 2790" d="M68.775,0H76.25a68.775,68.775,0,0,1,68.775,68.775v68.775a0,0,0,0,1,0,0H68.775A68.775,68.775,0,0,1,0,68.775v0A68.775,68.775,0,0,1,68.775,0Z" transform="translate(469.461 363.309) rotate(180)" fill="#cecece"/>
                  <path id="Rectangle_2791" data-name="Rectangle 2791" d="M0,0H72.512a72.512,72.512,0,0,1,72.512,72.512V231.74a72.512,72.512,0,0,1-72.512,72.512h0A72.512,72.512,0,0,1,0,231.74V0A0,0,0,0,1,0,0Z" transform="translate(162.218 323.689)" fill="#1ed5c3"/>
                  <path id="Rectangle_2792" data-name="Rectangle 2792" d="M0,0H72.512a72.512,72.512,0,0,1,72.512,72.512V231.74a72.512,72.512,0,0,1-72.512,72.512h0A72.512,72.512,0,0,1,0,231.74V0A0,0,0,0,1,0,0Z" transform="translate(162.218)" fill="#bb7271"/>
                  <path id="Rectangle_2793" data-name="Rectangle 2793" d="M71.391,0h2.243a71.391,71.391,0,0,1,71.391,71.391v0a71.391,71.391,0,0,1-71.391,71.391H0a0,0,0,0,1,0,0V71.391A71.391,71.391,0,0,1,71.391,0Z" transform="translate(162.218 648.873)" fill="#1ed5c3"/>
                  <path id="Rectangle_2794" data-name="Rectangle 2794" d="M19.436,0h.748A19.436,19.436,0,0,1,39.62,19.436v0A19.436,19.436,0,0,1,20.184,38.873H0a0,0,0,0,1,0,0V19.436A19.436,19.436,0,0,1,19.436,0Z" transform="translate(301.263 613.738)" fill="#bb7271"/>
                  <g id="Path_7628" data-name="Path 7628" transform="translate(123.262 770.137)" fill="none">
                    <path d="M22.108,0V21.594H0Z" stroke="none"/>
                    <path d="M 19.10788536071777 7.123831748962402 L 7.364871025085449 18.59375762939453 L 19.10788536071777 18.59375762939453 L 19.10788536071777 7.123831748962402 M 22.10788536071777 -3.814697265625e-06 L 22.10788536071777 21.59375762939453 L -3.814697265625e-06 21.59375762939453 L 22.10788536071777 -3.814697265625e-06 Z" stroke="none" fill="#000"/>
                  </g>
                  <path id="Rectangle_2795" data-name="Rectangle 2795" d="M0,0H72.512a72.512,72.512,0,0,1,72.512,72.512v47.843a72.512,72.512,0,0,1-72.512,72.512h0A72.512,72.512,0,0,1,0,120.356V0A0,0,0,0,1,0,0Z" transform="translate(162.218 811.091)" fill="#dd3e1f"/>
                </g>
                <g id="Group_7945" data-name="Group 7945" transform="translate(768.911 2105.589) rotate(-90)">
                  <g id="Rectangle_2796" data-name="Rectangle 2796" transform="translate(0 0)" fill="none" stroke="#000" stroke-width="3">
                    <rect width="145.025" height="538.236" rx="72.512" stroke="none"/>
                    <rect x="1.5" y="1.5" width="142.025" height="535.236" rx="71.012" fill="none"/>
                  </g>
                  <g id="Rectangle_2797" data-name="Rectangle 2797" transform="translate(469.461 851.459) rotate(180)" fill="none" stroke="#000" stroke-width="3">
                    <rect width="145.025" height="215.294" rx="72.512" stroke="none"/>
                    <rect x="1.5" y="1.5" width="142.025" height="212.294" rx="71.012" fill="none"/>
                  </g>
                  <rect id="Rectangle_2798" data-name="Rectangle 2798" width="145.025" height="233.983" rx="72.512" transform="translate(0 557.672)" fill="#bb7271"/>
                  <rect id="Rectangle_2799" data-name="Rectangle 2799" width="145.025" height="233.983" rx="72.512" transform="translate(469.461 617.476) rotate(180)" fill="#dd3e1f"/>
                  <path id="Rectangle_2800" data-name="Rectangle 2800" d="M69.148,0h6.728a69.148,69.148,0,0,1,69.148,69.148V138.3a0,0,0,0,1,0,0H69.148A69.148,69.148,0,0,1,0,69.148v0A69.148,69.148,0,0,1,69.148,0Z" transform="translate(0 811.091)" fill="#f0a457"/>
                  <path id="Rectangle_2801" data-name="Rectangle 2801" d="M68.775,0H76.25a68.775,68.775,0,0,1,68.775,68.775v68.775a0,0,0,0,1,0,0H68.775A68.775,68.775,0,0,1,0,68.775v0A68.775,68.775,0,0,1,68.775,0Z" transform="translate(469.461 363.309) rotate(180)" fill="#cecece"/>
                  <path id="Rectangle_2802" data-name="Rectangle 2802" d="M0,0H72.512a72.512,72.512,0,0,1,72.512,72.512V231.74a72.512,72.512,0,0,1-72.512,72.512h0A72.512,72.512,0,0,1,0,231.74V0A0,0,0,0,1,0,0Z" transform="translate(162.218 323.689)" fill="#1ed5c3"/>
                  <path id="Rectangle_2803" data-name="Rectangle 2803" d="M0,0H72.512a72.512,72.512,0,0,1,72.512,72.512V231.74a72.512,72.512,0,0,1-72.512,72.512h0A72.512,72.512,0,0,1,0,231.74V0A0,0,0,0,1,0,0Z" transform="translate(162.218)" fill="#bb7271"/>
                  <path id="Rectangle_2804" data-name="Rectangle 2804" d="M71.391,0h2.243a71.391,71.391,0,0,1,71.391,71.391v0a71.391,71.391,0,0,1-71.391,71.391H0a0,0,0,0,1,0,0V71.391A71.391,71.391,0,0,1,71.391,0Z" transform="translate(162.218 648.873)" fill="#1ed5c3"/>
                  <path id="Rectangle_2805" data-name="Rectangle 2805" d="M19.436,0h.748A19.436,19.436,0,0,1,39.62,19.436v0A19.436,19.436,0,0,1,20.184,38.873H0a0,0,0,0,1,0,0V19.436A19.436,19.436,0,0,1,19.436,0Z" transform="translate(301.263 613.738)" fill="#bb7271"/>
                  <g id="Path_7629" data-name="Path 7629" transform="translate(123.262 770.137)" fill="none">
                    <path d="M22.108,0V21.594H0Z" stroke="none"/>
                    <path d="M 19.10788536071777 7.123831748962402 L 7.364871025085449 18.59375762939453 L 19.10788536071777 18.59375762939453 L 19.10788536071777 7.123831748962402 M 22.10788536071777 -3.814697265625e-06 L 22.10788536071777 21.59375762939453 L -3.814697265625e-06 21.59375762939453 L 22.10788536071777 -3.814697265625e-06 Z" stroke="none" fill="#000"/>
                  </g>
                  <path id="Rectangle_2806" data-name="Rectangle 2806" d="M0,0H72.512a72.512,72.512,0,0,1,72.512,72.512v47.843a72.512,72.512,0,0,1-72.512,72.512h0A72.512,72.512,0,0,1,0,120.356V0A0,0,0,0,1,0,0Z" transform="translate(162.218 811.091)" fill="#dd3e1f"/>
                </g>
              </g>
            </g>
          </g>
          <path id="Path_7630" data-name="Path 7630" d="M0,0H1920V668.567H0Z" transform="translate(0 4398.526)" fill="url(#linear-gradient)"/>
        </g>
        <path id="Path_7631" data-name="Path 7631" d="M0,0H1920V417.162H0Z" transform="translate(0 4650)" fill="url(#linear-gradient-2)"/>
      </g>
      <g id="Mask_Group_188" data-name="Mask Group 188" transform="translate(-9295 2397)" clip-path="url(#clip-path-3)">
        <g id="Mask_Group_187" data-name="Mask Group 187" clip-path="url(#clip-path-4)">
          <g id="Mask_Group_186" data-name="Mask Group 186" transform="translate(4237.408 751.862)" clip-path="url(#clip-path-5)">
            <g id="Group_8083" data-name="Group 8083" transform="translate(0 1491)">
              <rect id="Rectangle_2808" data-name="Rectangle 2808" width="1920" height="938" fill="#f3edeb"/>
              <g id="Mask_Group_185" data-name="Mask Group 185" opacity="0.7" clip-path="url(#clip-path-6)">
                <g id="Group_8080" data-name="Group 8080" transform="translate(0)">
                  <rect id="Rectangle_2809" data-name="Rectangle 2809" width="1920" height="938" fill="#f3edeb"/>
                  <path id="Union_24" data-name="Union 24" d="M362.966,13.656c0,7.551,5.829,13.665,13.02,13.665a12.452,12.452,0,0,0,4.708-.92l47.472,86.29a14.107,14.107,0,0,0,.342,20.85l-47.815,86.895a12.449,12.449,0,0,0-4.707-.921,13.234,13.234,0,0,0-12.86,11.513H268.177a13.234,13.234,0,0,0-12.862-11.513,12.446,12.446,0,0,0-4.708.921l-47.82-86.892a13.9,13.9,0,0,0,4.779-10.582c0-7.547-5.828-13.662-13.019-13.662s-13.024,6.116-13.024,13.662,5.828,13.665,13.024,13.665a12.455,12.455,0,0,0,4.172-.716l47.923,87.079a14.121,14.121,0,0,0-.085,20.3L198.642,330.37a12.459,12.459,0,0,0-4.145-.707,13.2,13.2,0,0,0-12.761,10.931H86.591a13.2,13.2,0,0,0-12.764-10.931c-7.188,0-13.021,6.116-13.021,13.663s5.833,13.667,13.021,13.667a13.239,13.239,0,0,0,12.864-11.518h94.945A13.238,13.238,0,0,0,194.5,356.992a12.448,12.448,0,0,0,4.713-.923l47.471,86.289a14.1,14.1,0,0,0,.343,20.846L199.211,550.1a12.443,12.443,0,0,0-4.715-.924,13.24,13.24,0,0,0-12.861,11.521H86.648a13.231,13.231,0,0,0-12.854-11.468,12.455,12.455,0,0,0-4.658.9L21.3,463.206a13.892,13.892,0,0,0,4.784-10.576c0-7.545-5.836-13.662-13.028-13.662S.036,445.085.036,452.63s5.834,13.658,13.022,13.658a12.462,12.462,0,0,0,4.174-.717l47.924,87.089a14.1,14.1,0,0,0,.388,20.8l-47.805,86.9a12.454,12.454,0,0,0-4.715-.923C5.833,659.433,0,665.549,0,673.1s5.833,13.658,13.024,13.658,13.021-6.114,13.021-13.658A13.938,13.938,0,0,0,21.7,662.911l47.907-87.083a12.46,12.46,0,0,0,4.182.72,13.2,13.2,0,0,0,12.769-10.973h95.173A13.2,13.2,0,0,0,194.5,576.5a12.463,12.463,0,0,0,4.124-.7l47.857,86.972a13.928,13.928,0,0,0-4.365,10.208c0,7.546,5.827,13.663,13.022,13.663a13.191,13.191,0,0,0,12.74-10.849h95.181A13.2,13.2,0,0,0,375.8,686.647a12.468,12.468,0,0,0,4.621-.884l47.5,86.312a14.106,14.106,0,0,0,.407,20.792L380.509,879.76a12.473,12.473,0,0,0-4.712-.92A13.233,13.233,0,0,0,362.94,890.35H267.991a13.229,13.229,0,0,0-12.856-11.511,12.465,12.465,0,0,0-4.711.92L202.6,792.868a13.906,13.906,0,0,0,4.782-10.581c0-7.547-5.835-13.66-13.026-13.66s-13.021,6.114-13.021,13.66,5.828,13.667,13.021,13.667a12.451,12.451,0,0,0,4.174-.717l47.923,87.076a14.108,14.108,0,0,0,.455,20.784l-47.856,86.941a12.45,12.45,0,0,0-4.706-.92c-7.19,0-13.026,6.116-13.026,13.667s5.836,13.662,13.026,13.662,13.02-6.117,13.02-13.662a13.937,13.937,0,0,0-4.348-10.2l47.963-87.134a12.463,12.463,0,0,0,4.15.708,13.2,13.2,0,0,0,12.757-10.932H363.04A13.2,13.2,0,0,0,375.8,906.164c7.2,0,13.027-6.118,13.027-13.663a13.926,13.926,0,0,0-4.348-10.19l47.913-87.077a12.458,12.458,0,0,0,4.18.719,13.2,13.2,0,0,0,12.757-10.922h95.19a13.2,13.2,0,0,0,12.761,10.93c7.193,0,13.026-6.115,13.026-13.662a13.921,13.921,0,0,0-4.349-10.188l47.907-87.06a12.455,12.455,0,0,0,4.119.7,13.194,13.194,0,0,0,12.761-10.93h95.147a13.2,13.2,0,0,0,12.765,10.93,12.45,12.45,0,0,0,4.612-.882l47.489,86.307a14.095,14.095,0,0,0,.81,21.077l-48.191,87.579a12.455,12.455,0,0,0-4.708-.92A13.231,13.231,0,0,0,725.8,890.421H630.776a13.233,13.233,0,0,0-12.86-11.491c-7.19,0-13.021,6.115-13.021,13.662a13.9,13.9,0,0,0,4.8,10.6l-47.86,86.87a12.456,12.456,0,0,0-4.682-.909c-7.193,0-13.026,6.114-13.026,13.662s5.833,13.658,13.026,13.658a12.456,12.456,0,0,0,4.21-.73l47.914,87.082a13.93,13.93,0,0,0-4.344,10.189c0,7.549,5.828,13.665,13.021,13.665s13.021-6.115,13.021-13.665-5.833-13.663-13.021-13.663a12.46,12.46,0,0,0-4.713.922L565.42,1013.36A14.1,14.1,0,0,0,565.8,992.6l47.96-87.054a12.448,12.448,0,0,0,4.151.709A13.2,13.2,0,0,0,630.684,895.3H725.9a13.2,13.2,0,0,0,12.764,10.932c7.19,0,13.019-6.114,13.019-13.665a13.923,13.923,0,0,0-4.345-10.185l48.379-87.919a12.453,12.453,0,0,0,3.712.563,13.2,13.2,0,0,0,12.762-10.932h95.191a13.2,13.2,0,0,0,12.76,10.928,12.453,12.453,0,0,0,4.174-.717l47.918,87.077a13.935,13.935,0,0,0-4.343,10.188c0,7.547,5.828,13.665,13.018,13.665s13.023-6.118,13.023-13.665-5.833-13.665-13.023-13.665a12.442,12.442,0,0,0-4.709.922l-47.815-86.891a14.105,14.105,0,0,0,.406-20.792L976.7,684.094a12.444,12.444,0,0,0,4.174.718c7.195,0,13.021-6.118,13.021-13.662s-5.827-13.663-13.021-13.663-13.022,6.114-13.022,13.663a13.9,13.9,0,0,0,4.779,10.575L924.818,768.6a12.45,12.45,0,0,0-4.676-.908,13.232,13.232,0,0,0-12.861,11.52h-94.99A13.234,13.234,0,0,0,799.43,767.7a12.448,12.448,0,0,0-4.71.922L747.25,682.348a14.11,14.11,0,0,0,.075-20.45l47.92-87.079a12.458,12.458,0,0,0,4.176.717A13.234,13.234,0,0,0,812.285,564h95a13.234,13.234,0,0,0,12.867,11.53c7.193,0,13.022-6.111,13.022-13.66a13.925,13.925,0,0,0-4.358-10.2l47.934-87.061a12.447,12.447,0,0,0,4.171.716c7.188,0,13.019-6.122,13.019-13.669s-5.831-13.662-13.019-13.662S967.9,444.11,967.9,451.654a13.912,13.912,0,0,0,4.786,10.587l-47.835,86.881a12.461,12.461,0,0,0-4.7-.915A13.2,13.2,0,0,0,907.4,559.114H812.176a13.2,13.2,0,0,0-12.755-10.905,12.454,12.454,0,0,0-4.6.877l-47.495-86.325a13.936,13.936,0,0,0,4.349-10.193c0-7.545-5.834-13.663-13.022-13.663a13.2,13.2,0,0,0-12.765,10.931H630.839a13.2,13.2,0,0,0-12.749-10.868,12.458,12.458,0,0,0-4.6.876l-47.495-86.327a13.935,13.935,0,0,0,4.349-10.192c0-7.547-5.833-13.663-13.023-13.663a13.2,13.2,0,0,0-12.762,10.931H449.413a13.2,13.2,0,0,0-12.764-10.931,12.445,12.445,0,0,0-4.18.72l-47.854-86.976a14.115,14.115,0,0,0,.044-20.419l47.918-87.079a12.461,12.461,0,0,0,4.176.717c7.195,0,13.021-6.114,13.021-13.665S443.948,109.3,436.753,109.3a12.458,12.458,0,0,0-4.6.876l-47.5-86.326a13.933,13.933,0,0,0,4.347-10.193C389.005,6.116,383.176,0,375.986,0S362.966,6.116,362.966,13.656Zm.259,222.249a13.2,13.2,0,0,0,12.761,10.933,12.451,12.451,0,0,0,4.653-.9L428.4,332.752a14.1,14.1,0,0,0-.323,20.861L380.6,439.894a12.451,12.451,0,0,0-4.723-.927,13.236,13.236,0,0,0-12.863,11.526H268.131a13.238,13.238,0,0,0-12.866-11.526,12.453,12.453,0,0,0-4.595.875l-47.5-86.329a14.105,14.105,0,0,0-.459-20.788L250.5,245.875a12.457,12.457,0,0,0,4.811.963A13.2,13.2,0,0,0,268.079,235.9Zm181.234,109.57a13.237,13.237,0,0,0,12.862,11.518,12.446,12.446,0,0,0,4.71-.922L609.5,442.359a14.1,14.1,0,0,0,.343,20.845l-47.812,86.89a12.441,12.441,0,0,0-4.712-.923,13.239,13.239,0,0,0-12.862,11.521H449.513a13.242,13.242,0,0,0-12.864-11.521,12.435,12.435,0,0,0-4.708.922L384.122,463.2a14.1,14.1,0,0,0,.442-20.755l47.5-86.329a12.439,12.439,0,0,0,4.58.871,13.24,13.24,0,0,0,12.864-11.518ZM725.787,454.72a13.236,13.236,0,0,0,12.865,11.515,12.449,12.449,0,0,0,4.707-.921L790.831,551.6a14.1,14.1,0,0,0,.344,20.848l-47.817,86.9a12.46,12.46,0,0,0-4.705-.919,13.23,13.23,0,0,0-12.865,11.507H630.841a13.225,13.225,0,0,0-12.861-11.507,12.462,12.462,0,0,0-4.54.853l-47.45-86.246A14.118,14.118,0,0,0,566,552.649l47.917-87.078a12.469,12.469,0,0,0,4.176.717,13.239,13.239,0,0,0,12.87-11.569Zm-362.666.654a13.2,13.2,0,0,0,12.758,10.914,12.457,12.457,0,0,0,4.174-.717l47.921,87.078a14.105,14.105,0,0,0,.432,20.768l-47.8,86.866a12.467,12.467,0,0,0-4.812-.962,13.239,13.239,0,0,0-12.87,11.6H268a13.234,13.234,0,0,0-12.869-11.6,12.459,12.459,0,0,0-4.686.911L202.7,573.456a14.107,14.107,0,0,0,.481-20.8l47.917-87.08a12.455,12.455,0,0,0,4.171.716,13.2,13.2,0,0,0,12.761-10.914Zm181.438,110.2A13.2,13.2,0,0,0,557.32,576.5a12.457,12.457,0,0,0,4.7-.916l47.419,86.19a14.1,14.1,0,0,0,.342,20.924l-47.795,86.86a12.464,12.464,0,0,0-4.708-.919,13.231,13.231,0,0,0-12.861,11.511H449.432a13.23,13.23,0,0,0-12.862-11.526,12.468,12.468,0,0,0-4.683.909L384.4,683.245a14.114,14.114,0,0,0,.157-20.375l47.916-87.086a12.453,12.453,0,0,0,4.177.719,13.2,13.2,0,0,0,12.763-10.929Z" transform="translate(1979.73 1176.298) rotate(180)" stroke="rgba(0,0,0,0)" stroke-miterlimit="10" stroke-width="1" fill="url(#linear-gradient-3)"/>
                  <rect id="Rectangle_2811" data-name="Rectangle 2811" width="1920" height="938" fill="#fff"/>
                  <g id="Group_8079" data-name="Group 8079" transform="translate(1425.382 360.879)">
                    <g id="Group_8078" data-name="Group 8078" transform="translate(0 0)">
                      <g id="Group_7998" data-name="Group 7998" transform="translate(235.718 357.423)">
                        <g id="Group_7990" data-name="Group 7990" transform="translate(6.712 7.1)">
                          <path id="Path_7689" data-name="Path 7689" d="M886.954,416.52H807.4l-40.21-73.086,40.21-73.074h80.426L927.6,342.644l-2.617,1.585-38.908-70.7H809.143l-38.464,69.9,38.464,69.916h77.811Z" transform="translate(-767.19 -270.359)" fill="#fff"/>
                        </g>
                        <g id="Group_7997" data-name="Group 7997">
                          <g id="Group_7991" data-name="Group 7991" transform="translate(0 71.602)">
                            <path id="Path_7690" data-name="Path 7690" d="M893.309,323.925a8.47,8.47,0,1,1-8.461-8.873A8.676,8.676,0,0,1,893.309,323.925Z" transform="translate(-876.388 -315.052)" fill="#fff"/>
                          </g>
                          <g id="Group_7992" data-name="Group 7992" transform="translate(157.352 71.602)">
                            <path id="Path_7691" data-name="Path 7691" d="M778.916,323.925a8.47,8.47,0,1,1-8.46-8.873A8.676,8.676,0,0,1,778.916,323.925Z" transform="translate(-761.995 -315.052)" fill="#fff"/>
                          </g>
                          <g id="Group_7993" data-name="Group 7993" transform="translate(39.478)">
                            <path id="Path_7692" data-name="Path 7692" d="M864.609,274.316a8.47,8.47,0,1,1-8.46-8.876A8.679,8.679,0,0,1,864.609,274.316Z" transform="translate(-847.688 -265.44)" fill="#fff"/>
                          </g>
                          <g id="Group_7994" data-name="Group 7994" transform="translate(39.478 142.607)">
                            <path id="Path_7693" data-name="Path 7693" d="M864.609,373.129a8.47,8.47,0,1,1-8.46-8.879A8.674,8.674,0,0,1,864.609,373.129Z" transform="translate(-847.688 -364.25)" fill="#fff"/>
                          </g>
                          <g id="Group_7995" data-name="Group 7995" transform="translate(117.873)">
                            <path id="Path_7694" data-name="Path 7694" d="M807.617,274.316a8.47,8.47,0,1,1-8.46-8.876A8.682,8.682,0,0,1,807.617,274.316Z" transform="translate(-790.696 -265.44)" fill="#fff"/>
                          </g>
                          <g id="Group_7996" data-name="Group 7996" transform="translate(117.873 142.607)">
                            <path id="Path_7695" data-name="Path 7695" d="M807.617,373.129a8.47,8.47,0,1,1-8.46-8.879A8.677,8.677,0,0,1,807.617,373.129Z" transform="translate(-790.696 -364.25)" fill="#fff"/>
                          </g>
                        </g>
                      </g>
                      <g id="Group_8007" data-name="Group 8007" transform="translate(353.645 143.256)">
                        <g id="Group_7999" data-name="Group 7999" transform="translate(7.148 7.102)">
                          <path id="Path_7696" data-name="Path 7696" d="M838.819,195.835l-38.906-70.7H722.975l-38.9,70.7-2.615-1.586,39.772-72.281h80.428l39.78,72.281Z" transform="translate(-681.458 -121.968)" fill="#fff"/>
                        </g>
                        <g id="Group_8006" data-name="Group 8006">
                          <g id="Group_8000" data-name="Group 8000" transform="translate(0 71.599)">
                            <path id="Path_7697" data-name="Path 7697" d="M807.577,175.536a8.47,8.47,0,1,1-8.462-8.879A8.675,8.675,0,0,1,807.577,175.536Z" transform="translate(-790.657 -166.657)" fill="#fff"/>
                          </g>
                          <g id="Group_8001" data-name="Group 8001" transform="translate(157.35 71.599)">
                            <path id="Path_7698" data-name="Path 7698" d="M693.187,175.536a8.471,8.471,0,1,1-8.46-8.879A8.673,8.673,0,0,1,693.187,175.536Z" transform="translate(-676.265 -166.657)" fill="#fff"/>
                          </g>
                          <g id="Group_8002" data-name="Group 8002" transform="translate(39.477)">
                            <path id="Path_7699" data-name="Path 7699" d="M778.878,125.923a8.47,8.47,0,1,1-8.457-8.876A8.675,8.675,0,0,1,778.878,125.923Z" transform="translate(-761.958 -117.047)" fill="#fff"/>
                          </g>
                          <g id="Group_8003" data-name="Group 8003" transform="translate(39.477 142.611)">
                            <path id="Path_7700" data-name="Path 7700" d="M778.878,224.736a8.47,8.47,0,1,1-8.457-8.876A8.676,8.676,0,0,1,778.878,224.736Z" transform="translate(-761.958 -215.86)" fill="#fff"/>
                          </g>
                          <g id="Group_8004" data-name="Group 8004" transform="translate(117.873)">
                            <path id="Path_7701" data-name="Path 7701" d="M721.884,125.923a8.468,8.468,0,1,1-8.459-8.876A8.673,8.673,0,0,1,721.884,125.923Z" transform="translate(-704.968 -117.047)" fill="#fff"/>
                          </g>
                          <g id="Group_8005" data-name="Group 8005" transform="translate(117.873 142.611)">
                            <path id="Path_7702" data-name="Path 7702" d="M721.884,224.736a8.468,8.468,0,1,1-8.459-8.876A8.673,8.673,0,0,1,721.884,224.736Z" transform="translate(-704.968 -215.86)" fill="#fff"/>
                          </g>
                        </g>
                      </g>
                      <g id="Group_8011" data-name="Group 8011" transform="translate(477.182 71.609)">
                        <g id="Group_8008" data-name="Group 8008" transform="translate(0 7.899)">
                          <path id="Path_7703" data-name="Path 7703" d="M1.677,81.579l3.059.064L3.059.064,0,0Z" transform="matrix(-0.866, -0.5, 0.5, -0.866, 4.101, 73.068)" fill="#fff"/>
                        </g>
                        <g id="Group_8010" data-name="Group 8010" transform="translate(33.823)">
                          <g id="Group_8009" data-name="Group 8009">
                            <path id="Path_7704" data-name="Path 7704" d="M693.178,76.28a8.47,8.47,0,1,1-8.462-8.876A8.678,8.678,0,0,1,693.178,76.28Z" transform="translate(-676.258 -67.404)" fill="#fff"/>
                          </g>
                        </g>
                      </g>
                      <g id="Group_8016" data-name="Group 8016" transform="translate(0 358.057)">
                        <g id="Group_8012" data-name="Group 8012" transform="translate(5.656 7.898)">
                          <path id="Path_7705" data-name="Path 7705" d="M1.677,81.577l3.058.064L3.058.064,0,0Z" transform="translate(4.1 73.062) rotate(-149.986)" fill="#fff"/>
                        </g>
                        <g id="Group_8015" data-name="Group 8015">
                          <g id="Group_8013" data-name="Group 8013" transform="translate(0 71.595)">
                            <path id="Path_7706" data-name="Path 7706" d="M1064.672,324.366a8.469,8.469,0,1,1-8.461-8.88A8.676,8.676,0,0,1,1064.672,324.366Z" transform="translate(-1047.753 -315.486)" fill="#fff"/>
                          </g>
                          <g id="Group_8014" data-name="Group 8014" transform="translate(39.478)">
                            <path id="Path_7707" data-name="Path 7707" d="M1035.973,274.754a8.47,8.47,0,1,1-8.461-8.875A8.675,8.675,0,0,1,1035.973,274.754Z" transform="translate(-1019.052 -265.879)" fill="#fff"/>
                          </g>
                        </g>
                      </g>
                      <g id="Group_8021" data-name="Group 8021" transform="translate(589.325 285.795)">
                        <g id="Group_8017" data-name="Group 8017" transform="translate(5.667 7.891)">
                          <path id="Path_7708" data-name="Path 7708" d="M1.677,81.581l3.059.064L3.059.064,0,0Z" transform="translate(4.101 73.079) rotate(-150.006)" fill="#fff"/>
                        </g>
                        <g id="Group_8020" data-name="Group 8020">
                          <g id="Group_8018" data-name="Group 8018" transform="translate(0 71.599)">
                            <path id="Path_7709" data-name="Path 7709" d="M636.242,274.3a8.47,8.47,0,1,1-8.461-8.876A8.676,8.676,0,0,1,636.242,274.3Z" transform="translate(-619.321 -265.42)" fill="#fff"/>
                          </g>
                          <g id="Group_8019" data-name="Group 8019" transform="translate(39.479)">
                            <path id="Path_7710" data-name="Path 7710" d="M607.541,224.683a8.47,8.47,0,1,1-8.461-8.873A8.677,8.677,0,0,1,607.541,224.683Z" transform="translate(-590.62 -215.81)" fill="#fff"/>
                          </g>
                        </g>
                      </g>
                      <g id="Group_8026" data-name="Group 8026" transform="translate(235.83 71.596)">
                        <g id="Group_8022" data-name="Group 8022" transform="translate(5.645 7.903)">
                          <path id="Path_7711" data-name="Path 7711" d="M1.678,81.578l3.06.064L3.06.064,0,0Z" transform="matrix(-0.866, -0.5, 0.5, -0.866, 4.102, 73.054)" fill="#fff"/>
                        </g>
                        <g id="Group_8025" data-name="Group 8025">
                          <g id="Group_8023" data-name="Group 8023" transform="translate(0 71.599)">
                            <path id="Path_7712" data-name="Path 7712" d="M893.227,125.882a8.47,8.47,0,1,1-8.46-8.877A8.675,8.675,0,0,1,893.227,125.882Z" transform="translate(-876.307 -117.005)" fill="#fff"/>
                          </g>
                          <g id="Group_8024" data-name="Group 8024" transform="translate(39.478)">
                            <path id="Path_7713" data-name="Path 7713" d="M864.528,76.268a8.471,8.471,0,1,1-8.462-8.873A8.676,8.676,0,0,1,864.528,76.268Z" transform="translate(-847.606 -67.395)" fill="#fff"/>
                          </g>
                        </g>
                      </g>
                      <g id="Group_8030" data-name="Group 8030" transform="translate(235.808)">
                        <g id="Group_8027" data-name="Group 8027" transform="translate(5.813 7.894)">
                          <path id="Path_7714" data-name="Path 7714" d="M.064,3.058,81.646,4.734l-.064-3.058L0,0Z" transform="translate(40.82 73.076) rotate(-119.998)" fill="#fff"/>
                        </g>
                        <g id="Group_8029" data-name="Group 8029" transform="translate(0)">
                          <g id="Group_8028" data-name="Group 8028">
                            <path id="Path_7715" data-name="Path 7715" d="M876.324,26.664a8.469,8.469,0,1,0,16.919,0,8.469,8.469,0,1,0-16.919,0Z" transform="translate(-876.324 -17.787)" fill="#fff"/>
                          </g>
                        </g>
                      </g>
                      <g id="Group_8035" data-name="Group 8035" transform="translate(0.008 143.859)">
                        <g id="Group_8031" data-name="Group 8031" transform="translate(5.812 7.895)">
                          <path id="Path_7716" data-name="Path 7716" d="M.064,3.059l81.58,1.677L81.58,1.677,0,0Z" transform="matrix(-0.5, -0.866, 0.866, -0.5, 40.823, 73.074)" fill="#fff"/>
                        </g>
                        <g id="Group_8034" data-name="Group 8034">
                          <g id="Group_8032" data-name="Group 8032" transform="translate(39.48 71.601)">
                            <path id="Path_7717" data-name="Path 7717" d="M1019.047,175.95a8.469,8.469,0,1,0,8.459-8.874A8.677,8.677,0,0,0,1019.047,175.95Z" transform="translate(-1019.047 -167.076)" fill="#fff"/>
                          </g>
                          <g id="Group_8033" data-name="Group 8033">
                            <path id="Path_7718" data-name="Path 7718" d="M1047.748,126.342a8.469,8.469,0,1,0,8.461-8.877A8.678,8.678,0,0,0,1047.748,126.342Z" transform="translate(-1047.748 -117.465)" fill="#fff"/>
                          </g>
                        </g>
                      </g>
                      <g id="Group_8042" data-name="Group 8042" transform="translate(117.915 286.45)">
                        <g id="Group_8036" data-name="Group 8036" transform="translate(6.711 7.101)">
                          <path id="Path_7719" data-name="Path 7719" d="M1002.149,367.346H922.595l-40.212-73.089,40.212-73.073h79.554v3.172H924.338l-38.464,69.9,38.464,69.916h77.811Z" transform="translate(-882.383 -221.184)" fill="#fff"/>
                        </g>
                        <g id="Group_8041" data-name="Group 8041">
                          <g id="Group_8037" data-name="Group 8037" transform="translate(0 71.601)">
                            <path id="Path_7720" data-name="Path 7720" d="M978.949,274.751a8.47,8.47,0,1,1-8.461-8.876A8.677,8.677,0,0,1,978.949,274.751Z" transform="translate(-962.029 -265.875)" fill="#fff"/>
                          </g>
                          <g id="Group_8038" data-name="Group 8038" transform="translate(39.478)">
                            <path id="Path_7721" data-name="Path 7721" d="M950.25,225.14a8.471,8.471,0,1,1-8.462-8.876A8.672,8.672,0,0,1,950.25,225.14Z" transform="translate(-933.328 -216.264)" fill="#fff"/>
                          </g>
                          <g id="Group_8039" data-name="Group 8039" transform="translate(39.478 142.61)">
                            <path id="Path_7722" data-name="Path 7722" d="M950.25,323.955a8.471,8.471,0,1,1-8.462-8.879A8.677,8.677,0,0,1,950.25,323.955Z" transform="translate(-933.328 -315.076)" fill="#fff"/>
                          </g>
                          <g id="Group_8040" data-name="Group 8040" transform="translate(117.874)">
                            <path id="Path_7723" data-name="Path 7723" d="M893.256,225.14a8.469,8.469,0,1,1-8.458-8.876A8.671,8.671,0,0,1,893.256,225.14Z" transform="translate(-876.338 -216.264)" fill="#fff"/>
                          </g>
                        </g>
                      </g>
                      <g id="Group_8046" data-name="Group 8046" transform="translate(242.456 214.85)">
                        <g id="Group_8043" data-name="Group 8043" transform="translate(0 7.101)">
                          <path id="Path_7724" data-name="Path 7724" d="M806.946,316.941l-39.774-72.293,40.211-73.075h80.425l39.777,72.281-2.615,1.584-38.906-70.7H809.128l-38.465,69.9,38.9,70.706Z" transform="translate(-767.172 -171.573)" fill="#fff"/>
                        </g>
                        <g id="Group_8045" data-name="Group 8045" transform="translate(32.767)">
                          <g id="Group_8044" data-name="Group 8044">
                            <path id="Path_7725" data-name="Path 7725" d="M864.59,175.529a8.471,8.471,0,1,1-8.459-8.876A8.674,8.674,0,0,1,864.59,175.529Z" transform="translate(-847.668 -166.653)" fill="#fff"/>
                          </g>
                        </g>
                      </g>
                      <g id="Group_8050" data-name="Group 8050" transform="translate(125.055 143.211)">
                        <g id="Group_8047" data-name="Group 8047" transform="translate(0 7.102)">
                          <path id="Path_7726" data-name="Path 7726" d="M885.006,195.8l-2.617-1.586,39.772-72.279h79.556v3.17H923.907Z" transform="translate(-882.39 -121.937)" fill="#fff"/>
                        </g>
                        <g id="Group_8049" data-name="Group 8049" transform="translate(32.332)">
                          <g id="Group_8048" data-name="Group 8048">
                            <path id="Path_7727" data-name="Path 7727" d="M950.254,125.893a8.469,8.469,0,1,1-8.461-8.877A8.673,8.673,0,0,1,950.254,125.893Z" transform="translate(-933.335 -117.016)" fill="#fff"/>
                          </g>
                        </g>
                      </g>
                      <g id="Group_8058" data-name="Group 8058" transform="translate(471.428 357.423)">
                        <g id="Group_8051" data-name="Group 8051" transform="translate(6.71 7.1)">
                          <path id="Path_7728" data-name="Path 7728" d="M715.6,416.52H636.042l-40.21-73.086,40.21-73.074h80.43l39.777,72.284-2.616,1.585-38.908-70.7H637.787l-38.463,69.9,38.463,69.916H715.6Z" transform="translate(-595.832 -270.359)" fill="#fff"/>
                        </g>
                        <g id="Group_8057" data-name="Group 8057">
                          <g id="Group_8052" data-name="Group 8052" transform="translate(0 71.602)">
                            <path id="Path_7729" data-name="Path 7729" d="M721.95,323.925a8.47,8.47,0,1,1-8.459-8.873A8.676,8.676,0,0,1,721.95,323.925Z" transform="translate(-705.03 -315.052)" fill="#fff"/>
                          </g>
                          <g id="Group_8053" data-name="Group 8053" transform="translate(157.35 71.602)">
                            <path id="Path_7730" data-name="Path 7730" d="M607.56,323.925a8.471,8.471,0,1,1-8.46-8.873A8.677,8.677,0,0,1,607.56,323.925Z" transform="translate(-590.637 -315.052)" fill="#fff"/>
                          </g>
                          <g id="Group_8054" data-name="Group 8054" transform="translate(39.479)">
                            <path id="Path_7731" data-name="Path 7731" d="M693.249,274.316a8.47,8.47,0,1,1-8.46-8.876A8.68,8.68,0,0,1,693.249,274.316Z" transform="translate(-676.329 -265.44)" fill="#fff"/>
                          </g>
                          <g id="Group_8055" data-name="Group 8055" transform="translate(39.479 142.607)">
                            <path id="Path_7732" data-name="Path 7732" d="M693.249,373.129a8.47,8.47,0,1,1-8.46-8.879A8.675,8.675,0,0,1,693.249,373.129Z" transform="translate(-676.329 -364.25)" fill="#fff"/>
                          </g>
                          <g id="Group_8056" data-name="Group 8056" transform="translate(117.873 142.607)">
                            <path id="Path_7733" data-name="Path 7733" d="M636.259,373.129a8.47,8.47,0,1,1-8.459-8.879A8.676,8.676,0,0,1,636.259,373.129Z" transform="translate(-619.338 -364.25)" fill="#fff"/>
                          </g>
                        </g>
                      </g>
                      <g id="Group_8064" data-name="Group 8064" transform="translate(0.036 215.457)">
                        <g id="Group_8059" data-name="Group 8059" transform="translate(7.144 7.102)">
                          <path id="Path_7734" data-name="Path 7734" d="M941.148,245.864l-2.618-1.587L978.308,172h80.428l39.773,72.283-2.618,1.587-38.9-70.7H980.053Z" transform="translate(-938.53 -171.995)" fill="#fff"/>
                        </g>
                        <g id="Group_8060" data-name="Group 8060" transform="translate(47.795 150.09)">
                          <rect id="Rectangle_2812" data-name="Rectangle 2812" width="78.683" height="3.173" fill="#fff"/>
                        </g>
                        <g id="Group_8063" data-name="Group 8063" transform="translate(0)">
                          <g id="Group_8061" data-name="Group 8061" transform="translate(0 71.602)">
                            <path id="Path_7735" data-name="Path 7735" d="M1047.727,225.562a8.469,8.469,0,1,0,8.459-8.876A8.672,8.672,0,0,0,1047.727,225.562Z" transform="translate(-1047.727 -216.686)" fill="#fff"/>
                          </g>
                          <g id="Group_8062" data-name="Group 8062" transform="translate(117.873)">
                            <path id="Path_7736" data-name="Path 7736" d="M962.035,175.951a8.469,8.469,0,1,0,8.46-8.877A8.675,8.675,0,0,0,962.035,175.951Z" transform="translate(-962.035 -167.074)" fill="#fff"/>
                          </g>
                        </g>
                      </g>
                      <g id="Group_8066" data-name="Group 8066" transform="translate(360.744 292.916)">
                        <g id="Group_8065" data-name="Group 8065">
                          <path id="Path_7737" data-name="Path 7737" d="M838.858,294.613l-38.906-70.7H723.014l-38.9,70.7-2.615-1.586,39.771-72.283H801.7l39.775,72.283Z" transform="translate(-681.498 -220.744)" fill="#fff"/>
                        </g>
                      </g>
                      <g id="Group_8074" data-name="Group 8074" transform="translate(353.525 571.593)">
                        <g id="Group_8067" data-name="Group 8067" transform="translate(6.71 7.102)">
                          <path id="Path_7738" data-name="Path 7738" d="M721.322,564.121l-39.775-72.293,40.21-73.072h80.429l39.777,72.278-2.617,1.585-38.906-70.7H723.5l-38.465,69.9,38.9,70.708Z" transform="translate(-681.547 -418.756)" fill="#fff"/>
                        </g>
                        <g id="Group_8073" data-name="Group 8073">
                          <g id="Group_8068" data-name="Group 8068" transform="translate(0 71.599)">
                            <path id="Path_7739" data-name="Path 7739" d="M807.664,472.322a8.469,8.469,0,1,1-8.46-8.877A8.674,8.674,0,0,1,807.664,472.322Z" transform="translate(-790.745 -463.445)" fill="#fff"/>
                          </g>
                          <g id="Group_8069" data-name="Group 8069" transform="translate(157.352 71.599)">
                            <path id="Path_7740" data-name="Path 7740" d="M693.271,472.322a8.469,8.469,0,1,1-8.461-8.877A8.674,8.674,0,0,1,693.271,472.322Z" transform="translate(-676.352 -463.445)" fill="#fff"/>
                          </g>
                          <g id="Group_8070" data-name="Group 8070" transform="translate(39.479)">
                            <path id="Path_7741" data-name="Path 7741" d="M778.963,422.708a8.468,8.468,0,1,1-8.458-8.873A8.676,8.676,0,0,1,778.963,422.708Z" transform="translate(-762.046 -413.835)" fill="#fff"/>
                          </g>
                          <g id="Group_8071" data-name="Group 8071" transform="translate(39.479 142.611)">
                            <path id="Path_7742" data-name="Path 7742" d="M778.963,521.525a8.468,8.468,0,1,1-8.458-8.877A8.673,8.673,0,0,1,778.963,521.525Z" transform="translate(-762.046 -512.648)" fill="#fff"/>
                          </g>
                          <g id="Group_8072" data-name="Group 8072" transform="translate(117.872)">
                            <path id="Path_7743" data-name="Path 7743" d="M721.973,422.708a8.469,8.469,0,1,1-8.457-8.873A8.674,8.674,0,0,1,721.973,422.708Z" transform="translate(-705.055 -413.835)" fill="#fff"/>
                          </g>
                        </g>
                      </g>
                      <g id="Group_8077" data-name="Group 8077" transform="translate(360.297 436.116)">
                        <g id="Group_8075" data-name="Group 8075" transform="translate(116.975 72.284)">
                          <path id="Path_7744" data-name="Path 7744" d="M1.677,81.592l3.059.064L3.059.064,0,0Z" transform="translate(4.101 73.085) rotate(-150.002)" fill="#fff"/>
                        </g>
                        <g id="Group_8076" data-name="Group 8076" transform="translate(0)">
                          <path id="Path_7745" data-name="Path 7745" d="M750.828,465.334l-39.775-72.293,40.212-73.076H830.82v3.17H753.008l-38.467,69.906,38.9,70.708Z" transform="translate(-711.053 -319.965)" fill="#fff"/>
                        </g>
                      </g>
                    </g>
                  </g>
                </g>
                <g id="Group_8082" data-name="Group 8082" transform="translate(896.5 -538.51)">
                  <g id="Group_8081" data-name="Group 8081" transform="translate(-480 475.765)">
                    <rect id="Rectangle_2813" data-name="Rectangle 2813" width="1113" height="1167.779" rx="556.5" transform="translate(0 0)" stroke="rgba(0,0,0,0)" stroke-miterlimit="10" stroke-width="1" opacity="0.22" fill="url(#linear-gradient-4)"/>
                  </g>
                </g>
              </g>
            </g>
          </g>
        </g>
      </g>
      <rect id="Rectangle_2817" data-name="Rectangle 2817" width="1920" height="129" rx="10" transform="translate(-5050 4938)" fill="url(#linear-gradient-2)"/>
    </g>
  </g>
</svg>
