<svg xmlns="http://www.w3.org/2000/svg" width="221.069" height="41.912" viewBox="0 0 221.069 41.912">
  <path id="Path_7775" data-name="Path 7775" d="M43.275-18.654A37.361,37.361,0,0,1,32.977-7.72,20.579,20.579,0,0,1,21.368-3.851a16.186,16.186,0,0,1-2.738-.238A3.381,3.381,0,0,1,16.09-5.8a5.037,5.037,0,0,1-.635-1.885,8.716,8.716,0,0,1,.1-2.639q.258-1.548.536-2.838a33.874,33.874,0,0,1,1.032-3.512q.754-2.222,1.23-3.572T19.82-24.25q.873-2.342,1.33-3.592t1.191-3.373q.734-2.123,1.052-3.433t.615-2.838a10.6,10.6,0,0,0,.238-2.56,3.851,3.851,0,0,0-.417-1.667,1.681,1.681,0,0,0-1.27-.873,13.212,13.212,0,0,0-6.608.635A19.538,19.538,0,0,0,9.442-38.24a15.691,15.691,0,0,0-4.306,5.576,10.838,10.838,0,0,0-.754,2.639,9.861,9.861,0,0,0,.04,2.917,7.817,7.817,0,0,0,1.389,3.254,14.871,14.871,0,0,0,3.135,3.215.924.924,0,0,1,.417.675,1,1,0,0,1-.2.774,1,1,0,0,1-.675.4,1.077,1.077,0,0,1-.774-.179,13.476,13.476,0,0,1-5.06-6.747A10.733,10.733,0,0,1,3.271-33.5a17.047,17.047,0,0,1,4.822-6.33,22,22,0,0,1,7.322-4.127,14.867,14.867,0,0,1,7.541-.655,3.5,3.5,0,0,1,2.659,1.865,4.846,4.846,0,0,1,.655,2,10.533,10.533,0,0,1-.119,2.818q-.258,1.647-.556,3.016t-1.052,3.651q-.754,2.282-1.25,3.651T21.8-23.536q-.873,2.262-1.29,3.453l-1.131,3.234q-.714,2.044-1.032,3.294t-.615,2.719A9.71,9.71,0,0,0,17.5-8.395a3.843,3.843,0,0,0,.377,1.568,1.338,1.338,0,0,0,1.111.675A17.08,17.08,0,0,0,30.794-8.812,34.045,34.045,0,0,0,41.529-19.8a39.778,39.778,0,0,0,5.834-13.831q1.389-6.965-.952-10.5a.994.994,0,0,1-.06-1.032.968.968,0,0,1,.873-.6.949.949,0,0,1,.933.476,12.762,12.762,0,0,1,1.786,7.759A32.708,32.708,0,0,1,47.919-28,46.981,46.981,0,0,1,43.275-18.654Zm34.448,4.187a.968.968,0,0,1,.714.337,1.032,1.032,0,0,1,.258.754.968.968,0,0,1-.337.714q-.357.317-.933.814T75.342-10.24a35.877,35.877,0,0,1-3.056,2.024,31.332,31.332,0,0,1-3.651,1.806,19.33,19.33,0,0,1-4.048,1.25A12.782,12.782,0,0,1,60.5-5.1,9.6,9.6,0,0,1,56.57-6.549a8.1,8.1,0,0,1-2.659-2.778,1.008,1.008,0,0,0-.853-.516.928.928,0,0,0-.893.437A17.677,17.677,0,0,1,49.129-5.8a5,5,0,0,1-3.036,1.508h-.04a2.589,2.589,0,0,1-1.33-.456,2.4,2.4,0,0,1-.893-1.091,6.486,6.486,0,0,1,.357-5.794,13.411,13.411,0,0,1,3.671-4.663A13.228,13.228,0,0,1,53.2-18.932a.964.964,0,0,1,1.012.278.961.961,0,0,1,.238,1.012,1.039,1.039,0,0,1-.774.734,11.131,11.131,0,0,0-4.485,2.2,11.183,11.183,0,0,0-3.1,3.949,4.57,4.57,0,0,0-.4,3.969q.238.4.357.4.675.437,2.619-2.461a44.591,44.591,0,0,0,3.492-6.271.948.948,0,0,1,1.111-.6.961.961,0,0,1,.873.873q.04.2.1.536a12.115,12.115,0,0,0,.337,1.23,14.876,14.876,0,0,0,.635,1.687A8.916,8.916,0,0,0,56.253-9.7,5.875,5.875,0,0,0,57.721-8.3a7.508,7.508,0,0,0,3.393,1.191,10.918,10.918,0,0,0,3.612-.2,19.763,19.763,0,0,0,3.631-1.25,26.835,26.835,0,0,0,3.294-1.726q1.389-.873,2.738-1.865t1.845-1.409q.5-.417.734-.655A1.032,1.032,0,0,1,77.724-14.467Zm24.983-.5a1.041,1.041,0,0,1,.734.3.966.966,0,0,1,.317.734,1.03,1.03,0,0,1-.317.754q-.516.476-1.21,1.111t-2.7,2.183a40.254,40.254,0,0,1-3.929,2.7A25.808,25.808,0,0,1,91.078-5.1a14.444,14.444,0,0,1-4.862.933,10.35,10.35,0,0,1-2.857-.4,8.057,8.057,0,0,1-4.306-3.115,15.788,15.788,0,0,1-2.52-6.092,1.062,1.062,0,0,1-.079-.4,32.506,32.506,0,0,1-.476-3.929,44.4,44.4,0,0,1,.476-9.049A35.442,35.442,0,0,1,78.716-35.6q1.548-3.691,3.492-4.524a2.63,2.63,0,0,1,1.746-.119,2.653,2.653,0,0,1,1.468.952,4.01,4.01,0,0,1,.933,2.619,14.126,14.126,0,0,1-.437,4.008q-.536,2.262-1.27,4.6A51.242,51.242,0,0,1,82.8-23.139q-1.111,2.58-1.925,4.366t-1.647,3.492a3.584,3.584,0,0,0-.238,2.659q1.468,5,4.961,6.072a4.891,4.891,0,0,0,2.56.3q1.449-.179,2.7-.437a11.367,11.367,0,0,0,2.7-.972q1.449-.714,2.58-1.33A23.207,23.207,0,0,0,96.873-10.5q1.25-.893,2.044-1.528t1.587-1.33q.794-.695,1.052-.933t.417-.4A1.082,1.082,0,0,1,102.707-14.963ZM78.2-18.694a.446.446,0,0,0,.278.377.3.3,0,0,0,.4-.139,32.3,32.3,0,0,0,2.56-6.052,69.792,69.792,0,0,0,2.342-8.473q.853-4.127.139-4.882a.972.972,0,0,0-.675-.4.749.749,0,0,0-.238.04q-.992.437-2.381,3.83a39.224,39.224,0,0,0-2.2,8A21.677,21.677,0,0,0,78.2-18.694Zm56.058,3.612a.993.993,0,0,1,.695.377,1.027,1.027,0,0,1,.238.774.986.986,0,0,1-.4.714q-.6.476-1.468,1.111t-3.373,2.123a48.579,48.579,0,0,1-4.981,2.6A38.653,38.653,0,0,1,119-5.359a26.37,26.37,0,0,1-6.667.913,20.03,20.03,0,0,1-7.779-1.468,7.791,7.791,0,0,1-2-1.131,5.6,5.6,0,0,1-1.21-1.27,4.443,4.443,0,0,1-.575-1.31,4.287,4.287,0,0,1-.159-1.21,5.525,5.525,0,0,1,.139-1.032,8.544,8.544,0,0,1,2.064-3.691,12.56,12.56,0,0,1,3.631-2.857,7.2,7.2,0,0,1,3.592-.952,2.553,2.553,0,0,1,1.845.754,2.794,2.794,0,0,1,.853,1.865q.2,1.9-2.143,3.453a12.252,12.252,0,0,1-7.382,1.865.43.43,0,0,0-.357.079.3.3,0,0,0-.119.317q-.278,2.024,2.619,3.175a17.038,17.038,0,0,0,5.556,1.25,22.989,22.989,0,0,0,5.556-.3,32.308,32.308,0,0,0,5.278-1.468,38.8,38.8,0,0,0,4.624-2q1.925-1.012,3.731-2.143t2.461-1.607q.655-.476.933-.714A1.061,1.061,0,0,1,134.258-15.082Zm-30.142,1.23q-.516.714.437.635a11.864,11.864,0,0,0,4.247-1.429q.4-.238.675-.4,1.23-.833,1.151-1.508a.877.877,0,0,0-.2-.575.941.941,0,0,0-.516-.179,5.359,5.359,0,0,0-2.957.913A9.5,9.5,0,0,0,104.116-13.852Zm62.825-1.389a.967.967,0,0,1,.734.317,1.041,1.041,0,0,1,.3.734,1.008,1.008,0,0,1-.318.734,25.86,25.86,0,0,1-9.485,5.735,31.039,31.039,0,0,1-10.319,2,9.26,9.26,0,0,1-4.366-.833A5.564,5.564,0,0,1,142.017-7.7,3.045,3.045,0,0,1,141.3-9.07a7.539,7.539,0,0,1-.179-1.33,3.749,3.749,0,0,1,.258-1.369q.278-.774.456-1.191t.5-1.052q.119-.238-.2-.278a.977.977,0,0,0-.437.159,8.732,8.732,0,0,1-4.683,1.072,4.886,4.886,0,0,1-2.183-.437,1.046,1.046,0,0,1-.794-.079.943.943,0,0,1-.556-1.032,4.143,4.143,0,0,1-.833-1.627,5.136,5.136,0,0,1,.079-3.215,5.444,5.444,0,0,1,1.945-2.619q1.667-.992,2.619-.079,1.31,1.23-.873,6.151a.637.637,0,0,0,.119.536.565.565,0,0,0,.476.337,8.612,8.612,0,0,0,4.326-1.151,6.763,6.763,0,0,1,.952-.5,2.456,2.456,0,0,1,.952-.119,1.9,1.9,0,0,1,1.111.417,1.357,1.357,0,0,1,.556,1.032,2.55,2.55,0,0,1-.139,1.091q-.179.456-.575,1.25a6.413,6.413,0,0,0-.972,2.917,2.215,2.215,0,0,0,1.33,1.845,5.747,5.747,0,0,0,2.58.556,20.759,20.759,0,0,0,4.207-.317,37.844,37.844,0,0,0,5-1.191,27.034,27.034,0,0,0,5.239-2.282,21.616,21.616,0,0,0,4.6-3.393A1.107,1.107,0,0,1,166.94-15.241ZM134.6-17.106a16.361,16.361,0,0,0,1.111-3.135A3.122,3.122,0,0,0,134.6-17.106Zm56.375,1.587a1.041,1.041,0,0,1,.734.3.967.967,0,0,1,.317.734,1.107,1.107,0,0,1-.278.754q-.476.476-1.23,1.171T187.756-10.3a41.941,41.941,0,0,1-3.989,2.778,24.926,24.926,0,0,1-4.683,2.163,15.294,15.294,0,0,1-5.08.952,10.408,10.408,0,0,1-6.548-2.143,4.349,4.349,0,0,1-1.587-2.1,6.441,6.441,0,0,1-.437-2.421,10.168,10.168,0,0,1,.4-2.381,17.056,17.056,0,0,1,.575-1.786q.218-.516.377-.833a1.138,1.138,0,0,1,.635-.476.992.992,0,0,1,.774.079,1.04,1.04,0,0,1,.516.6.885.885,0,0,1-.06.754q-.079.2-.258.575a11.66,11.66,0,0,0-.476,1.33,8.822,8.822,0,0,0-.377,1.786,4.872,4.872,0,0,0,.179,1.766,2.565,2.565,0,0,0,.972,1.449,8.5,8.5,0,0,0,3.889,1.568,10.918,10.918,0,0,0,4.108-.179,20.175,20.175,0,0,0,4.048-1.488,28.713,28.713,0,0,0,3.651-2.084q1.568-1.072,3.016-2.262t2.044-1.766q.6-.575.794-.774A1.008,1.008,0,0,1,190.971-15.519Zm-24.626-2.818a.938.938,0,0,1-.992-.794.97.97,0,0,1,.516-1.191,7.16,7.16,0,0,0,1.984-1.468,1.008,1.008,0,0,1,.734-.317,1.041,1.041,0,0,1,.734.3,1.015,1.015,0,0,1,.337.714.94.94,0,0,1-.3.734,9.493,9.493,0,0,1-2.5,1.865A.912.912,0,0,1,166.345-18.337Zm55.979,3.254a.993.993,0,0,1,.695.377,1.027,1.027,0,0,1,.238.774.986.986,0,0,1-.4.714q-.6.476-1.468,1.111t-3.373,2.123a48.581,48.581,0,0,1-4.981,2.6,38.654,38.654,0,0,1-5.973,2.024,26.37,26.37,0,0,1-6.667.913,20.03,20.03,0,0,1-7.779-1.468,7.791,7.791,0,0,1-2-1.131,5.6,5.6,0,0,1-1.21-1.27,4.444,4.444,0,0,1-.575-1.31,4.287,4.287,0,0,1-.159-1.21,5.525,5.525,0,0,1,.139-1.032,8.544,8.544,0,0,1,2.064-3.691,12.56,12.56,0,0,1,3.631-2.857,7.2,7.2,0,0,1,3.592-.952,2.553,2.553,0,0,1,1.845.754,2.794,2.794,0,0,1,.853,1.865q.2,1.9-2.143,3.453a12.252,12.252,0,0,1-7.382,1.865.43.43,0,0,0-.357.079.3.3,0,0,0-.119.317q-.278,2.024,2.619,3.175a17.038,17.038,0,0,0,5.556,1.25,22.989,22.989,0,0,0,5.556-.3A32.308,32.308,0,0,0,209.8-8.375a38.8,38.8,0,0,0,4.624-2q1.925-1.012,3.731-2.143t2.461-1.607q.655-.476.933-.714A1.061,1.061,0,0,1,222.324-15.082Zm-30.142,1.23q-.516.714.437.635a11.864,11.864,0,0,0,4.247-1.429q.4-.238.675-.4,1.23-.833,1.151-1.508a.877.877,0,0,0-.2-.575.941.941,0,0,0-.516-.179,5.359,5.359,0,0,0-2.957.913A9.5,9.5,0,0,0,192.181-13.852Z" transform="translate(-2.192 45.763)" fill="#bb7271"/>
</svg>
