<svg xmlns="http://www.w3.org/2000/svg" xmlns:xlink="http://www.w3.org/1999/xlink" width="1920" height="871.094" viewBox="0 0 1920 871.094">
<style>
  #Group_6483{
  animation: move 20s infinite;
}
@keyframes move {
  0%{
    transform: translate(9908px, 0px);
  }
  50%{
 transform: translate(9908px, -50px);
  }
  100%{
 transform: translate(9908px, 0px);
  }
}
</style>
  <defs>
    <clipPath id="clip-path">
      <rect id="Rectangle_2503" data-name="Rectangle 2503" width="1920" height="755" transform="translate(0 1261)" fill="#f3edeb"/>
    </clipPath>
    <linearGradient id="linear-gradient" x1="0.5" y1="1" x2="0.5" gradientUnits="objectBoundingBox">
      <stop offset="0" stop-color="#fff"/>
      <stop offset="1" stop-color="#fff" stop-opacity="0"/>
    </linearGradient>
    <linearGradient id="linear-gradient-2" x1="0.5" y1="1" x2="0.5" gradientUnits="objectBoundingBox">
      <stop offset="0" stop-color="#f0f4f7"/>
      <stop offset="1" stop-color="#f0f4f7" stop-opacity="0"/>
    </linearGradient>
    <clipPath id="clip-path-2">
      <rect id="Rectangle_2535" data-name="Rectangle 2535" width="1920" height="141" rx="10" transform="translate(-5050 4926)" fill="#fff"/>
    </clipPath>
    <clipPath id="clip-path-3">
      <path id="Path_4329" data-name="Path 4329" d="M58.391,1.992q-16.559,0-25.523-9.4T23.9-33.366V-104.7H10.956a6.218,6.218,0,0,1-4.3-1.618,6.189,6.189,0,0,1-1.805-4.855v-12.2L25.4-126.741l6.474-34.86a6.159,6.159,0,0,1,2.3-3.859,7.3,7.3,0,0,1,4.544-1.369H54.656v40.213H88.271V-104.7H54.656v69.222q0,5.976,2.988,9.338a10.135,10.135,0,0,0,7.968,3.361,14.47,14.47,0,0,0,4.793-.685A26.383,26.383,0,0,0,73.766-24.9q1.432-.747,2.552-1.432a4.267,4.267,0,0,1,2.241-.685,3.519,3.519,0,0,1,2.241.685,10.387,10.387,0,0,1,1.868,2.054l9.213,14.94A46.553,46.553,0,0,1,76.443-.872,57.461,57.461,0,0,1,58.391,1.992ZM165.585-129.729a62.024,62.024,0,0,1,22.223,3.859A48.662,48.662,0,0,1,205.3-114.6a51.474,51.474,0,0,1,11.454,18.177,68.644,68.644,0,0,1,4.108,24.589,44.5,44.5,0,0,1-.311,5.789,9.264,9.264,0,0,1-1.12,3.611,4.535,4.535,0,0,1-2.179,1.868,9.287,9.287,0,0,1-3.486.56H134.833q1.37,19.671,10.583,28.884t24.4,9.213A42.265,42.265,0,0,0,182.7-23.655a60.42,60.42,0,0,0,9.462-3.86q4.046-2.116,7.1-3.859a11.907,11.907,0,0,1,5.914-1.743,6.661,6.661,0,0,1,3.237.747,7.152,7.152,0,0,1,2.366,2.117l8.964,11.2A51.252,51.252,0,0,1,208.289-9.026a64.238,64.238,0,0,1-13.259,6.474A72.47,72.47,0,0,1,180.961.872a100.733,100.733,0,0,1-13.882,1A68.236,68.236,0,0,1,142.3-2.552a55.461,55.461,0,0,1-19.92-13.073,61.333,61.333,0,0,1-13.322-21.414q-4.855-12.761-4.855-29.569A70.709,70.709,0,0,1,108.439-91.2a59.125,59.125,0,0,1,12.139-20.045,57.147,57.147,0,0,1,19.3-13.508A63.564,63.564,0,0,1,165.585-129.729Zm.622,22.036q-13.446,0-21.041,7.595T135.456-78.56h57.768a38.32,38.32,0,0,0-1.618-11.267,25.989,25.989,0,0,0-4.98-9.275,23.569,23.569,0,0,0-8.466-6.287A28.833,28.833,0,0,0,166.208-107.693Zm155.5,4.855a8.205,8.205,0,0,1-2.615,2.8,6.772,6.772,0,0,1-3.486.809,10.983,10.983,0,0,1-4.793-1.245q-2.552-1.245-5.914-2.8a54.162,54.162,0,0,0-7.657-2.8,36.672,36.672,0,0,0-10.147-1.245q-9.088,0-14.318,3.86a11.973,11.973,0,0,0-5.229,10.084,9.618,9.618,0,0,0,2.677,6.91,24.069,24.069,0,0,0,7.1,4.918,69.452,69.452,0,0,0,10.022,3.8q5.6,1.681,11.454,3.673t11.454,4.544a39.937,39.937,0,0,1,10.022,6.474,30.072,30.072,0,0,1,7.1,9.4,29.817,29.817,0,0,1,2.677,13.2,42.4,42.4,0,0,1-3.362,16.994,37.359,37.359,0,0,1-9.836,13.446,46.092,46.092,0,0,1-16,8.84A69.023,69.023,0,0,1,279,1.992,69.552,69.552,0,0,1,266.119.809a76.057,76.057,0,0,1-12.077-3.3,66.831,66.831,0,0,1-10.707-4.98,51.969,51.969,0,0,1-8.653-6.225l7.1-11.7a10.036,10.036,0,0,1,3.237-3.237,9.073,9.073,0,0,1,4.731-1.121,9.945,9.945,0,0,1,5.416,1.618q2.552,1.619,5.914,3.486a52.861,52.861,0,0,0,7.906,3.486A34.786,34.786,0,0,0,280.5-19.547a29.876,29.876,0,0,0,9.4-1.307,19.89,19.89,0,0,0,6.474-3.424,12.853,12.853,0,0,0,3.735-4.918,14.743,14.743,0,0,0,1.183-5.789,10.327,10.327,0,0,0-2.677-7.346,23.429,23.429,0,0,0-7.1-4.98,68.54,68.54,0,0,0-10.085-3.8q-5.665-1.681-11.578-3.673a107.11,107.11,0,0,1-11.579-4.669,39.463,39.463,0,0,1-10.085-6.785,30.708,30.708,0,0,1-7.1-10.085,35.191,35.191,0,0,1-2.677-14.442,36.8,36.8,0,0,1,3.113-14.94,35.043,35.043,0,0,1,9.151-12.388,45.444,45.444,0,0,1,15.064-8.466,62.755,62.755,0,0,1,20.854-3.175,63.838,63.838,0,0,1,24.029,4.357,54.271,54.271,0,0,1,18.052,11.454ZM396.657,1.992q-16.559,0-25.522-9.4T362.17-33.366V-104.7H349.222a6.218,6.218,0,0,1-4.3-1.618,6.189,6.189,0,0,1-1.805-4.855v-12.2l20.543-3.361,6.474-34.86a6.159,6.159,0,0,1,2.3-3.859,7.3,7.3,0,0,1,4.544-1.369h15.936v40.213h33.615V-104.7H392.922v69.222q0,5.976,2.988,9.338a10.135,10.135,0,0,0,7.968,3.361,14.47,14.47,0,0,0,4.793-.685,26.382,26.382,0,0,0,3.361-1.432q1.432-.747,2.552-1.432a4.267,4.267,0,0,1,2.241-.685,3.519,3.519,0,0,1,2.241.685,10.387,10.387,0,0,1,1.867,2.054l9.213,14.94A46.553,46.553,0,0,1,414.709-.872,57.461,57.461,0,0,1,396.657,1.992Zm87.15-129.729V0H453.055V-127.737Zm4.607-37.226a17.522,17.522,0,0,1-1.618,7.47,20.53,20.53,0,0,1-4.3,6.1,20.53,20.53,0,0,1-6.287,4.171,19.291,19.291,0,0,1-7.719,1.556,18.547,18.547,0,0,1-7.532-1.556,19.952,19.952,0,0,1-6.163-4.171,20.166,20.166,0,0,1-4.171-6.1,18.114,18.114,0,0,1-1.556-7.47,19.291,19.291,0,0,1,1.556-7.719,19.757,19.757,0,0,1,4.171-6.225,19.953,19.953,0,0,1,6.163-4.171,18.547,18.547,0,0,1,7.532-1.556,19.291,19.291,0,0,1,7.719,1.556,20.53,20.53,0,0,1,6.287,4.171,20.083,20.083,0,0,1,4.3,6.225A18.653,18.653,0,0,1,488.413-164.963ZM518.542,0V-127.737h18.8q5.976,0,7.844,5.6l1.992,9.462a72.739,72.739,0,0,1,7.034-6.848,45.193,45.193,0,0,1,7.844-5.354,42.483,42.483,0,0,1,8.964-3.548,39.91,39.91,0,0,1,10.52-1.307q12.076,0,19.858,6.536a39.357,39.357,0,0,1,11.641,17.368,38.979,38.979,0,0,1,7.47-10.894,40.832,40.832,0,0,1,9.836-7.408,45.26,45.26,0,0,1,11.392-4.233,54.717,54.717,0,0,1,12.139-1.37,51,51,0,0,1,18.8,3.237,36.061,36.061,0,0,1,13.819,9.462,41.705,41.705,0,0,1,8.528,15.189A66.16,66.16,0,0,1,697.947-81.3V0H667.2V-81.3q0-12.2-5.353-18.364t-15.687-6.163a23.417,23.417,0,0,0-8.777,1.618,20.911,20.911,0,0,0-7.1,4.669,21.315,21.315,0,0,0-4.793,7.657A29.781,29.781,0,0,0,623.745-81.3V0H592.869V-81.3q0-12.823-5.167-18.675t-15.251-5.852a24.618,24.618,0,0,0-12.388,3.3A41.725,41.725,0,0,0,549.294-93.5V0ZM782.732-129.729a70,70,0,0,1,25.958,4.607,55.971,55.971,0,0,1,19.858,13.072,57.869,57.869,0,0,1,12.7,20.667,78.612,78.612,0,0,1,4.482,27.265,79,79,0,0,1-4.482,27.39,59.145,59.145,0,0,1-12.7,20.792,55.167,55.167,0,0,1-19.858,13.2,70,70,0,0,1-25.958,4.607,70.491,70.491,0,0,1-26.021-4.607,55.662,55.662,0,0,1-19.982-13.2,59.4,59.4,0,0,1-12.824-20.792,78.022,78.022,0,0,1-4.544-27.39,77.641,77.641,0,0,1,4.544-27.265,58.121,58.121,0,0,1,12.824-20.667,56.479,56.479,0,0,1,19.982-13.072A70.491,70.491,0,0,1,782.732-129.729Zm0,107.942q15.936,0,23.593-10.707t7.657-31.374q0-20.667-7.657-31.5T782.732-106.2q-16.185,0-23.9,10.894t-7.719,31.436q0,20.542,7.719,31.312T782.732-21.788ZM869.757,0V-127.737h18.8q5.976,0,7.844,5.6l2.116,10.085a70.045,70.045,0,0,1,8.155-7.221,56.938,56.938,0,0,1,9.089-5.6,46.3,46.3,0,0,1,10.271-3.611,53.92,53.92,0,0,1,11.952-1.245,45.8,45.8,0,0,1,18.55,3.548,36.655,36.655,0,0,1,13.508,9.96,43.782,43.782,0,0,1,8.217,15.314,65.078,65.078,0,0,1,2.8,19.609V0H950.308V-81.3q0-11.7-5.416-18.115t-16.247-6.412a32.021,32.021,0,0,0-14.94,3.61,53.543,53.543,0,0,0-13.2,9.836V0Zm174.3-127.737V0h-30.751V-127.737Zm4.607-37.226a17.522,17.522,0,0,1-1.619,7.47,20.529,20.529,0,0,1-4.3,6.1,20.531,20.531,0,0,1-6.287,4.171,19.291,19.291,0,0,1-7.719,1.556,18.547,18.547,0,0,1-7.532-1.556,19.952,19.952,0,0,1-6.163-4.171,20.168,20.168,0,0,1-4.171-6.1,18.115,18.115,0,0,1-1.556-7.47,19.291,19.291,0,0,1,1.556-7.719,19.758,19.758,0,0,1,4.171-6.225,19.953,19.953,0,0,1,6.163-4.171,18.547,18.547,0,0,1,7.532-1.556,19.291,19.291,0,0,1,7.719,1.556,20.531,20.531,0,0,1,6.287,4.171,20.082,20.082,0,0,1,4.3,6.225A18.653,18.653,0,0,1,1048.664-164.963ZM1178.891,0h-13.819a14.885,14.885,0,0,1-6.848-1.307q-2.49-1.307-3.735-5.291l-2.739-9.089a105.474,105.474,0,0,1-9.524,7.657,57.832,57.832,0,0,1-9.649,5.54A49.216,49.216,0,0,1,1121.994.872a63.666,63.666,0,0,1-12.45,1.121A48.906,48.906,0,0,1,1094.6-.194a32.174,32.174,0,0,1-11.765-6.558,29.781,29.781,0,0,1-7.657-10.868,38.666,38.666,0,0,1-2.739-15.114,29.894,29.894,0,0,1,3.8-14.3q3.8-7.058,12.637-12.741t23.53-9.431q14.691-3.748,36.479-3.748v-7.526q0-12.923-5.416-19.132t-15.749-6.209a38.112,38.112,0,0,0-12.45,1.743,48.166,48.166,0,0,0-8.653,3.922q-3.673,2.179-6.785,3.922a13.775,13.775,0,0,1-6.848,1.743,8.9,8.9,0,0,1-5.353-1.618,12.74,12.74,0,0,1-3.611-3.984l-5.6-9.836q22.037-20.169,53.161-20.169a51.362,51.362,0,0,1,19.982,3.673,42.477,42.477,0,0,1,14.878,10.209,43.693,43.693,0,0,1,9.275,15.625,60.043,60.043,0,0,1,3.175,19.92Zm-59.76-19.173a41.422,41.422,0,0,0,8.715-.858,33.371,33.371,0,0,0,7.532-2.574,40.145,40.145,0,0,0,6.848-4.228,61.837,61.837,0,0,0,6.661-5.944V-54.158a124.859,124.859,0,0,0-22.472,1.692,59.375,59.375,0,0,0-14.5,4.326q-5.478,2.634-7.781,6.144a13.665,13.665,0,0,0-2.3,7.648q0,8.151,4.793,11.662T1119.13-19.173Zm122.757-165.834V0h-30.751V-185.007Zm110.556,82.17a8.2,8.2,0,0,1-2.615,2.8,6.772,6.772,0,0,1-3.486.809,10.984,10.984,0,0,1-4.793-1.245q-2.552-1.245-5.914-2.8a54.171,54.171,0,0,0-7.657-2.8,36.672,36.672,0,0,0-10.147-1.245q-9.088,0-14.318,3.86a11.973,11.973,0,0,0-5.229,10.084,9.618,9.618,0,0,0,2.677,6.91,24.067,24.067,0,0,0,7.1,4.918,69.453,69.453,0,0,0,10.022,3.8q5.6,1.681,11.454,3.673t11.454,4.544a39.938,39.938,0,0,1,10.022,6.474,30.072,30.072,0,0,1,7.1,9.4,29.818,29.818,0,0,1,2.677,13.2,42.4,42.4,0,0,1-3.361,16.994,37.358,37.358,0,0,1-9.835,13.446,46.092,46.092,0,0,1-16,8.84,69.023,69.023,0,0,1-21.85,3.175A69.552,69.552,0,0,1,1296.854.809a76.057,76.057,0,0,1-12.077-3.3,66.833,66.833,0,0,1-10.707-4.98,51.97,51.97,0,0,1-8.653-6.225l7.1-11.7a10.036,10.036,0,0,1,3.237-3.237,9.073,9.073,0,0,1,4.731-1.121,9.945,9.945,0,0,1,5.416,1.618q2.552,1.619,5.914,3.486a52.858,52.858,0,0,0,7.906,3.486,34.786,34.786,0,0,0,11.516,1.618,29.876,29.876,0,0,0,9.4-1.307,19.89,19.89,0,0,0,6.474-3.424,12.854,12.854,0,0,0,3.735-4.918,14.744,14.744,0,0,0,1.183-5.789,10.327,10.327,0,0,0-2.677-7.346,23.429,23.429,0,0,0-7.1-4.98,68.536,68.536,0,0,0-10.084-3.8q-5.665-1.681-11.578-3.673a107.107,107.107,0,0,1-11.578-4.669,39.461,39.461,0,0,1-10.084-6.785,30.709,30.709,0,0,1-7.1-10.085,35.19,35.19,0,0,1-2.677-14.442,36.794,36.794,0,0,1,3.113-14.94,35.042,35.042,0,0,1,9.151-12.388,45.444,45.444,0,0,1,15.064-8.466,62.754,62.754,0,0,1,20.854-3.175,63.838,63.838,0,0,1,24.028,4.357,54.272,54.272,0,0,1,18.053,11.454Z" transform="translate(-4774 5116)" fill="#444245"/>
    </clipPath>
    <clipPath id="clip-path-4">
      <rect id="Rectangle_2534" data-name="Rectangle 2534" width="1920" height="938" transform="translate(0 1491)" fill="#f3edeb"/>
    </clipPath>
    <clipPath id="clip-path-5">
      <rect id="Rectangle_2533" data-name="Rectangle 2533" width="1920" height="938" fill="#fff"/>
    </clipPath>
    <linearGradient id="linear-gradient-3" y1="0.397" x2="1.125" y2="0.909" gradientUnits="objectBoundingBox">
      <stop offset="0" stop-color="#3e9d79"/>
      <stop offset="0.615" stop-color="#6ab397"/>
      <stop offset="1" stop-color="#fff"/>
    </linearGradient>
    <linearGradient id="linear-gradient-4" x1="1" y1="1" x2="0" y2="1" gradientUnits="objectBoundingBox">
      <stop offset="0" stop-color="#1ed5c3"/>
      <stop offset="1" stop-color="#bb7271"/>
    </linearGradient>
  </defs>
  <g id="Group_7944" data-name="Group 7944" transform="translate(4735 -3889)">
    <g id="Group_6485" data-name="Group 6485" transform="translate(-4735 -307)">
      <g id="Group_6484" data-name="Group 6484" transform="translate(0 -115)" opacity="0.45">
        <g id="Group_6483" data-name="Group 6483" transform="translate(9908)">
          <g id="Mask_Group_98" data-name="Mask Group 98" transform="translate(-9908 3050)" clip-path="url(#clip-path)">
            <g id="Group_6482" data-name="Group 6482" transform="translate(214.565 -42.628)">
              <g id="Group_6197" data-name="Group 6197" transform="translate(-256.279 2105.589) rotate(-90)">
                <g id="Rectangle_2493" data-name="Rectangle 2493" transform="translate(0 259.331)" fill="none" stroke="#000" stroke-width="3">
                  <rect width="145.025" height="278.905" rx="72.512" stroke="none"/>
                  <rect x="1.5" y="1.5" width="142.025" height="275.905" rx="71.012" fill="none"/>
                </g>
                <g id="Rectangle_2494" data-name="Rectangle 2494" transform="translate(469.461 851.459) rotate(180)" fill="none" stroke="#000" stroke-width="3">
                  <rect width="145.025" height="215.294" rx="72.512" stroke="none"/>
                  <rect x="1.5" y="1.5" width="142.025" height="212.294" rx="71.012" fill="none"/>
                </g>
                <rect id="Rectangle_2495" data-name="Rectangle 2495" width="145.025" height="233.983" rx="72.512" transform="translate(0 557.672)" fill="#bb7271"/>
                <rect id="Rectangle_2496" data-name="Rectangle 2496" width="145.025" height="233.983" rx="72.512" transform="translate(469.461 617.476) rotate(180)" fill="#f0a457"/>
                <path id="Rectangle_2497" data-name="Rectangle 2497" d="M69.148,0h6.728a69.148,69.148,0,0,1,69.148,69.148V138.3a0,0,0,0,1,0,0H69.148A69.148,69.148,0,0,1,0,69.148v0A69.148,69.148,0,0,1,69.148,0Z" transform="translate(0 811.091)" fill="#f0a457"/>
                <path id="Rectangle_2498" data-name="Rectangle 2498" d="M68.775,0H76.25a68.775,68.775,0,0,1,68.775,68.775v68.775a0,0,0,0,1,0,0H68.775A68.775,68.775,0,0,1,0,68.775v0A68.775,68.775,0,0,1,68.775,0Z" transform="translate(469.461 363.309) rotate(180)" fill="#cecece"/>
                <path id="Rectangle_2499" data-name="Rectangle 2499" d="M0,0H72.512a72.512,72.512,0,0,1,72.512,72.512V231.74a72.512,72.512,0,0,1-72.512,72.512h0A72.512,72.512,0,0,1,0,231.74V0A0,0,0,0,1,0,0Z" transform="translate(162.218 323.689)" fill="#1ed5c3"/>
                <path id="Rectangle_2504" data-name="Rectangle 2504" d="M0,0H72.512a72.512,72.512,0,0,1,72.512,72.512V231.74a72.512,72.512,0,0,1-72.512,72.512h0A72.512,72.512,0,0,1,0,231.74V0A0,0,0,0,1,0,0Z" transform="translate(162.218)" fill="#bb7271"/>
                <path id="Rectangle_2500" data-name="Rectangle 2500" d="M71.391,0h2.243a71.391,71.391,0,0,1,71.391,71.391v0a71.391,71.391,0,0,1-71.391,71.391H0a0,0,0,0,1,0,0V71.391A71.391,71.391,0,0,1,71.391,0Z" transform="translate(162.218 648.873)" fill="#1ed5c3"/>
                <path id="Rectangle_2501" data-name="Rectangle 2501" d="M19.436,0h.748A19.436,19.436,0,0,1,39.62,19.436v0A19.436,19.436,0,0,1,20.184,38.873H0a0,0,0,0,1,0,0V19.436A19.436,19.436,0,0,1,19.436,0Z" transform="translate(301.263 613.738)" fill="#bb7271"/>
                <g id="Path_3870" data-name="Path 3870" transform="translate(123.262 770.137)" fill="none">
                  <path d="M22.108,0V21.594H0Z" stroke="none"/>
                  <path d="M 19.10788536071777 7.123831748962402 L 7.364871025085449 18.59375762939453 L 19.10788536071777 18.59375762939453 L 19.10788536071777 7.123831748962402 M 22.10788536071777 -3.814697265625e-06 L 22.10788536071777 21.59375762939453 L -3.814697265625e-06 21.59375762939453 L 22.10788536071777 -3.814697265625e-06 Z" stroke="none" fill="#000"/>
                </g>
                <path id="Rectangle_2502" data-name="Rectangle 2502" d="M0,0H72.512a72.512,72.512,0,0,1,72.512,72.512v47.843a72.512,72.512,0,0,1-72.512,72.512h0A72.512,72.512,0,0,1,0,120.356V0A0,0,0,0,1,0,0Z" transform="translate(162.218 811.091)" fill="#dd3e1f"/>
              </g>
              <g id="Group_6480" data-name="Group 6480" transform="translate(768.911 2105.589) rotate(-90)">
                <g id="Rectangle_2493-2" data-name="Rectangle 2493" transform="translate(0 0)" fill="none" stroke="#000" stroke-width="3">
                  <rect width="145.025" height="538.236" rx="72.512" stroke="none"/>
                  <rect x="1.5" y="1.5" width="142.025" height="535.236" rx="71.012" fill="none"/>
                </g>
                <rect id="Rectangle_2495-2" data-name="Rectangle 2495" width="145.025" height="233.983" rx="72.512" transform="translate(0 557.672)" fill="#bb7271"/>
                <rect id="Rectangle_2496-2" data-name="Rectangle 2496" width="145.025" height="233.983" rx="72.512" transform="translate(469.461 617.476) rotate(180)" fill="#dd3e1f"/>
                <path id="Rectangle_2497-2" data-name="Rectangle 2497" d="M69.148,0h6.728a69.148,69.148,0,0,1,69.148,69.148V138.3a0,0,0,0,1,0,0H69.148A69.148,69.148,0,0,1,0,69.148v0A69.148,69.148,0,0,1,69.148,0Z" transform="translate(134.316 811.091)" fill="#f0a457"/>
                <path id="Rectangle_2498-2" data-name="Rectangle 2498" d="M68.775,0H76.25a68.775,68.775,0,0,1,68.775,68.775v68.775a0,0,0,0,1,0,0H68.775A68.775,68.775,0,0,1,0,68.775v0A68.775,68.775,0,0,1,68.775,0Z" transform="translate(469.461 363.309) rotate(180)" fill="#cecece"/>
                <path id="Rectangle_2499-2" data-name="Rectangle 2499" d="M0,0H72.512a72.512,72.512,0,0,1,72.512,72.512V231.74a72.512,72.512,0,0,1-72.512,72.512h0A72.512,72.512,0,0,1,0,231.74V0A0,0,0,0,1,0,0Z" transform="translate(162.218 323.689)" fill="#1ed5c3"/>
                <path id="Rectangle_2504-2" data-name="Rectangle 2504" d="M0,0H72.512a72.512,72.512,0,0,1,72.512,72.512V231.74a72.512,72.512,0,0,1-72.512,72.512h0A72.512,72.512,0,0,1,0,231.74V0A0,0,0,0,1,0,0Z" transform="translate(162.218)" fill="#bb7271"/>
                <path id="Rectangle_2500-2" data-name="Rectangle 2500" d="M71.391,0h2.243a71.391,71.391,0,0,1,71.391,71.391v0a71.391,71.391,0,0,1-71.391,71.391H0a0,0,0,0,1,0,0V71.391A71.391,71.391,0,0,1,71.391,0Z" transform="translate(162.218 648.873)" fill="#1ed5c3"/>
                <path id="Rectangle_2501-2" data-name="Rectangle 2501" d="M19.436,0h.748A19.436,19.436,0,0,1,39.62,19.436v0A19.436,19.436,0,0,1,20.184,38.873H0a0,0,0,0,1,0,0V19.436A19.436,19.436,0,0,1,19.436,0Z" transform="translate(301.263 613.738)" fill="#bb7271"/>
                <g id="Path_3870-2" data-name="Path 3870" transform="translate(123.262 770.137)" fill="none">
                  <path d="M22.108,0V21.594H0Z" stroke="none"/>
                  <path d="M 19.10788536071777 7.123831748962402 L 7.364871025085449 18.59375762939453 L 19.10788536071777 18.59375762939453 L 19.10788536071777 7.123831748962402 M 22.10788536071777 -3.814697265625e-06 L 22.10788536071777 21.59375762939453 L -3.814697265625e-06 21.59375762939453 L 22.10788536071777 -3.814697265625e-06 Z" stroke="none" fill="#000"/>
                </g>
                <path id="Rectangle_2502-2" data-name="Rectangle 2502" d="M0,0H72.512a72.512,72.512,0,0,1,72.512,72.512v47.843a72.512,72.512,0,0,1-72.512,72.512h0A72.512,72.512,0,0,1,0,120.356V0A0,0,0,0,1,0,0Z" transform="translate(296.534 811.091)" fill="#dd3e1f"/>
              </g>
            </g>
          </g>
        </g>
        <path id="Path_4210" data-name="Path 4210" d="M0,0H1920V668.567H0Z" transform="translate(0 4398.526)" fill="url(#linear-gradient)"/>
      </g>
      <path id="Path_4211" data-name="Path 4211" d="M0,0H1920V417.162H0Z" transform="translate(0 4649.931)" fill="url(#linear-gradient-2)"/>
    </g>
    <g id="Group_6916" data-name="Group 6916" transform="translate(-2090 101)">
      <g id="Mask_Group_116" data-name="Mask Group 116" transform="translate(2405 -408)" clip-path="url(#clip-path-2)">
        <g id="Mask_Group_115" data-name="Mask Group 115" clip-path="url(#clip-path-3)">
          <g id="Mask_Group_110" data-name="Mask Group 110" transform="translate(-5057.592 3148.362)" clip-path="url(#clip-path-4)">
            <g id="Group_6621" data-name="Group 6621" transform="translate(0 1491)">
              <rect id="Rectangle_2527" data-name="Rectangle 2527" width="1920" height="938" fill="#f3edeb"/>
              <g id="Mask_Group_109" data-name="Mask Group 109" opacity="0.7" clip-path="url(#clip-path-5)">
                <g id="Group_6618" data-name="Group 6618" transform="translate(0)">
                  <rect id="Rectangle_2528" data-name="Rectangle 2528" width="1920" height="938" fill="#f3edeb"/>
                  <path id="Union_15" data-name="Union 15" d="M362.966,13.656c0,7.551,5.829,13.665,13.02,13.665a12.452,12.452,0,0,0,4.708-.92l47.472,86.29a14.107,14.107,0,0,0,.342,20.85l-47.815,86.895a12.449,12.449,0,0,0-4.707-.921,13.234,13.234,0,0,0-12.86,11.513H268.177a13.234,13.234,0,0,0-12.862-11.513,12.446,12.446,0,0,0-4.708.921l-47.82-86.892a13.9,13.9,0,0,0,4.779-10.582c0-7.547-5.828-13.662-13.019-13.662s-13.024,6.116-13.024,13.662,5.828,13.665,13.024,13.665a12.455,12.455,0,0,0,4.172-.716l47.923,87.079a14.121,14.121,0,0,0-.085,20.3L198.642,330.37a12.459,12.459,0,0,0-4.145-.707,13.2,13.2,0,0,0-12.761,10.931H86.591a13.2,13.2,0,0,0-12.764-10.931c-7.188,0-13.021,6.116-13.021,13.663s5.833,13.667,13.021,13.667a13.239,13.239,0,0,0,12.864-11.518h94.945A13.238,13.238,0,0,0,194.5,356.992a12.448,12.448,0,0,0,4.713-.923l47.471,86.289a14.1,14.1,0,0,0,.343,20.846L199.211,550.1a12.443,12.443,0,0,0-4.715-.924,13.24,13.24,0,0,0-12.861,11.521H86.648a13.231,13.231,0,0,0-12.854-11.468,12.455,12.455,0,0,0-4.658.9L21.3,463.206a13.892,13.892,0,0,0,4.784-10.576c0-7.545-5.836-13.662-13.028-13.662S.036,445.085.036,452.63s5.834,13.658,13.022,13.658a12.462,12.462,0,0,0,4.174-.717l47.924,87.089a14.1,14.1,0,0,0,.388,20.8l-47.805,86.9a12.454,12.454,0,0,0-4.715-.923C5.833,659.433,0,665.549,0,673.1s5.833,13.658,13.024,13.658,13.021-6.114,13.021-13.658A13.938,13.938,0,0,0,21.7,662.911l47.907-87.083a12.46,12.46,0,0,0,4.182.72,13.2,13.2,0,0,0,12.769-10.973h95.173A13.2,13.2,0,0,0,194.5,576.5a12.463,12.463,0,0,0,4.124-.7l47.857,86.972a13.928,13.928,0,0,0-4.365,10.208c0,7.546,5.827,13.663,13.022,13.663a13.191,13.191,0,0,0,12.74-10.849h95.181A13.2,13.2,0,0,0,375.8,686.647a12.468,12.468,0,0,0,4.621-.884l47.5,86.312a14.106,14.106,0,0,0,.407,20.792L380.509,879.76a12.473,12.473,0,0,0-4.712-.92A13.233,13.233,0,0,0,362.94,890.35H267.991a13.229,13.229,0,0,0-12.856-11.511,12.465,12.465,0,0,0-4.711.92L202.6,792.868a13.906,13.906,0,0,0,4.782-10.581c0-7.547-5.835-13.66-13.026-13.66s-13.021,6.114-13.021,13.66,5.828,13.667,13.021,13.667a12.451,12.451,0,0,0,4.174-.717l47.923,87.076a14.108,14.108,0,0,0,.455,20.784l-47.856,86.941a12.45,12.45,0,0,0-4.706-.92c-7.19,0-13.026,6.116-13.026,13.667s5.836,13.662,13.026,13.662,13.02-6.117,13.02-13.662a13.937,13.937,0,0,0-4.348-10.2l47.963-87.134a12.463,12.463,0,0,0,4.15.708,13.2,13.2,0,0,0,12.757-10.932H363.04A13.2,13.2,0,0,0,375.8,906.164c7.2,0,13.027-6.118,13.027-13.663a13.926,13.926,0,0,0-4.348-10.19l47.913-87.077a12.458,12.458,0,0,0,4.18.719,13.2,13.2,0,0,0,12.757-10.922h95.19a13.2,13.2,0,0,0,12.761,10.93c7.193,0,13.026-6.115,13.026-13.662a13.921,13.921,0,0,0-4.349-10.188l47.907-87.06a12.455,12.455,0,0,0,4.119.7,13.194,13.194,0,0,0,12.761-10.93h95.147a13.2,13.2,0,0,0,12.765,10.93,12.45,12.45,0,0,0,4.612-.882l47.489,86.307a14.095,14.095,0,0,0,.81,21.077l-48.191,87.579a12.455,12.455,0,0,0-4.708-.92A13.231,13.231,0,0,0,725.8,890.421H630.776a13.233,13.233,0,0,0-12.86-11.491c-7.19,0-13.021,6.115-13.021,13.662a13.9,13.9,0,0,0,4.8,10.6l-47.86,86.87a12.456,12.456,0,0,0-4.682-.909c-7.193,0-13.026,6.114-13.026,13.662s5.833,13.658,13.026,13.658a12.456,12.456,0,0,0,4.21-.73l47.914,87.082a13.93,13.93,0,0,0-4.344,10.189c0,7.549,5.828,13.665,13.021,13.665s13.021-6.115,13.021-13.665-5.833-13.663-13.021-13.663a12.46,12.46,0,0,0-4.713.922L565.42,1013.36A14.1,14.1,0,0,0,565.8,992.6l47.96-87.054a12.448,12.448,0,0,0,4.151.709A13.2,13.2,0,0,0,630.684,895.3H725.9a13.2,13.2,0,0,0,12.764,10.932c7.19,0,13.019-6.114,13.019-13.665a13.923,13.923,0,0,0-4.345-10.185l48.379-87.919a12.453,12.453,0,0,0,3.712.563,13.2,13.2,0,0,0,12.762-10.932h95.191a13.2,13.2,0,0,0,12.76,10.928,12.453,12.453,0,0,0,4.174-.717l47.918,87.077a13.935,13.935,0,0,0-4.343,10.188c0,7.547,5.828,13.665,13.018,13.665s13.023-6.118,13.023-13.665-5.833-13.665-13.023-13.665a12.442,12.442,0,0,0-4.709.922l-47.815-86.891a14.105,14.105,0,0,0,.406-20.792L976.7,684.094a12.444,12.444,0,0,0,4.174.718c7.195,0,13.021-6.118,13.021-13.662s-5.827-13.663-13.021-13.663-13.022,6.114-13.022,13.663a13.9,13.9,0,0,0,4.779,10.575L924.818,768.6a12.45,12.45,0,0,0-4.676-.908,13.232,13.232,0,0,0-12.861,11.52h-94.99A13.234,13.234,0,0,0,799.43,767.7a12.448,12.448,0,0,0-4.71.922L747.25,682.348a14.11,14.11,0,0,0,.075-20.45l47.92-87.079a12.458,12.458,0,0,0,4.176.717A13.234,13.234,0,0,0,812.285,564h95a13.234,13.234,0,0,0,12.867,11.53c7.193,0,13.022-6.111,13.022-13.66a13.925,13.925,0,0,0-4.358-10.2l47.934-87.061a12.447,12.447,0,0,0,4.171.716c7.188,0,13.019-6.122,13.019-13.669s-5.831-13.662-13.019-13.662S967.9,444.11,967.9,451.654a13.912,13.912,0,0,0,4.786,10.587l-47.835,86.881a12.461,12.461,0,0,0-4.7-.915A13.2,13.2,0,0,0,907.4,559.114H812.176a13.2,13.2,0,0,0-12.755-10.905,12.454,12.454,0,0,0-4.6.877l-47.495-86.325a13.936,13.936,0,0,0,4.349-10.193c0-7.545-5.834-13.663-13.022-13.663a13.2,13.2,0,0,0-12.765,10.931H630.839a13.2,13.2,0,0,0-12.749-10.868,12.458,12.458,0,0,0-4.6.876l-47.495-86.327a13.935,13.935,0,0,0,4.349-10.192c0-7.547-5.833-13.663-13.023-13.663a13.2,13.2,0,0,0-12.762,10.931H449.413a13.2,13.2,0,0,0-12.764-10.931,12.445,12.445,0,0,0-4.18.72l-47.854-86.976a14.115,14.115,0,0,0,.044-20.419l47.918-87.079a12.461,12.461,0,0,0,4.176.717c7.195,0,13.021-6.114,13.021-13.665S443.948,109.3,436.753,109.3a12.458,12.458,0,0,0-4.6.876l-47.5-86.326a13.933,13.933,0,0,0,4.347-10.193C389.005,6.116,383.176,0,375.986,0S362.966,6.116,362.966,13.656Zm.259,222.249a13.2,13.2,0,0,0,12.761,10.933,12.451,12.451,0,0,0,4.653-.9L428.4,332.752a14.1,14.1,0,0,0-.323,20.861L380.6,439.894a12.451,12.451,0,0,0-4.723-.927,13.236,13.236,0,0,0-12.863,11.526H268.131a13.238,13.238,0,0,0-12.866-11.526,12.453,12.453,0,0,0-4.595.875l-47.5-86.329a14.105,14.105,0,0,0-.459-20.788L250.5,245.875a12.457,12.457,0,0,0,4.811.963A13.2,13.2,0,0,0,268.079,235.9Zm181.234,109.57a13.237,13.237,0,0,0,12.862,11.518,12.446,12.446,0,0,0,4.71-.922L609.5,442.359a14.1,14.1,0,0,0,.343,20.845l-47.812,86.89a12.441,12.441,0,0,0-4.712-.923,13.239,13.239,0,0,0-12.862,11.521H449.513a13.242,13.242,0,0,0-12.864-11.521,12.435,12.435,0,0,0-4.708.922L384.122,463.2a14.1,14.1,0,0,0,.442-20.755l47.5-86.329a12.439,12.439,0,0,0,4.58.871,13.24,13.24,0,0,0,12.864-11.518ZM725.787,454.72a13.236,13.236,0,0,0,12.865,11.515,12.449,12.449,0,0,0,4.707-.921L790.831,551.6a14.1,14.1,0,0,0,.344,20.848l-47.817,86.9a12.46,12.46,0,0,0-4.705-.919,13.23,13.23,0,0,0-12.865,11.507H630.841a13.225,13.225,0,0,0-12.861-11.507,12.462,12.462,0,0,0-4.54.853l-47.45-86.246A14.118,14.118,0,0,0,566,552.649l47.917-87.078a12.469,12.469,0,0,0,4.176.717,13.239,13.239,0,0,0,12.87-11.569Zm-362.666.654a13.2,13.2,0,0,0,12.758,10.914,12.457,12.457,0,0,0,4.174-.717l47.921,87.078a14.105,14.105,0,0,0,.432,20.768l-47.8,86.866a12.467,12.467,0,0,0-4.812-.962,13.239,13.239,0,0,0-12.87,11.6H268a13.234,13.234,0,0,0-12.869-11.6,12.459,12.459,0,0,0-4.686.911L202.7,573.456a14.107,14.107,0,0,0,.481-20.8l47.917-87.08a12.455,12.455,0,0,0,4.171.716,13.2,13.2,0,0,0,12.761-10.914Zm181.438,110.2A13.2,13.2,0,0,0,557.32,576.5a12.457,12.457,0,0,0,4.7-.916l47.419,86.19a14.1,14.1,0,0,0,.342,20.924l-47.795,86.86a12.464,12.464,0,0,0-4.708-.919,13.231,13.231,0,0,0-12.861,11.511H449.432a13.23,13.23,0,0,0-12.862-11.526,12.468,12.468,0,0,0-4.683.909L384.4,683.245a14.114,14.114,0,0,0,.157-20.375l47.916-87.086a12.453,12.453,0,0,0,4.177.719,13.2,13.2,0,0,0,12.763-10.929Z" transform="translate(1979.73 1176.298) rotate(180)" stroke="rgba(0,0,0,0)" stroke-miterlimit="10" stroke-width="1" fill="url(#linear-gradient-3)"/>
                  <rect id="Rectangle_2530" data-name="Rectangle 2530" width="1920" height="938" fill="#fff"/>
                  <g id="Group_6617" data-name="Group 6617" transform="translate(1425.382 360.879)">
                    <g id="Group_6616" data-name="Group 6616" transform="translate(0 0)">
                      <g id="Group_6536" data-name="Group 6536" transform="translate(235.718 357.423)">
                        <g id="Group_6528" data-name="Group 6528" transform="translate(6.712 7.1)">
                          <path id="Path_4269" data-name="Path 4269" d="M886.954,416.52H807.4l-40.21-73.086,40.21-73.074h80.426L927.6,342.644l-2.617,1.585-38.908-70.7H809.143l-38.464,69.9,38.464,69.916h77.811Z" transform="translate(-767.19 -270.359)" fill="#fff"/>
                        </g>
                        <g id="Group_6535" data-name="Group 6535">
                          <g id="Group_6529" data-name="Group 6529" transform="translate(0 71.602)">
                            <path id="Path_4270" data-name="Path 4270" d="M893.309,323.925a8.47,8.47,0,1,1-8.461-8.873A8.676,8.676,0,0,1,893.309,323.925Z" transform="translate(-876.388 -315.052)" fill="#fff"/>
                          </g>
                          <g id="Group_6530" data-name="Group 6530" transform="translate(157.352 71.602)">
                            <path id="Path_4271" data-name="Path 4271" d="M778.916,323.925a8.47,8.47,0,1,1-8.46-8.873A8.676,8.676,0,0,1,778.916,323.925Z" transform="translate(-761.995 -315.052)" fill="#fff"/>
                          </g>
                          <g id="Group_6531" data-name="Group 6531" transform="translate(39.478)">
                            <path id="Path_4272" data-name="Path 4272" d="M864.609,274.316a8.47,8.47,0,1,1-8.46-8.876A8.679,8.679,0,0,1,864.609,274.316Z" transform="translate(-847.688 -265.44)" fill="#fff"/>
                          </g>
                          <g id="Group_6532" data-name="Group 6532" transform="translate(39.478 142.607)">
                            <path id="Path_4273" data-name="Path 4273" d="M864.609,373.129a8.47,8.47,0,1,1-8.46-8.879A8.674,8.674,0,0,1,864.609,373.129Z" transform="translate(-847.688 -364.25)" fill="#fff"/>
                          </g>
                          <g id="Group_6533" data-name="Group 6533" transform="translate(117.873)">
                            <path id="Path_4274" data-name="Path 4274" d="M807.617,274.316a8.47,8.47,0,1,1-8.46-8.876A8.682,8.682,0,0,1,807.617,274.316Z" transform="translate(-790.696 -265.44)" fill="#fff"/>
                          </g>
                          <g id="Group_6534" data-name="Group 6534" transform="translate(117.873 142.607)">
                            <path id="Path_4275" data-name="Path 4275" d="M807.617,373.129a8.47,8.47,0,1,1-8.46-8.879A8.677,8.677,0,0,1,807.617,373.129Z" transform="translate(-790.696 -364.25)" fill="#fff"/>
                          </g>
                        </g>
                      </g>
                      <g id="Group_6545" data-name="Group 6545" transform="translate(353.645 143.256)">
                        <g id="Group_6537" data-name="Group 6537" transform="translate(7.148 7.102)">
                          <path id="Path_4276" data-name="Path 4276" d="M838.819,195.835l-38.906-70.7H722.975l-38.9,70.7-2.615-1.586,39.772-72.281h80.428l39.78,72.281Z" transform="translate(-681.458 -121.968)" fill="#fff"/>
                        </g>
                        <g id="Group_6544" data-name="Group 6544">
                          <g id="Group_6538" data-name="Group 6538" transform="translate(0 71.599)">
                            <path id="Path_4277" data-name="Path 4277" d="M807.577,175.536a8.47,8.47,0,1,1-8.462-8.879A8.675,8.675,0,0,1,807.577,175.536Z" transform="translate(-790.657 -166.657)" fill="#fff"/>
                          </g>
                          <g id="Group_6539" data-name="Group 6539" transform="translate(157.35 71.599)">
                            <path id="Path_4278" data-name="Path 4278" d="M693.187,175.536a8.471,8.471,0,1,1-8.46-8.879A8.673,8.673,0,0,1,693.187,175.536Z" transform="translate(-676.265 -166.657)" fill="#fff"/>
                          </g>
                          <g id="Group_6540" data-name="Group 6540" transform="translate(39.477)">
                            <path id="Path_4279" data-name="Path 4279" d="M778.878,125.923a8.47,8.47,0,1,1-8.457-8.876A8.675,8.675,0,0,1,778.878,125.923Z" transform="translate(-761.958 -117.047)" fill="#fff"/>
                          </g>
                          <g id="Group_6541" data-name="Group 6541" transform="translate(39.477 142.611)">
                            <path id="Path_4280" data-name="Path 4280" d="M778.878,224.736a8.47,8.47,0,1,1-8.457-8.876A8.676,8.676,0,0,1,778.878,224.736Z" transform="translate(-761.958 -215.86)" fill="#fff"/>
                          </g>
                          <g id="Group_6542" data-name="Group 6542" transform="translate(117.873)">
                            <path id="Path_4281" data-name="Path 4281" d="M721.884,125.923a8.468,8.468,0,1,1-8.459-8.876A8.673,8.673,0,0,1,721.884,125.923Z" transform="translate(-704.968 -117.047)" fill="#fff"/>
                          </g>
                          <g id="Group_6543" data-name="Group 6543" transform="translate(117.873 142.611)">
                            <path id="Path_4282" data-name="Path 4282" d="M721.884,224.736a8.468,8.468,0,1,1-8.459-8.876A8.673,8.673,0,0,1,721.884,224.736Z" transform="translate(-704.968 -215.86)" fill="#fff"/>
                          </g>
                        </g>
                      </g>
                      <g id="Group_6549" data-name="Group 6549" transform="translate(477.182 71.609)">
                        <g id="Group_6546" data-name="Group 6546" transform="translate(0 7.899)">
                          <path id="Path_4283" data-name="Path 4283" d="M1.677,81.579l3.059.064L3.059.064,0,0Z" transform="matrix(-0.866, -0.5, 0.5, -0.866, 4.101, 73.068)" fill="#fff"/>
                        </g>
                        <g id="Group_6548" data-name="Group 6548" transform="translate(33.823)">
                          <g id="Group_6547" data-name="Group 6547">
                            <path id="Path_4284" data-name="Path 4284" d="M693.178,76.28a8.47,8.47,0,1,1-8.462-8.876A8.678,8.678,0,0,1,693.178,76.28Z" transform="translate(-676.258 -67.404)" fill="#fff"/>
                          </g>
                        </g>
                      </g>
                      <g id="Group_6554" data-name="Group 6554" transform="translate(0 358.057)">
                        <g id="Group_6550" data-name="Group 6550" transform="translate(5.656 7.898)">
                          <path id="Path_4285" data-name="Path 4285" d="M1.677,81.577l3.058.064L3.058.064,0,0Z" transform="translate(4.1 73.062) rotate(-149.986)" fill="#fff"/>
                        </g>
                        <g id="Group_6553" data-name="Group 6553">
                          <g id="Group_6551" data-name="Group 6551" transform="translate(0 71.595)">
                            <path id="Path_4286" data-name="Path 4286" d="M1064.672,324.366a8.469,8.469,0,1,1-8.461-8.88A8.676,8.676,0,0,1,1064.672,324.366Z" transform="translate(-1047.753 -315.486)" fill="#fff"/>
                          </g>
                          <g id="Group_6552" data-name="Group 6552" transform="translate(39.478)">
                            <path id="Path_4287" data-name="Path 4287" d="M1035.973,274.754a8.47,8.47,0,1,1-8.461-8.875A8.675,8.675,0,0,1,1035.973,274.754Z" transform="translate(-1019.052 -265.879)" fill="#fff"/>
                          </g>
                        </g>
                      </g>
                      <g id="Group_6559" data-name="Group 6559" transform="translate(589.325 285.795)">
                        <g id="Group_6555" data-name="Group 6555" transform="translate(5.667 7.891)">
                          <path id="Path_4288" data-name="Path 4288" d="M1.677,81.581l3.059.064L3.059.064,0,0Z" transform="translate(4.101 73.079) rotate(-150.006)" fill="#fff"/>
                        </g>
                        <g id="Group_6558" data-name="Group 6558">
                          <g id="Group_6556" data-name="Group 6556" transform="translate(0 71.599)">
                            <path id="Path_4289" data-name="Path 4289" d="M636.242,274.3a8.47,8.47,0,1,1-8.461-8.876A8.676,8.676,0,0,1,636.242,274.3Z" transform="translate(-619.321 -265.42)" fill="#fff"/>
                          </g>
                          <g id="Group_6557" data-name="Group 6557" transform="translate(39.479)">
                            <path id="Path_4290" data-name="Path 4290" d="M607.541,224.683a8.47,8.47,0,1,1-8.461-8.873A8.677,8.677,0,0,1,607.541,224.683Z" transform="translate(-590.62 -215.81)" fill="#fff"/>
                          </g>
                        </g>
                      </g>
                      <g id="Group_6564" data-name="Group 6564" transform="translate(235.83 71.596)">
                        <g id="Group_6560" data-name="Group 6560" transform="translate(5.645 7.903)">
                          <path id="Path_4291" data-name="Path 4291" d="M1.678,81.578l3.06.064L3.06.064,0,0Z" transform="matrix(-0.866, -0.5, 0.5, -0.866, 4.102, 73.054)" fill="#fff"/>
                        </g>
                        <g id="Group_6563" data-name="Group 6563">
                          <g id="Group_6561" data-name="Group 6561" transform="translate(0 71.599)">
                            <path id="Path_4292" data-name="Path 4292" d="M893.227,125.882a8.47,8.47,0,1,1-8.46-8.877A8.675,8.675,0,0,1,893.227,125.882Z" transform="translate(-876.307 -117.005)" fill="#fff"/>
                          </g>
                          <g id="Group_6562" data-name="Group 6562" transform="translate(39.478)">
                            <path id="Path_4293" data-name="Path 4293" d="M864.528,76.268a8.471,8.471,0,1,1-8.462-8.873A8.676,8.676,0,0,1,864.528,76.268Z" transform="translate(-847.606 -67.395)" fill="#fff"/>
                          </g>
                        </g>
                      </g>
                      <g id="Group_6568" data-name="Group 6568" transform="translate(235.808)">
                        <g id="Group_6565" data-name="Group 6565" transform="translate(5.813 7.894)">
                          <path id="Path_4294" data-name="Path 4294" d="M.064,3.058,81.646,4.734l-.064-3.058L0,0Z" transform="translate(40.82 73.076) rotate(-119.998)" fill="#fff"/>
                        </g>
                        <g id="Group_6567" data-name="Group 6567" transform="translate(0)">
                          <g id="Group_6566" data-name="Group 6566">
                            <path id="Path_4295" data-name="Path 4295" d="M876.324,26.664a8.469,8.469,0,1,0,16.919,0,8.469,8.469,0,1,0-16.919,0Z" transform="translate(-876.324 -17.787)" fill="#fff"/>
                          </g>
                        </g>
                      </g>
                      <g id="Group_6573" data-name="Group 6573" transform="translate(0.008 143.859)">
                        <g id="Group_6569" data-name="Group 6569" transform="translate(5.812 7.895)">
                          <path id="Path_4296" data-name="Path 4296" d="M.064,3.059l81.58,1.677L81.58,1.677,0,0Z" transform="matrix(-0.5, -0.866, 0.866, -0.5, 40.823, 73.074)" fill="#fff"/>
                        </g>
                        <g id="Group_6572" data-name="Group 6572">
                          <g id="Group_6570" data-name="Group 6570" transform="translate(39.48 71.601)">
                            <path id="Path_4297" data-name="Path 4297" d="M1019.047,175.95a8.469,8.469,0,1,0,8.459-8.874A8.677,8.677,0,0,0,1019.047,175.95Z" transform="translate(-1019.047 -167.076)" fill="#fff"/>
                          </g>
                          <g id="Group_6571" data-name="Group 6571">
                            <path id="Path_4298" data-name="Path 4298" d="M1047.748,126.342a8.469,8.469,0,1,0,8.461-8.877A8.678,8.678,0,0,0,1047.748,126.342Z" transform="translate(-1047.748 -117.465)" fill="#fff"/>
                          </g>
                        </g>
                      </g>
                      <g id="Group_6580" data-name="Group 6580" transform="translate(117.915 286.45)">
                        <g id="Group_6574" data-name="Group 6574" transform="translate(6.711 7.101)">
                          <path id="Path_4299" data-name="Path 4299" d="M1002.149,367.346H922.595l-40.212-73.089,40.212-73.073h79.554v3.172H924.338l-38.464,69.9,38.464,69.916h77.811Z" transform="translate(-882.383 -221.184)" fill="#fff"/>
                        </g>
                        <g id="Group_6579" data-name="Group 6579">
                          <g id="Group_6575" data-name="Group 6575" transform="translate(0 71.601)">
                            <path id="Path_4300" data-name="Path 4300" d="M978.949,274.751a8.47,8.47,0,1,1-8.461-8.876A8.677,8.677,0,0,1,978.949,274.751Z" transform="translate(-962.029 -265.875)" fill="#fff"/>
                          </g>
                          <g id="Group_6576" data-name="Group 6576" transform="translate(39.478)">
                            <path id="Path_4301" data-name="Path 4301" d="M950.25,225.14a8.471,8.471,0,1,1-8.462-8.876A8.672,8.672,0,0,1,950.25,225.14Z" transform="translate(-933.328 -216.264)" fill="#fff"/>
                          </g>
                          <g id="Group_6577" data-name="Group 6577" transform="translate(39.478 142.61)">
                            <path id="Path_4302" data-name="Path 4302" d="M950.25,323.955a8.471,8.471,0,1,1-8.462-8.879A8.677,8.677,0,0,1,950.25,323.955Z" transform="translate(-933.328 -315.076)" fill="#fff"/>
                          </g>
                          <g id="Group_6578" data-name="Group 6578" transform="translate(117.874)">
                            <path id="Path_4303" data-name="Path 4303" d="M893.256,225.14a8.469,8.469,0,1,1-8.458-8.876A8.671,8.671,0,0,1,893.256,225.14Z" transform="translate(-876.338 -216.264)" fill="#fff"/>
                          </g>
                        </g>
                      </g>
                      <g id="Group_6584" data-name="Group 6584" transform="translate(242.456 214.85)">
                        <g id="Group_6581" data-name="Group 6581" transform="translate(0 7.101)">
                          <path id="Path_4304" data-name="Path 4304" d="M806.946,316.941l-39.774-72.293,40.211-73.075h80.425l39.777,72.281-2.615,1.584-38.906-70.7H809.128l-38.465,69.9,38.9,70.706Z" transform="translate(-767.172 -171.573)" fill="#fff"/>
                        </g>
                        <g id="Group_6583" data-name="Group 6583" transform="translate(32.767)">
                          <g id="Group_6582" data-name="Group 6582">
                            <path id="Path_4305" data-name="Path 4305" d="M864.59,175.529a8.471,8.471,0,1,1-8.459-8.876A8.674,8.674,0,0,1,864.59,175.529Z" transform="translate(-847.668 -166.653)" fill="#fff"/>
                          </g>
                        </g>
                      </g>
                      <g id="Group_6588" data-name="Group 6588" transform="translate(125.055 143.211)">
                        <g id="Group_6585" data-name="Group 6585" transform="translate(0 7.102)">
                          <path id="Path_4306" data-name="Path 4306" d="M885.006,195.8l-2.617-1.586,39.772-72.279h79.556v3.17H923.907Z" transform="translate(-882.39 -121.937)" fill="#fff"/>
                        </g>
                        <g id="Group_6587" data-name="Group 6587" transform="translate(32.332)">
                          <g id="Group_6586" data-name="Group 6586">
                            <path id="Path_4307" data-name="Path 4307" d="M950.254,125.893a8.469,8.469,0,1,1-8.461-8.877A8.673,8.673,0,0,1,950.254,125.893Z" transform="translate(-933.335 -117.016)" fill="#fff"/>
                          </g>
                        </g>
                      </g>
                      <g id="Group_6596" data-name="Group 6596" transform="translate(471.428 357.423)">
                        <g id="Group_6589" data-name="Group 6589" transform="translate(6.71 7.1)">
                          <path id="Path_4308" data-name="Path 4308" d="M715.6,416.52H636.042l-40.21-73.086,40.21-73.074h80.43l39.777,72.284-2.616,1.585-38.908-70.7H637.787l-38.463,69.9,38.463,69.916H715.6Z" transform="translate(-595.832 -270.359)" fill="#fff"/>
                        </g>
                        <g id="Group_6595" data-name="Group 6595">
                          <g id="Group_6590" data-name="Group 6590" transform="translate(0 71.602)">
                            <path id="Path_4309" data-name="Path 4309" d="M721.95,323.925a8.47,8.47,0,1,1-8.459-8.873A8.676,8.676,0,0,1,721.95,323.925Z" transform="translate(-705.03 -315.052)" fill="#fff"/>
                          </g>
                          <g id="Group_6591" data-name="Group 6591" transform="translate(157.35 71.602)">
                            <path id="Path_4310" data-name="Path 4310" d="M607.56,323.925a8.471,8.471,0,1,1-8.46-8.873A8.677,8.677,0,0,1,607.56,323.925Z" transform="translate(-590.637 -315.052)" fill="#fff"/>
                          </g>
                          <g id="Group_6592" data-name="Group 6592" transform="translate(39.479)">
                            <path id="Path_4311" data-name="Path 4311" d="M693.249,274.316a8.47,8.47,0,1,1-8.46-8.876A8.68,8.68,0,0,1,693.249,274.316Z" transform="translate(-676.329 -265.44)" fill="#fff"/>
                          </g>
                          <g id="Group_6593" data-name="Group 6593" transform="translate(39.479 142.607)">
                            <path id="Path_4312" data-name="Path 4312" d="M693.249,373.129a8.47,8.47,0,1,1-8.46-8.879A8.675,8.675,0,0,1,693.249,373.129Z" transform="translate(-676.329 -364.25)" fill="#fff"/>
                          </g>
                          <g id="Group_6594" data-name="Group 6594" transform="translate(117.873 142.607)">
                            <path id="Path_4313" data-name="Path 4313" d="M636.259,373.129a8.47,8.47,0,1,1-8.459-8.879A8.676,8.676,0,0,1,636.259,373.129Z" transform="translate(-619.338 -364.25)" fill="#fff"/>
                          </g>
                        </g>
                      </g>
                      <g id="Group_6602" data-name="Group 6602" transform="translate(0.036 215.457)">
                        <g id="Group_6597" data-name="Group 6597" transform="translate(7.144 7.102)">
                          <path id="Path_4314" data-name="Path 4314" d="M941.148,245.864l-2.618-1.587L978.308,172h80.428l39.773,72.283-2.618,1.587-38.9-70.7H980.053Z" transform="translate(-938.53 -171.995)" fill="#fff"/>
                        </g>
                        <g id="Group_6598" data-name="Group 6598" transform="translate(47.795 150.09)">
                          <rect id="Rectangle_2531" data-name="Rectangle 2531" width="78.683" height="3.173" fill="#fff"/>
                        </g>
                        <g id="Group_6601" data-name="Group 6601" transform="translate(0)">
                          <g id="Group_6599" data-name="Group 6599" transform="translate(0 71.602)">
                            <path id="Path_4315" data-name="Path 4315" d="M1047.727,225.562a8.469,8.469,0,1,0,8.459-8.876A8.672,8.672,0,0,0,1047.727,225.562Z" transform="translate(-1047.727 -216.686)" fill="#fff"/>
                          </g>
                          <g id="Group_6600" data-name="Group 6600" transform="translate(117.873)">
                            <path id="Path_4316" data-name="Path 4316" d="M962.035,175.951a8.469,8.469,0,1,0,8.46-8.877A8.675,8.675,0,0,0,962.035,175.951Z" transform="translate(-962.035 -167.074)" fill="#fff"/>
                          </g>
                        </g>
                      </g>
                      <g id="Group_6604" data-name="Group 6604" transform="translate(360.744 292.916)">
                        <g id="Group_6603" data-name="Group 6603">
                          <path id="Path_4317" data-name="Path 4317" d="M838.858,294.613l-38.906-70.7H723.014l-38.9,70.7-2.615-1.586,39.771-72.283H801.7l39.775,72.283Z" transform="translate(-681.498 -220.744)" fill="#fff"/>
                        </g>
                      </g>
                      <g id="Group_6612" data-name="Group 6612" transform="translate(353.525 571.593)">
                        <g id="Group_6605" data-name="Group 6605" transform="translate(6.71 7.102)">
                          <path id="Path_4318" data-name="Path 4318" d="M721.322,564.121l-39.775-72.293,40.21-73.072h80.429l39.777,72.278-2.617,1.585-38.906-70.7H723.5l-38.465,69.9,38.9,70.708Z" transform="translate(-681.547 -418.756)" fill="#fff"/>
                        </g>
                        <g id="Group_6611" data-name="Group 6611">
                          <g id="Group_6606" data-name="Group 6606" transform="translate(0 71.599)">
                            <path id="Path_4319" data-name="Path 4319" d="M807.664,472.322a8.469,8.469,0,1,1-8.46-8.877A8.674,8.674,0,0,1,807.664,472.322Z" transform="translate(-790.745 -463.445)" fill="#fff"/>
                          </g>
                          <g id="Group_6607" data-name="Group 6607" transform="translate(157.352 71.599)">
                            <path id="Path_4320" data-name="Path 4320" d="M693.271,472.322a8.469,8.469,0,1,1-8.461-8.877A8.674,8.674,0,0,1,693.271,472.322Z" transform="translate(-676.352 -463.445)" fill="#fff"/>
                          </g>
                          <g id="Group_6608" data-name="Group 6608" transform="translate(39.479)">
                            <path id="Path_4321" data-name="Path 4321" d="M778.963,422.708a8.468,8.468,0,1,1-8.458-8.873A8.676,8.676,0,0,1,778.963,422.708Z" transform="translate(-762.046 -413.835)" fill="#fff"/>
                          </g>
                          <g id="Group_6609" data-name="Group 6609" transform="translate(39.479 142.611)">
                            <path id="Path_4322" data-name="Path 4322" d="M778.963,521.525a8.468,8.468,0,1,1-8.458-8.877A8.673,8.673,0,0,1,778.963,521.525Z" transform="translate(-762.046 -512.648)" fill="#fff"/>
                          </g>
                          <g id="Group_6610" data-name="Group 6610" transform="translate(117.872)">
                            <path id="Path_4323" data-name="Path 4323" d="M721.973,422.708a8.469,8.469,0,1,1-8.457-8.873A8.674,8.674,0,0,1,721.973,422.708Z" transform="translate(-705.055 -413.835)" fill="#fff"/>
                          </g>
                        </g>
                      </g>
                      <g id="Group_6615" data-name="Group 6615" transform="translate(360.297 436.116)">
                        <g id="Group_6613" data-name="Group 6613" transform="translate(116.975 72.284)">
                          <path id="Path_4324" data-name="Path 4324" d="M1.677,81.592l3.059.064L3.059.064,0,0Z" transform="translate(4.101 73.085) rotate(-150.002)" fill="#fff"/>
                        </g>
                        <g id="Group_6614" data-name="Group 6614" transform="translate(0)">
                          <path id="Path_4325" data-name="Path 4325" d="M750.828,465.334l-39.775-72.293,40.212-73.076H830.82v3.17H753.008l-38.467,69.906,38.9,70.708Z" transform="translate(-711.053 -319.965)" fill="#fff"/>
                        </g>
                      </g>
                    </g>
                  </g>
                </g>
                <g id="Group_6620" data-name="Group 6620" transform="translate(896.5 -538.51)">
                  <g id="Group_6619" data-name="Group 6619" transform="translate(-480 475.765)">
                    <rect id="Rectangle_2532" data-name="Rectangle 2532" width="1113" height="1167.779" rx="556.5" transform="translate(0 0)" stroke="rgba(0,0,0,0)" stroke-miterlimit="10" stroke-width="1" opacity="0.22" fill="url(#linear-gradient-4)"/>
                  </g>
                </g>
              </g>
            </g>
          </g>
        </g>
      </g>
      <rect id="Rectangle_2536" data-name="Rectangle 2536" width="1920" height="129" rx="10" transform="translate(-2645 4530)" fill="url(#linear-gradient-2)"/>
    </g>
  </g>
</svg>
