<svg xmlns="http://www.w3.org/2000/svg" xmlns:xlink="http://www.w3.org/1999/xlink" width="1920" height="2039" viewBox="0 0 1920 2039">
  <defs>
    <clipPath id="clip-path">
      <rect id="Rectangle_2654" data-name="Rectangle 2654" width="1920" height="2039" transform="translate(0 835)" fill="#f3edeb"/>
    </clipPath>
  </defs>
  <g id="Group_7948" data-name="Group 7948" transform="translate(0 -835)">
    <g id="Group_7170" data-name="Group 7170">
      <rect id="Rectangle_2642" data-name="Rectangle 2642" width="1920" height="2039" transform="translate(0 835)" fill="#f3edeb"/>
      <g id="Mask_Group_158" data-name="Mask Group 158" clip-path="url(#clip-path)">
        <g id="Group_6978" data-name="Group 6978" transform="translate(254.279 388.872)" opacity="0.15">
          <g id="Group_6976" data-name="Group 6976" transform="translate(-999.279 2147.128) rotate(-90)">
            <g id="Rectangle_2609" data-name="Rectangle 2609" transform="translate(0 259.331)" fill="none" stroke="#000" stroke-width="3">
              <rect width="145.025" height="278.905" rx="72.512" stroke="none"/>
              <rect x="1.5" y="1.5" width="142.025" height="275.905" rx="71.012" fill="none"/>
            </g>
            <g id="Rectangle_2610" data-name="Rectangle 2610" transform="translate(469.461 851.459) rotate(180)" fill="none" stroke="#000" stroke-width="3">
              <rect width="145.025" height="215.294" rx="72.512" stroke="none"/>
              <rect x="1.5" y="1.5" width="142.025" height="212.294" rx="71.012" fill="none"/>
            </g>
            <rect id="Rectangle_2611" data-name="Rectangle 2611" width="145.025" height="233.983" rx="72.512" transform="translate(0 557.672)" fill="#bb7271"/>
            <rect id="Rectangle_2612" data-name="Rectangle 2612" width="145.025" height="233.983" rx="72.512" transform="translate(469.461 617.476) rotate(180)" fill="#f0a457"/>
            <path id="Rectangle_2613" data-name="Rectangle 2613" d="M69.148,0h6.728a69.148,69.148,0,0,1,69.148,69.148V138.3a0,0,0,0,1,0,0H69.148A69.148,69.148,0,0,1,0,69.148v0A69.148,69.148,0,0,1,69.148,0Z" transform="translate(0 811.091)" fill="#f0a457"/>
            <path id="Rectangle_2614" data-name="Rectangle 2614" d="M68.775,0H76.25a68.775,68.775,0,0,1,68.775,68.775v68.775a0,0,0,0,1,0,0H68.775A68.775,68.775,0,0,1,0,68.775v0A68.775,68.775,0,0,1,68.775,0Z" transform="translate(469.461 363.309) rotate(180)" fill="#cecece"/>
            <path id="Rectangle_2615" data-name="Rectangle 2615" d="M0,0H72.512a72.512,72.512,0,0,1,72.512,72.512V231.74a72.512,72.512,0,0,1-72.512,72.512h0A72.512,72.512,0,0,1,0,231.74V0A0,0,0,0,1,0,0Z" transform="translate(162.218 323.689)" fill="#1ed5c3"/>
            <path id="Rectangle_2616" data-name="Rectangle 2616" d="M0,0H72.512a72.512,72.512,0,0,1,72.512,72.512V231.74a72.512,72.512,0,0,1-72.512,72.512h0A72.512,72.512,0,0,1,0,231.74V0A0,0,0,0,1,0,0Z" transform="translate(162.218)" fill="#bb7271"/>
            <path id="Rectangle_2617" data-name="Rectangle 2617" d="M71.391,0h2.243a71.391,71.391,0,0,1,71.391,71.391v0a71.391,71.391,0,0,1-71.391,71.391H0a0,0,0,0,1,0,0V71.391A71.391,71.391,0,0,1,71.391,0Z" transform="translate(162.218 648.873)" fill="#1ed5c3"/>
            <path id="Rectangle_2618" data-name="Rectangle 2618" d="M19.436,0h.748A19.436,19.436,0,0,1,39.62,19.436v0A19.436,19.436,0,0,1,20.184,38.873H0a0,0,0,0,1,0,0V19.436A19.436,19.436,0,0,1,19.436,0Z" transform="translate(301.263 613.738)" fill="#bb7271"/>
            <g id="Path_4591" data-name="Path 4591" transform="translate(123.262 770.137)" fill="none">
              <path d="M22.108,0V21.594H0Z" stroke="none"/>
              <path d="M 19.10788536071777 7.123831748962402 L 7.364871025085449 18.59375762939453 L 19.10788536071777 18.59375762939453 L 19.10788536071777 7.123831748962402 M 22.10788536071777 -3.814697265625e-06 L 22.10788536071777 21.59375762939453 L -3.814697265625e-06 21.59375762939453 L 22.10788536071777 -3.814697265625e-06 Z" stroke="none" fill="#000"/>
            </g>
            <path id="Rectangle_2619" data-name="Rectangle 2619" d="M0,0H72.512a72.512,72.512,0,0,1,72.512,72.512v47.843a72.512,72.512,0,0,1-72.512,72.512h0A72.512,72.512,0,0,1,0,120.356V0A0,0,0,0,1,0,0Z" transform="translate(162.218 811.091)" fill="#dd3e1f"/>
          </g>
          <g id="Group_6977" data-name="Group 6977" transform="translate(1406.911 1253.589) rotate(-90)">
            <g id="Rectangle_2620" data-name="Rectangle 2620" transform="translate(0 0)" fill="none" stroke="#000" stroke-width="3">
              <rect width="145.025" height="538.236" rx="72.512" stroke="none"/>
              <rect x="1.5" y="1.5" width="142.025" height="535.236" rx="71.012" fill="none"/>
            </g>
            <g id="Rectangle_2621" data-name="Rectangle 2621" transform="translate(469.461 851.459) rotate(180)" fill="none" stroke="#000" stroke-width="3">
              <rect width="145.025" height="215.294" rx="72.512" stroke="none"/>
              <rect x="1.5" y="1.5" width="142.025" height="212.294" rx="71.012" fill="none"/>
            </g>
            <rect id="Rectangle_2622" data-name="Rectangle 2622" width="145.025" height="233.983" rx="72.512" transform="translate(0 557.672)" fill="#bb7271"/>
            <rect id="Rectangle_2623" data-name="Rectangle 2623" width="145.025" height="233.983" rx="72.512" transform="translate(469.461 617.476) rotate(180)" fill="#dd3e1f"/>
            <path id="Rectangle_2624" data-name="Rectangle 2624" d="M69.148,0h6.728a69.148,69.148,0,0,1,69.148,69.148V138.3a0,0,0,0,1,0,0H69.148A69.148,69.148,0,0,1,0,69.148v0A69.148,69.148,0,0,1,69.148,0Z" transform="translate(0 811.091)" fill="#f0a457"/>
            <path id="Rectangle_2625" data-name="Rectangle 2625" d="M68.775,0H76.25a68.775,68.775,0,0,1,68.775,68.775v68.775a0,0,0,0,1,0,0H68.775A68.775,68.775,0,0,1,0,68.775v0A68.775,68.775,0,0,1,68.775,0Z" transform="translate(469.461 363.309) rotate(180)" fill="#cecece"/>
            <path id="Rectangle_2626" data-name="Rectangle 2626" d="M0,0H72.512a72.512,72.512,0,0,1,72.512,72.512V231.74a72.512,72.512,0,0,1-72.512,72.512h0A72.512,72.512,0,0,1,0,231.74V0A0,0,0,0,1,0,0Z" transform="translate(162.218 323.689)" fill="#1ed5c3"/>
            <path id="Rectangle_2627" data-name="Rectangle 2627" d="M0,0H72.512a72.512,72.512,0,0,1,72.512,72.512V231.74a72.512,72.512,0,0,1-72.512,72.512h0A72.512,72.512,0,0,1,0,231.74V0A0,0,0,0,1,0,0Z" transform="translate(162.218)" fill="#bb7271"/>
            <path id="Rectangle_2628" data-name="Rectangle 2628" d="M71.391,0h2.243a71.391,71.391,0,0,1,71.391,71.391v0a71.391,71.391,0,0,1-71.391,71.391H0a0,0,0,0,1,0,0V71.391A71.391,71.391,0,0,1,71.391,0Z" transform="translate(162.218 648.873)" fill="#1ed5c3"/>
            <path id="Rectangle_2629" data-name="Rectangle 2629" d="M19.436,0h.748A19.436,19.436,0,0,1,39.62,19.436v0A19.436,19.436,0,0,1,20.184,38.873H0a0,0,0,0,1,0,0V19.436A19.436,19.436,0,0,1,19.436,0Z" transform="translate(301.263 613.738)" fill="#bb7271"/>
            <g id="Path_4592" data-name="Path 4592" transform="translate(123.262 770.137)" fill="none">
              <path d="M22.108,0V21.594H0Z" stroke="none"/>
              <path d="M 19.10788536071777 7.123831748962402 L 7.364871025085449 18.59375762939453 L 19.10788536071777 18.59375762939453 L 19.10788536071777 7.123831748962402 M 22.10788536071777 -3.814697265625e-06 L 22.10788536071777 21.59375762939453 L -3.814697265625e-06 21.59375762939453 L 22.10788536071777 -3.814697265625e-06 Z" stroke="none" fill="#000"/>
            </g>
            <path id="Rectangle_2630" data-name="Rectangle 2630" d="M0,0H72.512a72.512,72.512,0,0,1,72.512,72.512v47.843a72.512,72.512,0,0,1-72.512,72.512h0A72.512,72.512,0,0,1,0,120.356V0A0,0,0,0,1,0,0Z" transform="translate(162.218 811.091)" fill="#dd3e1f"/>
          </g>
        </g>
      </g>
    </g>
  </g>
</svg>
