<svg xmlns="http://www.w3.org/2000/svg" xmlns:xlink="http://www.w3.org/1999/xlink" width="1920" height="749.073" viewBox="0 0 1920 749.073">
  <defs>
    <clipPath id="clip-path">
      <path id="Path_7863" data-name="Path 7863" d="M0,0H1920V749.073H0Z" transform="translate(0 1243.021)" fill="#f3edeb"/>
    </clipPath>
    <clipPath id="clip-path-2">
      <rect id="Rectangle_2858" data-name="Rectangle 2858" width="1920" height="755" transform="translate(0 1261)" fill="#f3edeb"/>
    </clipPath>
    <linearGradient id="linear-gradient" x1="0.5" y1="1" x2="0.5" gradientUnits="objectBoundingBox">
      <stop offset="0" stop-color="#fff"/>
      <stop offset="1" stop-color="#fff" stop-opacity="0"/>
    </linearGradient>
    <linearGradient id="linear-gradient-2" x1="0.5" y1="1" x2="0.5" gradientUnits="objectBoundingBox">
      <stop offset="0" stop-color="#f4eeec"/>
      <stop offset="1" stop-color="#f3edeb" stop-opacity="0"/>
    </linearGradient>
    <clipPath id="clip-path-3">
      <rect id="Rectangle_2867" data-name="Rectangle 2867" width="1920" height="178" rx="10" transform="translate(-4735 4582)" fill="#fff"/>
    </clipPath>
    <clipPath id="clip-path-4">
      <path id="Path_7862" data-name="Path 7862" d="M.812-119.016H23.548A9.43,9.43,0,0,1,29-117.508a6.473,6.473,0,0,1,2.784,3.828L48.836-50.112Q50.228-44.892,51.1-39.9t1.682,9.976q1.276-4.988,2.726-9.976T58.58-50.112l19.72-63.8a7.185,7.185,0,0,1,2.784-3.828,8.1,8.1,0,0,1,4.872-1.508H98.6a8.685,8.685,0,0,1,5.22,1.508,7.185,7.185,0,0,1,2.784,3.828l19.488,64.96q1.508,4.988,2.726,9.686t2.378,9.454q.812-4.988,1.8-9.976t2.494-10.324L153.12-113.68a6.473,6.473,0,0,1,2.784-3.828,8.819,8.819,0,0,1,5.1-1.508H182.7L145,0H121.916Q118.2,0,116.58-5.1L95.12-73.892q-1.044-3.364-1.914-6.786t-1.45-6.786q-.7,3.48-1.508,6.9t-1.856,6.9L66.7-5.1Q65.076,0,60.436,0H38.512ZM198.824,0V-172.376h28.652v66.236a60.633,60.633,0,0,1,15.312-10.672,44.373,44.373,0,0,1,19.6-4.06,42.668,42.668,0,0,1,17.284,3.306,34.152,34.152,0,0,1,12.586,9.28,40.794,40.794,0,0,1,7.656,14.268,60.636,60.636,0,0,1,2.61,18.27V0H273.876V-75.748q0-10.9-5.046-16.878T253.692-98.6a29.835,29.835,0,0,0-13.92,3.364,49.886,49.886,0,0,0-12.3,9.164V0ZM423.98,0H411.1a13.868,13.868,0,0,1-6.38-1.218q-2.32-1.218-3.48-4.93l-2.552-8.468a98.276,98.276,0,0,1-8.874,7.134,53.879,53.879,0,0,1-8.99,5.162,45.856,45.856,0,0,1-9.86,3.132,59.32,59.32,0,0,1-11.6,1.044A45.566,45.566,0,0,1,345.448-.18a29.978,29.978,0,0,1-10.962-6.11,27.747,27.747,0,0,1-7.134-10.126A36.027,36.027,0,0,1,324.8-30.5a27.853,27.853,0,0,1,3.538-13.327Q331.876-50.4,340.112-55.7t21.924-8.787q13.688-3.492,33.988-3.492v-7.013q0-12.04-5.046-17.826T376.3-98.6a35.511,35.511,0,0,0-11.6,1.624,44.877,44.877,0,0,0-8.062,3.654q-3.422,2.03-6.322,3.654a12.835,12.835,0,0,1-6.38,1.624,8.291,8.291,0,0,1-4.988-1.508,11.871,11.871,0,0,1-3.364-3.712l-5.22-9.164Q350.9-121.22,379.9-121.22a47.856,47.856,0,0,1,18.618,3.422,39.577,39.577,0,0,1,13.862,9.512,40.709,40.709,0,0,1,8.642,14.558,55.943,55.943,0,0,1,2.958,18.56ZM368.3-17.864a38.6,38.6,0,0,0,8.12-.8,31.091,31.091,0,0,0,7.018-2.4A37.4,37.4,0,0,0,389.818-25a57.613,57.613,0,0,0,6.206-5.538V-50.46a116.336,116.336,0,0,0-20.938,1.577,55.321,55.321,0,0,0-13.514,4.031q-5.1,2.454-7.25,5.725A12.732,12.732,0,0,0,352.176-32q0,7.594,4.466,10.866T368.3-17.864ZM491.26,1.856q-15.428,0-23.78-8.758t-8.352-24.186V-97.556H447.064a5.794,5.794,0,0,1-4-1.508,5.767,5.767,0,0,1-1.682-4.524v-11.368l19.14-3.132,6.032-32.48a5.738,5.738,0,0,1,2.146-3.6,6.806,6.806,0,0,1,4.234-1.276H487.78v37.468H519.1v20.416H487.78v64.5q0,5.568,2.784,8.7a9.443,9.443,0,0,0,7.424,3.132,13.482,13.482,0,0,0,4.466-.638,24.582,24.582,0,0,0,3.132-1.334q1.334-.7,2.378-1.334a3.976,3.976,0,0,1,2.088-.638,3.279,3.279,0,0,1,2.088.638,9.68,9.68,0,0,1,1.74,1.914L522.464-8.7A43.374,43.374,0,0,1,508.08-.812,53.538,53.538,0,0,1,491.26,1.856Zm80.968-120.872h22.736a9.43,9.43,0,0,1,5.452,1.508,6.473,6.473,0,0,1,2.784,3.828l17.052,63.568q1.392,5.22,2.262,10.208t1.682,9.976q1.276-4.988,2.726-9.976T630-50.112l19.72-63.8a7.185,7.185,0,0,1,2.784-3.828,8.1,8.1,0,0,1,4.872-1.508h12.644a8.685,8.685,0,0,1,5.22,1.508,7.185,7.185,0,0,1,2.784,3.828l19.488,64.96q1.508,4.988,2.726,9.686t2.378,9.454q.812-4.988,1.8-9.976T706.9-50.112l17.632-63.568a6.473,6.473,0,0,1,2.784-3.828,8.819,8.819,0,0,1,5.1-1.508h21.692L716.416,0H693.332Q689.62,0,688-5.1l-21.46-68.788q-1.044-3.364-1.914-6.786t-1.45-6.786q-.7,3.48-1.508,6.9t-1.856,6.9L638.116-5.1Q636.492,0,631.852,0H609.928Zm247.2-1.856a57.789,57.789,0,0,1,20.706,3.6,45.34,45.34,0,0,1,16.3,10.5A47.959,47.959,0,0,1,867.1-89.842a63.956,63.956,0,0,1,3.828,22.91,41.464,41.464,0,0,1-.29,5.394,8.632,8.632,0,0,1-1.044,3.364,4.225,4.225,0,0,1-2.03,1.74,8.653,8.653,0,0,1-3.248.522H790.772q1.276,18.328,9.86,26.912t22.736,8.584a39.379,39.379,0,0,0,12.006-1.624,56.3,56.3,0,0,0,8.816-3.6q3.77-1.972,6.612-3.6a11.094,11.094,0,0,1,5.51-1.624,6.206,6.206,0,0,1,3.016.7,6.664,6.664,0,0,1,2.2,1.972l8.352,10.44A47.752,47.752,0,0,1,859.212-8.41a59.852,59.852,0,0,1-12.354,6.032A67.522,67.522,0,0,1,833.75.812a93.857,93.857,0,0,1-12.934.928,63.577,63.577,0,0,1-23.084-4.118,51.674,51.674,0,0,1-18.56-12.18A57.145,57.145,0,0,1,766.76-34.51q-4.524-11.89-4.524-27.55a65.881,65.881,0,0,1,3.944-22.91,55.088,55.088,0,0,1,11.31-18.676,53.245,53.245,0,0,1,17.98-12.586A59.224,59.224,0,0,1,819.424-120.872ZM820-100.34q-12.528,0-19.6,7.076T791.352-73.2h53.824a35.7,35.7,0,0,0-1.508-10.5,24.215,24.215,0,0,0-4.64-8.642,21.959,21.959,0,0,0-7.888-5.858A26.864,26.864,0,0,0,820-100.34Zm169.824-20.532a65.223,65.223,0,0,1,24.186,4.292,52.15,52.15,0,0,1,18.5,12.18,53.919,53.919,0,0,1,11.832,19.256,73.245,73.245,0,0,1,4.176,25.4,73.6,73.6,0,0,1-4.176,25.52,55.108,55.108,0,0,1-11.832,19.372,51.4,51.4,0,0,1-18.5,12.3A65.223,65.223,0,0,1,989.828,1.74a65.679,65.679,0,0,1-24.244-4.292,51.861,51.861,0,0,1-18.618-12.3A55.349,55.349,0,0,1,935.018-34.22a72.694,72.694,0,0,1-4.234-25.52,72.339,72.339,0,0,1,4.234-25.4A54.154,54.154,0,0,1,946.966-104.4a52.623,52.623,0,0,1,18.618-12.18A65.679,65.679,0,0,1,989.828-120.872Zm0,100.572q14.848,0,21.982-9.976t7.134-29.232q0-19.256-7.134-29.348T989.828-98.948q-15.08,0-22.272,10.15t-7.192,29.29q0,19.14,7.192,29.174T989.828-20.3ZM1076.016,0V-97.44l-10.324-1.624a10.979,10.979,0,0,1-5.394-2.32,6.07,6.07,0,0,1-2.03-4.872v-11.716h17.748v-8.816a51.469,51.469,0,0,1,3.074-18.328,38.114,38.114,0,0,1,8.816-13.8,38.259,38.259,0,0,1,13.978-8.7,53.7,53.7,0,0,1,18.56-3.016,51.245,51.245,0,0,1,15.312,2.2l-.58,14.384q-.232,3.364-3.132,4.176a25.055,25.055,0,0,1-6.728.812,34.36,34.36,0,0,0-9.106,1.1,15.327,15.327,0,0,0-6.786,3.828,17.35,17.35,0,0,0-4.234,7.192,36.309,36.309,0,0,0-1.45,11.078v7.888h30.972v20.416h-30.044V0Zm81.316,0V-97.44l-10.324-1.624a10.979,10.979,0,0,1-5.394-2.32,6.07,6.07,0,0,1-2.03-4.872v-11.716h17.748v-8.816a51.469,51.469,0,0,1,3.074-18.328,38.114,38.114,0,0,1,8.816-13.8,38.259,38.259,0,0,1,13.978-8.7,53.7,53.7,0,0,1,18.56-3.016,51.245,51.245,0,0,1,15.312,2.2l-.58,14.384q-.232,3.364-3.132,4.176a25.055,25.055,0,0,1-6.728.812,34.361,34.361,0,0,0-9.106,1.1,15.327,15.327,0,0,0-6.786,3.828,17.35,17.35,0,0,0-4.234,7.192,36.309,36.309,0,0,0-1.45,11.078v7.888h30.972v20.416h-30.044V0Zm125.4-120.872a57.789,57.789,0,0,1,20.706,3.6,45.34,45.34,0,0,1,16.3,10.5A47.96,47.96,0,0,1,1330.4-89.842a63.956,63.956,0,0,1,3.828,22.91,41.452,41.452,0,0,1-.29,5.394,8.629,8.629,0,0,1-1.044,3.364,4.225,4.225,0,0,1-2.03,1.74,8.653,8.653,0,0,1-3.248.522h-73.544q1.276,18.328,9.86,26.912t22.736,8.584a39.379,39.379,0,0,0,12.006-1.624,56.3,56.3,0,0,0,8.816-3.6q3.77-1.972,6.612-3.6a11.094,11.094,0,0,1,5.51-1.624,6.206,6.206,0,0,1,3.016.7,6.663,6.663,0,0,1,2.2,1.972l8.352,10.44a47.756,47.756,0,0,1-10.672,9.338,59.851,59.851,0,0,1-12.354,6.032,67.525,67.525,0,0,1-13.108,3.19,93.856,93.856,0,0,1-12.934.928,63.577,63.577,0,0,1-23.084-4.118,51.674,51.674,0,0,1-18.56-12.18,57.145,57.145,0,0,1-12.412-19.952q-4.524-11.89-4.524-27.55a65.883,65.883,0,0,1,3.944-22.91,55.09,55.09,0,0,1,11.31-18.676,53.245,53.245,0,0,1,17.98-12.586A59.224,59.224,0,0,1,1282.728-120.872Zm.58,20.532q-12.528,0-19.6,7.076T1254.656-73.2h53.824a35.7,35.7,0,0,0-1.508-10.5,24.214,24.214,0,0,0-4.64-8.642,21.96,21.96,0,0,0-7.888-5.858A26.864,26.864,0,0,0,1283.308-100.34ZM1357.548,0V-119.016h16.82q4.408,0,6.148,1.624t2.32,5.568l1.74,14.384a56.545,56.545,0,0,1,14.964-17.4,31.489,31.489,0,0,1,19.256-6.38q8.816,0,14.616,4.06L1429.7-95.7a4.431,4.431,0,0,1-1.508,2.958,5.1,5.1,0,0,1-3.132.87,19.534,19.534,0,0,1-4.756-.812,31.831,31.831,0,0,0-8-.812,24.3,24.3,0,0,0-15.312,4.93q-6.38,4.93-10.788,14.442V0Z" transform="translate(-4493 4780)" fill="#444245"/>
    </clipPath>
    <clipPath id="clip-path-5">
      <rect id="Rectangle_2866" data-name="Rectangle 2866" width="1920" height="938" transform="translate(0 1491)" fill="#f3edeb"/>
    </clipPath>
    <clipPath id="clip-path-6">
      <rect id="Rectangle_2865" data-name="Rectangle 2865" width="1920" height="938" fill="#fff"/>
    </clipPath>
    <linearGradient id="linear-gradient-3" y1="0.397" x2="1.125" y2="0.909" gradientUnits="objectBoundingBox">
      <stop offset="0" stop-color="#3e9d79"/>
      <stop offset="0.615" stop-color="#6ab397"/>
      <stop offset="1" stop-color="#fff"/>
    </linearGradient>
    <linearGradient id="linear-gradient-4" x1="1" y1="1" x2="0" y2="1" gradientUnits="objectBoundingBox">
      <stop offset="0" stop-color="#1ed5c3"/>
      <stop offset="1" stop-color="#bb7271"/>
    </linearGradient>
  </defs>
  <g id="Mask_Group_208" data-name="Mask Group 208" transform="translate(0 -1243.021)" clip-path="url(#clip-path)">
    <g id="Group_8095" data-name="Group 8095" transform="translate(5050 -3074)">
      <g id="Group_7960" data-name="Group 7960" transform="translate(-5050)">
        <g id="Group_7959" data-name="Group 7959">
          <g id="Group_7958" data-name="Group 7958" transform="translate(9908)">
            <path id="Path_7743" data-name="Path 7743" d="M0,0H1920V914.093H0Z" transform="translate(-9908 4152)" fill="#f3edeb"/>
            <g id="Mask_Group_203" data-name="Mask Group 203" transform="translate(-9908 3050)" opacity="0.4" clip-path="url(#clip-path-2)">
              <g id="Group_7957" data-name="Group 7957" transform="translate(214.565 -42.628)">
                <g id="Group_7955" data-name="Group 7955" transform="translate(-256.279 2105.589) rotate(-90)">
                  <g id="Rectangle_2836" data-name="Rectangle 2836" transform="translate(0 259.331)" fill="none" stroke="#000" stroke-width="3">
                    <rect width="145.025" height="278.905" rx="72.512" stroke="none"/>
                    <rect x="1.5" y="1.5" width="142.025" height="275.905" rx="71.012" fill="none"/>
                  </g>
                  <g id="Rectangle_2837" data-name="Rectangle 2837" transform="translate(469.461 851.459) rotate(180)" fill="none" stroke="#000" stroke-width="3">
                    <rect width="145.025" height="215.294" rx="72.512" stroke="none"/>
                    <rect x="1.5" y="1.5" width="142.025" height="212.294" rx="71.012" fill="none"/>
                  </g>
                  <rect id="Rectangle_2838" data-name="Rectangle 2838" width="145.025" height="233.983" rx="72.512" transform="translate(0 557.672)" fill="#bb7271"/>
                  <rect id="Rectangle_2839" data-name="Rectangle 2839" width="145.025" height="233.983" rx="72.512" transform="translate(469.461 617.476) rotate(180)" fill="#f0a457"/>
                  <path id="Rectangle_2840" data-name="Rectangle 2840" d="M69.148,0h6.728a69.148,69.148,0,0,1,69.148,69.148V138.3a0,0,0,0,1,0,0H69.148A69.148,69.148,0,0,1,0,69.148v0A69.148,69.148,0,0,1,69.148,0Z" transform="translate(0 811.091)" fill="#f0a457"/>
                  <path id="Rectangle_2841" data-name="Rectangle 2841" d="M68.775,0H76.25a68.775,68.775,0,0,1,68.775,68.775v68.775a0,0,0,0,1,0,0H68.775A68.775,68.775,0,0,1,0,68.775v0A68.775,68.775,0,0,1,68.775,0Z" transform="translate(469.461 363.309) rotate(180)" fill="#cecece"/>
                  <path id="Rectangle_2842" data-name="Rectangle 2842" d="M0,0H72.512a72.512,72.512,0,0,1,72.512,72.512V231.74a72.512,72.512,0,0,1-72.512,72.512h0A72.512,72.512,0,0,1,0,231.74V0A0,0,0,0,1,0,0Z" transform="translate(162.218 323.689)" fill="#1ed5c3"/>
                  <path id="Rectangle_2843" data-name="Rectangle 2843" d="M0,0H72.512a72.512,72.512,0,0,1,72.512,72.512V231.74a72.512,72.512,0,0,1-72.512,72.512h0A72.512,72.512,0,0,1,0,231.74V0A0,0,0,0,1,0,0Z" transform="translate(162.218)" fill="#bb7271"/>
                  <path id="Rectangle_2844" data-name="Rectangle 2844" d="M71.391,0h2.243a71.391,71.391,0,0,1,71.391,71.391v0a71.391,71.391,0,0,1-71.391,71.391H0a0,0,0,0,1,0,0V71.391A71.391,71.391,0,0,1,71.391,0Z" transform="translate(162.218 648.873)" fill="#1ed5c3"/>
                  <path id="Rectangle_2845" data-name="Rectangle 2845" d="M19.436,0h.748A19.436,19.436,0,0,1,39.62,19.436v0A19.436,19.436,0,0,1,20.184,38.873H0a0,0,0,0,1,0,0V19.436A19.436,19.436,0,0,1,19.436,0Z" transform="translate(301.263 613.738)" fill="#bb7271"/>
                  <g id="Path_7744" data-name="Path 7744" transform="translate(123.262 770.137)" fill="none">
                    <path d="M22.108,0V21.594H0Z" stroke="none"/>
                    <path d="M 19.10788536071777 7.123831748962402 L 7.364871025085449 18.59375762939453 L 19.10788536071777 18.59375762939453 L 19.10788536071777 7.123831748962402 M 22.10788536071777 -3.814697265625e-06 L 22.10788536071777 21.59375762939453 L -3.814697265625e-06 21.59375762939453 L 22.10788536071777 -3.814697265625e-06 Z" stroke="none" fill="#000"/>
                  </g>
                  <path id="Rectangle_2846" data-name="Rectangle 2846" d="M0,0H72.512a72.512,72.512,0,0,1,72.512,72.512v47.843a72.512,72.512,0,0,1-72.512,72.512h0A72.512,72.512,0,0,1,0,120.356V0A0,0,0,0,1,0,0Z" transform="translate(162.218 811.091)" fill="#dd3e1f"/>
                </g>
                <g id="Group_7956" data-name="Group 7956" transform="translate(768.911 2105.589) rotate(-90)">
                  <g id="Rectangle_2847" data-name="Rectangle 2847" transform="translate(0 0)" fill="none" stroke="#000" stroke-width="3">
                    <rect width="145.025" height="538.236" rx="72.512" stroke="none"/>
                    <rect x="1.5" y="1.5" width="142.025" height="535.236" rx="71.012" fill="none"/>
                  </g>
                  <g id="Rectangle_2848" data-name="Rectangle 2848" transform="translate(469.461 851.459) rotate(180)" fill="none" stroke="#000" stroke-width="3">
                    <rect width="145.025" height="215.294" rx="72.512" stroke="none"/>
                    <rect x="1.5" y="1.5" width="142.025" height="212.294" rx="71.012" fill="none"/>
                  </g>
                  <rect id="Rectangle_2849" data-name="Rectangle 2849" width="145.025" height="233.983" rx="72.512" transform="translate(0 557.672)" fill="#bb7271"/>
                  <rect id="Rectangle_2850" data-name="Rectangle 2850" width="145.025" height="233.983" rx="72.512" transform="translate(469.461 617.476) rotate(180)" fill="#dd3e1f"/>
                  <path id="Rectangle_2851" data-name="Rectangle 2851" d="M69.148,0h6.728a69.148,69.148,0,0,1,69.148,69.148V138.3a0,0,0,0,1,0,0H69.148A69.148,69.148,0,0,1,0,69.148v0A69.148,69.148,0,0,1,69.148,0Z" transform="translate(0 811.091)" fill="#f0a457"/>
                  <path id="Rectangle_2852" data-name="Rectangle 2852" d="M68.775,0H76.25a68.775,68.775,0,0,1,68.775,68.775v68.775a0,0,0,0,1,0,0H68.775A68.775,68.775,0,0,1,0,68.775v0A68.775,68.775,0,0,1,68.775,0Z" transform="translate(469.461 363.309) rotate(180)" fill="#cecece"/>
                  <path id="Rectangle_2853" data-name="Rectangle 2853" d="M0,0H72.512a72.512,72.512,0,0,1,72.512,72.512V231.74a72.512,72.512,0,0,1-72.512,72.512h0A72.512,72.512,0,0,1,0,231.74V0A0,0,0,0,1,0,0Z" transform="translate(162.218 323.689)" fill="#1ed5c3"/>
                  <path id="Rectangle_2854" data-name="Rectangle 2854" d="M0,0H72.512a72.512,72.512,0,0,1,72.512,72.512V231.74a72.512,72.512,0,0,1-72.512,72.512h0A72.512,72.512,0,0,1,0,231.74V0A0,0,0,0,1,0,0Z" transform="translate(162.218)" fill="#bb7271"/>
                  <path id="Rectangle_2855" data-name="Rectangle 2855" d="M71.391,0h2.243a71.391,71.391,0,0,1,71.391,71.391v0a71.391,71.391,0,0,1-71.391,71.391H0a0,0,0,0,1,0,0V71.391A71.391,71.391,0,0,1,71.391,0Z" transform="translate(162.218 648.873)" fill="#1ed5c3"/>
                  <path id="Rectangle_2856" data-name="Rectangle 2856" d="M19.436,0h.748A19.436,19.436,0,0,1,39.62,19.436v0A19.436,19.436,0,0,1,20.184,38.873H0a0,0,0,0,1,0,0V19.436A19.436,19.436,0,0,1,19.436,0Z" transform="translate(301.263 613.738)" fill="#bb7271"/>
                  <g id="Path_7745" data-name="Path 7745" transform="translate(123.262 770.137)" fill="none">
                    <path d="M22.108,0V21.594H0Z" stroke="none"/>
                    <path d="M 19.10788536071777 7.123831748962402 L 7.364871025085449 18.59375762939453 L 19.10788536071777 18.59375762939453 L 19.10788536071777 7.123831748962402 M 22.10788536071777 -3.814697265625e-06 L 22.10788536071777 21.59375762939453 L -3.814697265625e-06 21.59375762939453 L 22.10788536071777 -3.814697265625e-06 Z" stroke="none" fill="#000"/>
                  </g>
                  <path id="Rectangle_2857" data-name="Rectangle 2857" d="M0,0H72.512a72.512,72.512,0,0,1,72.512,72.512v47.843a72.512,72.512,0,0,1-72.512,72.512h0A72.512,72.512,0,0,1,0,120.356V0A0,0,0,0,1,0,0Z" transform="translate(162.218 811.091)" fill="#dd3e1f"/>
                </g>
              </g>
            </g>
          </g>
          <path id="Path_7746" data-name="Path 7746" d="M0,0H1920V668.567H0Z" transform="translate(0 4398.526)" fill="url(#linear-gradient)"/>
        </g>
        <path id="Path_7747" data-name="Path 7747" d="M0,0H1920V417.162H0Z" transform="translate(0 4649.931)" fill="url(#linear-gradient-2)"/>
      </g>
      <g id="Mask_Group_207" data-name="Mask Group 207" transform="translate(-315 306.5)" clip-path="url(#clip-path-3)">
        <g id="Mask_Group_206" data-name="Mask Group 206" clip-path="url(#clip-path-4)">
          <g id="Mask_Group_205" data-name="Mask Group 205" transform="translate(-4742.592 2841.362)" clip-path="url(#clip-path-5)">
            <g id="Group_8094" data-name="Group 8094" transform="translate(0 1491)">
              <rect id="Rectangle_2859" data-name="Rectangle 2859" width="1920" height="938" fill="#f3edeb"/>
              <g id="Mask_Group_204" data-name="Mask Group 204" opacity="0.7" clip-path="url(#clip-path-6)">
                <g id="Group_8091" data-name="Group 8091" transform="translate(0)">
                  <rect id="Rectangle_2860" data-name="Rectangle 2860" width="1920" height="938" fill="#f3edeb"/>
                  <path id="Union_25" data-name="Union 25" d="M362.966,13.656c0,7.551,5.829,13.665,13.02,13.665a12.452,12.452,0,0,0,4.708-.92l47.472,86.29a14.107,14.107,0,0,0,.342,20.85l-47.815,86.895a12.449,12.449,0,0,0-4.707-.921,13.234,13.234,0,0,0-12.86,11.513H268.177a13.234,13.234,0,0,0-12.862-11.513,12.446,12.446,0,0,0-4.708.921l-47.82-86.892a13.9,13.9,0,0,0,4.779-10.582c0-7.547-5.828-13.662-13.019-13.662s-13.024,6.116-13.024,13.662,5.828,13.665,13.024,13.665a12.455,12.455,0,0,0,4.172-.716l47.923,87.079a14.121,14.121,0,0,0-.085,20.3L198.642,330.37a12.459,12.459,0,0,0-4.145-.707,13.2,13.2,0,0,0-12.761,10.931H86.591a13.2,13.2,0,0,0-12.764-10.931c-7.188,0-13.021,6.116-13.021,13.663s5.833,13.667,13.021,13.667a13.239,13.239,0,0,0,12.864-11.518h94.945A13.238,13.238,0,0,0,194.5,356.992a12.448,12.448,0,0,0,4.713-.923l47.471,86.289a14.1,14.1,0,0,0,.343,20.846L199.211,550.1a12.443,12.443,0,0,0-4.715-.924,13.24,13.24,0,0,0-12.861,11.521H86.648a13.231,13.231,0,0,0-12.854-11.468,12.455,12.455,0,0,0-4.658.9L21.3,463.206a13.892,13.892,0,0,0,4.784-10.576c0-7.545-5.836-13.662-13.028-13.662S.036,445.085.036,452.63s5.834,13.658,13.022,13.658a12.462,12.462,0,0,0,4.174-.717l47.924,87.089a14.1,14.1,0,0,0,.388,20.8l-47.805,86.9a12.454,12.454,0,0,0-4.715-.923C5.833,659.433,0,665.549,0,673.1s5.833,13.658,13.024,13.658,13.021-6.114,13.021-13.658A13.938,13.938,0,0,0,21.7,662.911l47.907-87.083a12.46,12.46,0,0,0,4.182.72,13.2,13.2,0,0,0,12.769-10.973h95.173A13.2,13.2,0,0,0,194.5,576.5a12.463,12.463,0,0,0,4.124-.7l47.857,86.972a13.928,13.928,0,0,0-4.365,10.208c0,7.546,5.827,13.663,13.022,13.663a13.191,13.191,0,0,0,12.74-10.849h95.181A13.2,13.2,0,0,0,375.8,686.647a12.468,12.468,0,0,0,4.621-.884l47.5,86.312a14.106,14.106,0,0,0,.407,20.792L380.509,879.76a12.473,12.473,0,0,0-4.712-.92A13.233,13.233,0,0,0,362.94,890.35H267.991a13.229,13.229,0,0,0-12.856-11.511,12.465,12.465,0,0,0-4.711.92L202.6,792.868a13.906,13.906,0,0,0,4.782-10.581c0-7.547-5.835-13.66-13.026-13.66s-13.021,6.114-13.021,13.66,5.828,13.667,13.021,13.667a12.451,12.451,0,0,0,4.174-.717l47.923,87.076a14.108,14.108,0,0,0,.455,20.784l-47.856,86.941a12.45,12.45,0,0,0-4.706-.92c-7.19,0-13.026,6.116-13.026,13.667s5.836,13.662,13.026,13.662,13.02-6.117,13.02-13.662a13.937,13.937,0,0,0-4.348-10.2l47.963-87.134a12.463,12.463,0,0,0,4.15.708,13.2,13.2,0,0,0,12.757-10.932H363.04A13.2,13.2,0,0,0,375.8,906.164c7.2,0,13.027-6.118,13.027-13.663a13.926,13.926,0,0,0-4.348-10.19l47.913-87.077a12.458,12.458,0,0,0,4.18.719,13.2,13.2,0,0,0,12.757-10.922h95.19a13.2,13.2,0,0,0,12.761,10.93c7.193,0,13.026-6.115,13.026-13.662a13.921,13.921,0,0,0-4.349-10.188l47.907-87.06a12.455,12.455,0,0,0,4.119.7,13.194,13.194,0,0,0,12.761-10.93h95.147a13.2,13.2,0,0,0,12.765,10.93,12.45,12.45,0,0,0,4.612-.882l47.489,86.307a14.095,14.095,0,0,0,.81,21.077l-48.191,87.579a12.455,12.455,0,0,0-4.708-.92A13.231,13.231,0,0,0,725.8,890.421H630.776a13.233,13.233,0,0,0-12.86-11.491c-7.19,0-13.021,6.115-13.021,13.662a13.9,13.9,0,0,0,4.8,10.6l-47.86,86.87a12.456,12.456,0,0,0-4.682-.909c-7.193,0-13.026,6.114-13.026,13.662s5.833,13.658,13.026,13.658a12.456,12.456,0,0,0,4.21-.73l47.914,87.082a13.93,13.93,0,0,0-4.344,10.189c0,7.549,5.828,13.665,13.021,13.665s13.021-6.115,13.021-13.665-5.833-13.663-13.021-13.663a12.46,12.46,0,0,0-4.713.922L565.42,1013.36A14.1,14.1,0,0,0,565.8,992.6l47.96-87.054a12.448,12.448,0,0,0,4.151.709A13.2,13.2,0,0,0,630.684,895.3H725.9a13.2,13.2,0,0,0,12.764,10.932c7.19,0,13.019-6.114,13.019-13.665a13.923,13.923,0,0,0-4.345-10.185l48.379-87.919a12.453,12.453,0,0,0,3.712.563,13.2,13.2,0,0,0,12.762-10.932h95.191a13.2,13.2,0,0,0,12.76,10.928,12.453,12.453,0,0,0,4.174-.717l47.918,87.077a13.935,13.935,0,0,0-4.343,10.188c0,7.547,5.828,13.665,13.018,13.665s13.023-6.118,13.023-13.665-5.833-13.665-13.023-13.665a12.442,12.442,0,0,0-4.709.922l-47.815-86.891a14.105,14.105,0,0,0,.406-20.792L976.7,684.094a12.444,12.444,0,0,0,4.174.718c7.195,0,13.021-6.118,13.021-13.662s-5.827-13.663-13.021-13.663-13.022,6.114-13.022,13.663a13.9,13.9,0,0,0,4.779,10.575L924.818,768.6a12.45,12.45,0,0,0-4.676-.908,13.232,13.232,0,0,0-12.861,11.52h-94.99A13.234,13.234,0,0,0,799.43,767.7a12.448,12.448,0,0,0-4.71.922L747.25,682.348a14.11,14.11,0,0,0,.075-20.45l47.92-87.079a12.458,12.458,0,0,0,4.176.717A13.234,13.234,0,0,0,812.285,564h95a13.234,13.234,0,0,0,12.867,11.53c7.193,0,13.022-6.111,13.022-13.66a13.925,13.925,0,0,0-4.358-10.2l47.934-87.061a12.447,12.447,0,0,0,4.171.716c7.188,0,13.019-6.122,13.019-13.669s-5.831-13.662-13.019-13.662S967.9,444.11,967.9,451.654a13.912,13.912,0,0,0,4.786,10.587l-47.835,86.881a12.461,12.461,0,0,0-4.7-.915A13.2,13.2,0,0,0,907.4,559.114H812.176a13.2,13.2,0,0,0-12.755-10.905,12.454,12.454,0,0,0-4.6.877l-47.495-86.325a13.936,13.936,0,0,0,4.349-10.193c0-7.545-5.834-13.663-13.022-13.663a13.2,13.2,0,0,0-12.765,10.931H630.839a13.2,13.2,0,0,0-12.749-10.868,12.458,12.458,0,0,0-4.6.876l-47.495-86.327a13.935,13.935,0,0,0,4.349-10.192c0-7.547-5.833-13.663-13.023-13.663a13.2,13.2,0,0,0-12.762,10.931H449.413a13.2,13.2,0,0,0-12.764-10.931,12.445,12.445,0,0,0-4.18.72l-47.854-86.976a14.115,14.115,0,0,0,.044-20.419l47.918-87.079a12.461,12.461,0,0,0,4.176.717c7.195,0,13.021-6.114,13.021-13.665S443.948,109.3,436.753,109.3a12.458,12.458,0,0,0-4.6.876l-47.5-86.326a13.933,13.933,0,0,0,4.347-10.193C389.005,6.116,383.176,0,375.986,0S362.966,6.116,362.966,13.656Zm.259,222.249a13.2,13.2,0,0,0,12.761,10.933,12.451,12.451,0,0,0,4.653-.9L428.4,332.752a14.1,14.1,0,0,0-.323,20.861L380.6,439.894a12.451,12.451,0,0,0-4.723-.927,13.236,13.236,0,0,0-12.863,11.526H268.131a13.238,13.238,0,0,0-12.866-11.526,12.453,12.453,0,0,0-4.595.875l-47.5-86.329a14.105,14.105,0,0,0-.459-20.788L250.5,245.875a12.457,12.457,0,0,0,4.811.963A13.2,13.2,0,0,0,268.079,235.9Zm181.234,109.57a13.237,13.237,0,0,0,12.862,11.518,12.446,12.446,0,0,0,4.71-.922L609.5,442.359a14.1,14.1,0,0,0,.343,20.845l-47.812,86.89a12.441,12.441,0,0,0-4.712-.923,13.239,13.239,0,0,0-12.862,11.521H449.513a13.242,13.242,0,0,0-12.864-11.521,12.435,12.435,0,0,0-4.708.922L384.122,463.2a14.1,14.1,0,0,0,.442-20.755l47.5-86.329a12.439,12.439,0,0,0,4.58.871,13.24,13.24,0,0,0,12.864-11.518ZM725.787,454.72a13.236,13.236,0,0,0,12.865,11.515,12.449,12.449,0,0,0,4.707-.921L790.831,551.6a14.1,14.1,0,0,0,.344,20.848l-47.817,86.9a12.46,12.46,0,0,0-4.705-.919,13.23,13.23,0,0,0-12.865,11.507H630.841a13.225,13.225,0,0,0-12.861-11.507,12.462,12.462,0,0,0-4.54.853l-47.45-86.246A14.118,14.118,0,0,0,566,552.649l47.917-87.078a12.469,12.469,0,0,0,4.176.717,13.239,13.239,0,0,0,12.87-11.569Zm-362.666.654a13.2,13.2,0,0,0,12.758,10.914,12.457,12.457,0,0,0,4.174-.717l47.921,87.078a14.105,14.105,0,0,0,.432,20.768l-47.8,86.866a12.467,12.467,0,0,0-4.812-.962,13.239,13.239,0,0,0-12.87,11.6H268a13.234,13.234,0,0,0-12.869-11.6,12.459,12.459,0,0,0-4.686.911L202.7,573.456a14.107,14.107,0,0,0,.481-20.8l47.917-87.08a12.455,12.455,0,0,0,4.171.716,13.2,13.2,0,0,0,12.761-10.914Zm181.438,110.2A13.2,13.2,0,0,0,557.32,576.5a12.457,12.457,0,0,0,4.7-.916l47.419,86.19a14.1,14.1,0,0,0,.342,20.924l-47.795,86.86a12.464,12.464,0,0,0-4.708-.919,13.231,13.231,0,0,0-12.861,11.511H449.432a13.23,13.23,0,0,0-12.862-11.526,12.468,12.468,0,0,0-4.683.909L384.4,683.245a14.114,14.114,0,0,0,.157-20.375l47.916-87.086a12.453,12.453,0,0,0,4.177.719,13.2,13.2,0,0,0,12.763-10.929Z" transform="translate(1979.73 1176.298) rotate(180)" stroke="rgba(0,0,0,0)" stroke-miterlimit="10" stroke-width="1" fill="url(#linear-gradient-3)"/>
                  <rect id="Rectangle_2862" data-name="Rectangle 2862" width="1920" height="938" fill="#fff"/>
                  <g id="Group_8090" data-name="Group 8090" transform="translate(1425.382 360.879)">
                    <g id="Group_8089" data-name="Group 8089" transform="translate(0 0)">
                      <g id="Group_8009" data-name="Group 8009" transform="translate(235.718 357.423)">
                        <g id="Group_8001" data-name="Group 8001" transform="translate(6.712 7.1)">
                          <path id="Path_7805" data-name="Path 7805" d="M886.954,416.52H807.4l-40.21-73.086,40.21-73.074h80.426L927.6,342.644l-2.617,1.585-38.908-70.7H809.143l-38.464,69.9,38.464,69.916h77.811Z" transform="translate(-767.19 -270.359)" fill="#fff"/>
                        </g>
                        <g id="Group_8008" data-name="Group 8008">
                          <g id="Group_8002" data-name="Group 8002" transform="translate(0 71.602)">
                            <path id="Path_7806" data-name="Path 7806" d="M893.309,323.925a8.47,8.47,0,1,1-8.461-8.873A8.676,8.676,0,0,1,893.309,323.925Z" transform="translate(-876.388 -315.052)" fill="#fff"/>
                          </g>
                          <g id="Group_8003" data-name="Group 8003" transform="translate(157.352 71.602)">
                            <path id="Path_7807" data-name="Path 7807" d="M778.916,323.925a8.47,8.47,0,1,1-8.46-8.873A8.676,8.676,0,0,1,778.916,323.925Z" transform="translate(-761.995 -315.052)" fill="#fff"/>
                          </g>
                          <g id="Group_8004" data-name="Group 8004" transform="translate(39.478)">
                            <path id="Path_7808" data-name="Path 7808" d="M864.609,274.316a8.47,8.47,0,1,1-8.46-8.876A8.679,8.679,0,0,1,864.609,274.316Z" transform="translate(-847.688 -265.44)" fill="#fff"/>
                          </g>
                          <g id="Group_8005" data-name="Group 8005" transform="translate(39.478 142.607)">
                            <path id="Path_7809" data-name="Path 7809" d="M864.609,373.129a8.47,8.47,0,1,1-8.46-8.879A8.674,8.674,0,0,1,864.609,373.129Z" transform="translate(-847.688 -364.25)" fill="#fff"/>
                          </g>
                          <g id="Group_8006" data-name="Group 8006" transform="translate(117.873)">
                            <path id="Path_7810" data-name="Path 7810" d="M807.617,274.316a8.47,8.47,0,1,1-8.46-8.876A8.682,8.682,0,0,1,807.617,274.316Z" transform="translate(-790.696 -265.44)" fill="#fff"/>
                          </g>
                          <g id="Group_8007" data-name="Group 8007" transform="translate(117.873 142.607)">
                            <path id="Path_7811" data-name="Path 7811" d="M807.617,373.129a8.47,8.47,0,1,1-8.46-8.879A8.677,8.677,0,0,1,807.617,373.129Z" transform="translate(-790.696 -364.25)" fill="#fff"/>
                          </g>
                        </g>
                      </g>
                      <g id="Group_8018" data-name="Group 8018" transform="translate(353.645 143.256)">
                        <g id="Group_8010" data-name="Group 8010" transform="translate(7.148 7.102)">
                          <path id="Path_7812" data-name="Path 7812" d="M838.819,195.835l-38.906-70.7H722.975l-38.9,70.7-2.615-1.586,39.772-72.281h80.428l39.78,72.281Z" transform="translate(-681.458 -121.968)" fill="#fff"/>
                        </g>
                        <g id="Group_8017" data-name="Group 8017">
                          <g id="Group_8011" data-name="Group 8011" transform="translate(0 71.599)">
                            <path id="Path_7813" data-name="Path 7813" d="M807.577,175.536a8.47,8.47,0,1,1-8.462-8.879A8.675,8.675,0,0,1,807.577,175.536Z" transform="translate(-790.657 -166.657)" fill="#fff"/>
                          </g>
                          <g id="Group_8012" data-name="Group 8012" transform="translate(157.35 71.599)">
                            <path id="Path_7814" data-name="Path 7814" d="M693.187,175.536a8.471,8.471,0,1,1-8.46-8.879A8.673,8.673,0,0,1,693.187,175.536Z" transform="translate(-676.265 -166.657)" fill="#fff"/>
                          </g>
                          <g id="Group_8013" data-name="Group 8013" transform="translate(39.477)">
                            <path id="Path_7815" data-name="Path 7815" d="M778.878,125.923a8.47,8.47,0,1,1-8.457-8.876A8.675,8.675,0,0,1,778.878,125.923Z" transform="translate(-761.958 -117.047)" fill="#fff"/>
                          </g>
                          <g id="Group_8014" data-name="Group 8014" transform="translate(39.477 142.611)">
                            <path id="Path_7816" data-name="Path 7816" d="M778.878,224.736a8.47,8.47,0,1,1-8.457-8.876A8.676,8.676,0,0,1,778.878,224.736Z" transform="translate(-761.958 -215.86)" fill="#fff"/>
                          </g>
                          <g id="Group_8015" data-name="Group 8015" transform="translate(117.873)">
                            <path id="Path_7817" data-name="Path 7817" d="M721.884,125.923a8.468,8.468,0,1,1-8.459-8.876A8.673,8.673,0,0,1,721.884,125.923Z" transform="translate(-704.968 -117.047)" fill="#fff"/>
                          </g>
                          <g id="Group_8016" data-name="Group 8016" transform="translate(117.873 142.611)">
                            <path id="Path_7818" data-name="Path 7818" d="M721.884,224.736a8.468,8.468,0,1,1-8.459-8.876A8.673,8.673,0,0,1,721.884,224.736Z" transform="translate(-704.968 -215.86)" fill="#fff"/>
                          </g>
                        </g>
                      </g>
                      <g id="Group_8022" data-name="Group 8022" transform="translate(477.182 71.609)">
                        <g id="Group_8019" data-name="Group 8019" transform="translate(0 7.899)">
                          <path id="Path_7819" data-name="Path 7819" d="M1.677,81.579l3.059.064L3.059.064,0,0Z" transform="matrix(-0.866, -0.5, 0.5, -0.866, 4.101, 73.068)" fill="#fff"/>
                        </g>
                        <g id="Group_8021" data-name="Group 8021" transform="translate(33.823)">
                          <g id="Group_8020" data-name="Group 8020">
                            <path id="Path_7820" data-name="Path 7820" d="M693.178,76.28a8.47,8.47,0,1,1-8.462-8.876A8.678,8.678,0,0,1,693.178,76.28Z" transform="translate(-676.258 -67.404)" fill="#fff"/>
                          </g>
                        </g>
                      </g>
                      <g id="Group_8027" data-name="Group 8027" transform="translate(0 358.057)">
                        <g id="Group_8023" data-name="Group 8023" transform="translate(5.656 7.898)">
                          <path id="Path_7821" data-name="Path 7821" d="M1.677,81.577l3.058.064L3.058.064,0,0Z" transform="translate(4.1 73.062) rotate(-149.986)" fill="#fff"/>
                        </g>
                        <g id="Group_8026" data-name="Group 8026">
                          <g id="Group_8024" data-name="Group 8024" transform="translate(0 71.595)">
                            <path id="Path_7822" data-name="Path 7822" d="M1064.672,324.366a8.469,8.469,0,1,1-8.461-8.88A8.676,8.676,0,0,1,1064.672,324.366Z" transform="translate(-1047.753 -315.486)" fill="#fff"/>
                          </g>
                          <g id="Group_8025" data-name="Group 8025" transform="translate(39.478)">
                            <path id="Path_7823" data-name="Path 7823" d="M1035.973,274.754a8.47,8.47,0,1,1-8.461-8.875A8.675,8.675,0,0,1,1035.973,274.754Z" transform="translate(-1019.052 -265.879)" fill="#fff"/>
                          </g>
                        </g>
                      </g>
                      <g id="Group_8032" data-name="Group 8032" transform="translate(589.325 285.795)">
                        <g id="Group_8028" data-name="Group 8028" transform="translate(5.667 7.891)">
                          <path id="Path_7824" data-name="Path 7824" d="M1.677,81.581l3.059.064L3.059.064,0,0Z" transform="translate(4.101 73.079) rotate(-150.006)" fill="#fff"/>
                        </g>
                        <g id="Group_8031" data-name="Group 8031">
                          <g id="Group_8029" data-name="Group 8029" transform="translate(0 71.599)">
                            <path id="Path_7825" data-name="Path 7825" d="M636.242,274.3a8.47,8.47,0,1,1-8.461-8.876A8.676,8.676,0,0,1,636.242,274.3Z" transform="translate(-619.321 -265.42)" fill="#fff"/>
                          </g>
                          <g id="Group_8030" data-name="Group 8030" transform="translate(39.479)">
                            <path id="Path_7826" data-name="Path 7826" d="M607.541,224.683a8.47,8.47,0,1,1-8.461-8.873A8.677,8.677,0,0,1,607.541,224.683Z" transform="translate(-590.62 -215.81)" fill="#fff"/>
                          </g>
                        </g>
                      </g>
                      <g id="Group_8037" data-name="Group 8037" transform="translate(235.83 71.596)">
                        <g id="Group_8033" data-name="Group 8033" transform="translate(5.645 7.903)">
                          <path id="Path_7827" data-name="Path 7827" d="M1.678,81.578l3.06.064L3.06.064,0,0Z" transform="matrix(-0.866, -0.5, 0.5, -0.866, 4.102, 73.054)" fill="#fff"/>
                        </g>
                        <g id="Group_8036" data-name="Group 8036">
                          <g id="Group_8034" data-name="Group 8034" transform="translate(0 71.599)">
                            <path id="Path_7828" data-name="Path 7828" d="M893.227,125.882a8.47,8.47,0,1,1-8.46-8.877A8.675,8.675,0,0,1,893.227,125.882Z" transform="translate(-876.307 -117.005)" fill="#fff"/>
                          </g>
                          <g id="Group_8035" data-name="Group 8035" transform="translate(39.478)">
                            <path id="Path_7829" data-name="Path 7829" d="M864.528,76.268a8.471,8.471,0,1,1-8.462-8.873A8.676,8.676,0,0,1,864.528,76.268Z" transform="translate(-847.606 -67.395)" fill="#fff"/>
                          </g>
                        </g>
                      </g>
                      <g id="Group_8041" data-name="Group 8041" transform="translate(235.808)">
                        <g id="Group_8038" data-name="Group 8038" transform="translate(5.813 7.894)">
                          <path id="Path_7830" data-name="Path 7830" d="M.064,3.058,81.646,4.734l-.064-3.058L0,0Z" transform="translate(40.82 73.076) rotate(-119.998)" fill="#fff"/>
                        </g>
                        <g id="Group_8040" data-name="Group 8040" transform="translate(0)">
                          <g id="Group_8039" data-name="Group 8039">
                            <path id="Path_7831" data-name="Path 7831" d="M876.324,26.664a8.469,8.469,0,1,0,16.919,0,8.469,8.469,0,1,0-16.919,0Z" transform="translate(-876.324 -17.787)" fill="#fff"/>
                          </g>
                        </g>
                      </g>
                      <g id="Group_8046" data-name="Group 8046" transform="translate(0.008 143.859)">
                        <g id="Group_8042" data-name="Group 8042" transform="translate(5.812 7.895)">
                          <path id="Path_7832" data-name="Path 7832" d="M.064,3.059l81.58,1.677L81.58,1.677,0,0Z" transform="matrix(-0.5, -0.866, 0.866, -0.5, 40.823, 73.074)" fill="#fff"/>
                        </g>
                        <g id="Group_8045" data-name="Group 8045">
                          <g id="Group_8043" data-name="Group 8043" transform="translate(39.48 71.601)">
                            <path id="Path_7833" data-name="Path 7833" d="M1019.047,175.95a8.469,8.469,0,1,0,8.459-8.874A8.677,8.677,0,0,0,1019.047,175.95Z" transform="translate(-1019.047 -167.076)" fill="#fff"/>
                          </g>
                          <g id="Group_8044" data-name="Group 8044">
                            <path id="Path_7834" data-name="Path 7834" d="M1047.748,126.342a8.469,8.469,0,1,0,8.461-8.877A8.678,8.678,0,0,0,1047.748,126.342Z" transform="translate(-1047.748 -117.465)" fill="#fff"/>
                          </g>
                        </g>
                      </g>
                      <g id="Group_8053" data-name="Group 8053" transform="translate(117.915 286.45)">
                        <g id="Group_8047" data-name="Group 8047" transform="translate(6.711 7.101)">
                          <path id="Path_7835" data-name="Path 7835" d="M1002.149,367.346H922.595l-40.212-73.089,40.212-73.073h79.554v3.172H924.338l-38.464,69.9,38.464,69.916h77.811Z" transform="translate(-882.383 -221.184)" fill="#fff"/>
                        </g>
                        <g id="Group_8052" data-name="Group 8052">
                          <g id="Group_8048" data-name="Group 8048" transform="translate(0 71.601)">
                            <path id="Path_7836" data-name="Path 7836" d="M978.949,274.751a8.47,8.47,0,1,1-8.461-8.876A8.677,8.677,0,0,1,978.949,274.751Z" transform="translate(-962.029 -265.875)" fill="#fff"/>
                          </g>
                          <g id="Group_8049" data-name="Group 8049" transform="translate(39.478)">
                            <path id="Path_7837" data-name="Path 7837" d="M950.25,225.14a8.471,8.471,0,1,1-8.462-8.876A8.672,8.672,0,0,1,950.25,225.14Z" transform="translate(-933.328 -216.264)" fill="#fff"/>
                          </g>
                          <g id="Group_8050" data-name="Group 8050" transform="translate(39.478 142.61)">
                            <path id="Path_7838" data-name="Path 7838" d="M950.25,323.955a8.471,8.471,0,1,1-8.462-8.879A8.677,8.677,0,0,1,950.25,323.955Z" transform="translate(-933.328 -315.076)" fill="#fff"/>
                          </g>
                          <g id="Group_8051" data-name="Group 8051" transform="translate(117.874)">
                            <path id="Path_7839" data-name="Path 7839" d="M893.256,225.14a8.469,8.469,0,1,1-8.458-8.876A8.671,8.671,0,0,1,893.256,225.14Z" transform="translate(-876.338 -216.264)" fill="#fff"/>
                          </g>
                        </g>
                      </g>
                      <g id="Group_8057" data-name="Group 8057" transform="translate(242.456 214.85)">
                        <g id="Group_8054" data-name="Group 8054" transform="translate(0 7.101)">
                          <path id="Path_7840" data-name="Path 7840" d="M806.946,316.941l-39.774-72.293,40.211-73.075h80.425l39.777,72.281-2.615,1.584-38.906-70.7H809.128l-38.465,69.9,38.9,70.706Z" transform="translate(-767.172 -171.573)" fill="#fff"/>
                        </g>
                        <g id="Group_8056" data-name="Group 8056" transform="translate(32.767)">
                          <g id="Group_8055" data-name="Group 8055">
                            <path id="Path_7841" data-name="Path 7841" d="M864.59,175.529a8.471,8.471,0,1,1-8.459-8.876A8.674,8.674,0,0,1,864.59,175.529Z" transform="translate(-847.668 -166.653)" fill="#fff"/>
                          </g>
                        </g>
                      </g>
                      <g id="Group_8061" data-name="Group 8061" transform="translate(125.055 143.211)">
                        <g id="Group_8058" data-name="Group 8058" transform="translate(0 7.102)">
                          <path id="Path_7842" data-name="Path 7842" d="M885.006,195.8l-2.617-1.586,39.772-72.279h79.556v3.17H923.907Z" transform="translate(-882.39 -121.937)" fill="#fff"/>
                        </g>
                        <g id="Group_8060" data-name="Group 8060" transform="translate(32.332)">
                          <g id="Group_8059" data-name="Group 8059">
                            <path id="Path_7843" data-name="Path 7843" d="M950.254,125.893a8.469,8.469,0,1,1-8.461-8.877A8.673,8.673,0,0,1,950.254,125.893Z" transform="translate(-933.335 -117.016)" fill="#fff"/>
                          </g>
                        </g>
                      </g>
                      <g id="Group_8069" data-name="Group 8069" transform="translate(471.428 357.423)">
                        <g id="Group_8062" data-name="Group 8062" transform="translate(6.71 7.1)">
                          <path id="Path_7844" data-name="Path 7844" d="M715.6,416.52H636.042l-40.21-73.086,40.21-73.074h80.43l39.777,72.284-2.616,1.585-38.908-70.7H637.787l-38.463,69.9,38.463,69.916H715.6Z" transform="translate(-595.832 -270.359)" fill="#fff"/>
                        </g>
                        <g id="Group_8068" data-name="Group 8068">
                          <g id="Group_8063" data-name="Group 8063" transform="translate(0 71.602)">
                            <path id="Path_7845" data-name="Path 7845" d="M721.95,323.925a8.47,8.47,0,1,1-8.459-8.873A8.676,8.676,0,0,1,721.95,323.925Z" transform="translate(-705.03 -315.052)" fill="#fff"/>
                          </g>
                          <g id="Group_8064" data-name="Group 8064" transform="translate(157.35 71.602)">
                            <path id="Path_7846" data-name="Path 7846" d="M607.56,323.925a8.471,8.471,0,1,1-8.46-8.873A8.677,8.677,0,0,1,607.56,323.925Z" transform="translate(-590.637 -315.052)" fill="#fff"/>
                          </g>
                          <g id="Group_8065" data-name="Group 8065" transform="translate(39.479)">
                            <path id="Path_7847" data-name="Path 7847" d="M693.249,274.316a8.47,8.47,0,1,1-8.46-8.876A8.68,8.68,0,0,1,693.249,274.316Z" transform="translate(-676.329 -265.44)" fill="#fff"/>
                          </g>
                          <g id="Group_8066" data-name="Group 8066" transform="translate(39.479 142.607)">
                            <path id="Path_7848" data-name="Path 7848" d="M693.249,373.129a8.47,8.47,0,1,1-8.46-8.879A8.675,8.675,0,0,1,693.249,373.129Z" transform="translate(-676.329 -364.25)" fill="#fff"/>
                          </g>
                          <g id="Group_8067" data-name="Group 8067" transform="translate(117.873 142.607)">
                            <path id="Path_7849" data-name="Path 7849" d="M636.259,373.129a8.47,8.47,0,1,1-8.459-8.879A8.676,8.676,0,0,1,636.259,373.129Z" transform="translate(-619.338 -364.25)" fill="#fff"/>
                          </g>
                        </g>
                      </g>
                      <g id="Group_8075" data-name="Group 8075" transform="translate(0.036 215.457)">
                        <g id="Group_8070" data-name="Group 8070" transform="translate(7.144 7.102)">
                          <path id="Path_7850" data-name="Path 7850" d="M941.148,245.864l-2.618-1.587L978.308,172h80.428l39.773,72.283-2.618,1.587-38.9-70.7H980.053Z" transform="translate(-938.53 -171.995)" fill="#fff"/>
                        </g>
                        <g id="Group_8071" data-name="Group 8071" transform="translate(47.795 150.09)">
                          <rect id="Rectangle_2863" data-name="Rectangle 2863" width="78.683" height="3.173" fill="#fff"/>
                        </g>
                        <g id="Group_8074" data-name="Group 8074" transform="translate(0)">
                          <g id="Group_8072" data-name="Group 8072" transform="translate(0 71.602)">
                            <path id="Path_7851" data-name="Path 7851" d="M1047.727,225.562a8.469,8.469,0,1,0,8.459-8.876A8.672,8.672,0,0,0,1047.727,225.562Z" transform="translate(-1047.727 -216.686)" fill="#fff"/>
                          </g>
                          <g id="Group_8073" data-name="Group 8073" transform="translate(117.873)">
                            <path id="Path_7852" data-name="Path 7852" d="M962.035,175.951a8.469,8.469,0,1,0,8.46-8.877A8.675,8.675,0,0,0,962.035,175.951Z" transform="translate(-962.035 -167.074)" fill="#fff"/>
                          </g>
                        </g>
                      </g>
                      <g id="Group_8077" data-name="Group 8077" transform="translate(360.744 292.916)">
                        <g id="Group_8076" data-name="Group 8076">
                          <path id="Path_7853" data-name="Path 7853" d="M838.858,294.613l-38.906-70.7H723.014l-38.9,70.7-2.615-1.586,39.771-72.283H801.7l39.775,72.283Z" transform="translate(-681.498 -220.744)" fill="#fff"/>
                        </g>
                      </g>
                      <g id="Group_8085" data-name="Group 8085" transform="translate(353.525 571.593)">
                        <g id="Group_8078" data-name="Group 8078" transform="translate(6.71 7.102)">
                          <path id="Path_7854" data-name="Path 7854" d="M721.322,564.121l-39.775-72.293,40.21-73.072h80.429l39.777,72.278-2.617,1.585-38.906-70.7H723.5l-38.465,69.9,38.9,70.708Z" transform="translate(-681.547 -418.756)" fill="#fff"/>
                        </g>
                        <g id="Group_8084" data-name="Group 8084">
                          <g id="Group_8079" data-name="Group 8079" transform="translate(0 71.599)">
                            <path id="Path_7855" data-name="Path 7855" d="M807.664,472.322a8.469,8.469,0,1,1-8.46-8.877A8.674,8.674,0,0,1,807.664,472.322Z" transform="translate(-790.745 -463.445)" fill="#fff"/>
                          </g>
                          <g id="Group_8080" data-name="Group 8080" transform="translate(157.352 71.599)">
                            <path id="Path_7856" data-name="Path 7856" d="M693.271,472.322a8.469,8.469,0,1,1-8.461-8.877A8.674,8.674,0,0,1,693.271,472.322Z" transform="translate(-676.352 -463.445)" fill="#fff"/>
                          </g>
                          <g id="Group_8081" data-name="Group 8081" transform="translate(39.479)">
                            <path id="Path_7857" data-name="Path 7857" d="M778.963,422.708a8.468,8.468,0,1,1-8.458-8.873A8.676,8.676,0,0,1,778.963,422.708Z" transform="translate(-762.046 -413.835)" fill="#fff"/>
                          </g>
                          <g id="Group_8082" data-name="Group 8082" transform="translate(39.479 142.611)">
                            <path id="Path_7858" data-name="Path 7858" d="M778.963,521.525a8.468,8.468,0,1,1-8.458-8.877A8.673,8.673,0,0,1,778.963,521.525Z" transform="translate(-762.046 -512.648)" fill="#fff"/>
                          </g>
                          <g id="Group_8083" data-name="Group 8083" transform="translate(117.872)">
                            <path id="Path_7859" data-name="Path 7859" d="M721.973,422.708a8.469,8.469,0,1,1-8.457-8.873A8.674,8.674,0,0,1,721.973,422.708Z" transform="translate(-705.055 -413.835)" fill="#fff"/>
                          </g>
                        </g>
                      </g>
                      <g id="Group_8088" data-name="Group 8088" transform="translate(360.297 436.116)">
                        <g id="Group_8086" data-name="Group 8086" transform="translate(116.975 72.284)">
                          <path id="Path_7860" data-name="Path 7860" d="M1.677,81.592l3.059.064L3.059.064,0,0Z" transform="translate(4.101 73.085) rotate(-150.002)" fill="#fff"/>
                        </g>
                        <g id="Group_8087" data-name="Group 8087" transform="translate(0)">
                          <path id="Path_7861" data-name="Path 7861" d="M750.828,465.334l-39.775-72.293,40.212-73.076H830.82v3.17H753.008l-38.467,69.906,38.9,70.708Z" transform="translate(-711.053 -319.965)" fill="#fff"/>
                        </g>
                      </g>
                    </g>
                  </g>
                </g>
                <g id="Group_8093" data-name="Group 8093" transform="translate(896.5 -538.51)">
                  <g id="Group_8092" data-name="Group 8092" transform="translate(-480 475.765)">
                    <rect id="Rectangle_2864" data-name="Rectangle 2864" width="1113" height="1167.779" rx="556.5" transform="translate(0 0)" stroke="rgba(0,0,0,0)" stroke-miterlimit="10" stroke-width="1" opacity="0.22" fill="url(#linear-gradient-4)"/>
                  </g>
                </g>
              </g>
            </g>
          </g>
        </g>
      </g>
      <rect id="Rectangle_2868" data-name="Rectangle 2868" width="1920" height="129" rx="10" transform="translate(-5050 4938)" fill="url(#linear-gradient-2)"/>
    </g>
  </g>
</svg>
